<svg width="36" height="30" viewBox="0 0 36 30" fill="none" xmlns="http://www.w3.org/2000/svg">
<mask id="mask0_464_4496" style="mask-type:alpha" maskUnits="userSpaceOnUse" x="0" y="0" width="36" height="30">
<path d="M35.1042 7.46853L31.2067 29.0822C31.2067 29.0822 19.4222 29.6793 14.4157 29.6793C6.45656 29.6793 0 23.2294 0 15.2636C0 7.29793 6.45656 0.854492 14.4157 0.854492C22.3749 0.854492 35.1042 7.46853 35.1042 7.46853Z" fill="#24D124"/>
</mask>
<g mask="url(#mask0_464_4496)">
<path fill-rule="evenodd" clip-rule="evenodd" d="M9.73744 10.9794C11.0207 10.9794 11.1638 10.127 11.5694 7.71093C11.6096 7.47096 11.6525 7.21558 11.6993 6.94407C11.9076 5.71867 12.5533 3.65497 13.0249 2.14762C13.3261 1.18517 13.5563 0.449538 13.5563 0.30379C13.5563 -0.63451 4.23231 2.6397 4.23231 2.6397L-0.866008 10.3954C-0.866008 10.3954 2.18511 10.3364 5.01969 10.4611C6.54105 10.4611 7.48393 10.6424 8.2543 10.7906C8.78639 10.8929 9.23618 10.9794 9.73744 10.9794ZM9.56624 21.2356C14.1987 21.2356 16.2918 18.7226 16.2918 17.9942C16.2918 17.4883 16.0161 16.9983 15.644 16.3372C14.8725 14.9663 13.6869 12.8596 13.6869 8.34875C13.6869 4.12968 14.5237 0.926812 14.7599 0.926812C15.1667 0.926812 15.6357 1.30822 15.6357 2.14154C15.6357 2.5169 15.5932 3.04812 15.5554 3.52047C15.5251 3.89858 15.4979 4.23898 15.4979 4.43151C15.4979 9.23456 18.0109 9.57576 18.7983 9.57576C20.8007 9.57576 22.7429 7.8417 24.173 6.56484C25.0063 5.82081 25.6658 5.23202 26.062 5.23202C26.4622 5.23202 26.6853 5.42231 26.6853 5.86849C26.6853 6.43107 25.7473 7.5581 24.6218 8.91033L24.6218 8.9104C24.0014 9.65575 23.3241 10.4695 22.7156 11.2949C22.3386 11.8094 22.074 12.342 21.8243 12.8446C21.1569 14.1878 20.5958 15.3171 18.28 15.3171C16.738 15.3171 16.0097 15.094 16.0097 15.094C16.0097 15.094 16.2196 15.9339 17.7616 15.9339C19.4256 15.9339 20.3817 15.61 20.6882 15.5062C20.7466 15.4864 20.7815 15.4746 20.793 15.4746C21.1765 15.4746 21.3898 16.6248 21.6326 17.9349C21.7887 18.7768 21.957 19.6847 22.1906 20.3957C22.7227 22.0199 23.3044 23.6178 23.7707 24.8985L23.7707 24.8986L23.7707 24.8986L23.7707 24.8986C24.2934 26.3343 24.6709 27.3714 24.6709 27.6003C24.6709 27.8956 24.4347 28.473 23.7523 28.473C22.9436 28.473 22.0486 26.4514 21.134 24.3857C20.1786 22.2278 19.2019 20.0217 18.28 20.0217C17.2354 20.0217 16.9621 22.6729 16.7036 25.18C16.4717 27.429 16.2518 29.5622 15.4979 29.5622H14.868C14.868 29.3046 14.9064 28.7619 14.9559 28.064L14.9559 28.0639V28.0638C15.045 26.8064 15.1698 25.045 15.1698 23.5387C15.1698 22.3708 15.0189 20.8026 14.5399 20.8026C14.2052 20.8026 12.683 20.9141 12.683 22.817C12.683 23.939 13.6278 30.0018 13.6278 30.0018C13.6278 30.0018 9.04131 29.5557 9.04131 29.2079C9.04131 29.0961 9.25634 28.5088 9.54812 27.7118C10.1638 26.0301 11.1213 23.4148 11.1213 22.3642C11.1213 21.6949 10.5111 21.6621 10.1174 21.6621C8.81166 21.6621 8.70556 22.2156 8.28911 24.3879L8.2891 24.388C8.10913 25.3268 7.87119 26.5679 7.45342 28.1974C3.96268 29.1029 -4.95446 17.1215 -1.41778 14.0704C-0.784122 13.524 -1.03012 13.0287 -1.22909 12.6281C-1.53902 12.0041 -1.73484 11.6098 1.68583 11.6098C7.41405 11.6098 7.88648 13.6767 7.88648 15.6124C7.88648 16.9057 7.72673 18.055 7.60908 18.9015C7.5405 19.3948 7.48623 19.7853 7.48623 20.0414C7.48623 20.7435 7.51904 21.2356 9.56624 21.2356ZM21.259 6.13753C21.259 4.4184 20.1961 3.76225 19.2249 3.76225C17.6961 3.76225 16.6988 5.28453 16.6988 6.4656C16.6988 7.64668 17.4993 8.86057 18.7591 8.86057C20.0189 8.86057 21.259 7.85665 21.259 6.13753ZM8.45749 9.94914C6.68588 9.94914 6.2725 7.75102 6.2725 7.75102C6.2725 9.13551 6.92209 9.9557 6.92865 9.94914C5.54417 9.94914 5.43262 9.56201 5.43262 9.56201C5.43262 9.56201 5.56385 8.5909 5.56385 7.75102C5.56385 5.55291 6.38405 4.46369 7.86695 4.46369C8.64861 4.46369 9.11728 4.63486 9.58741 4.80656C10.0605 4.97934 10.535 5.15265 11.3314 5.15265C11.3314 7.08175 10.8918 7.63948 10.8853 7.61323C10.8853 7.08175 9.97321 5.46761 9.09396 5.46761C9.09396 5.46761 10.426 6.37966 10.426 7.87569C10.426 8.8468 9.91416 9.94914 8.45749 9.94914Z" fill="#0EB80E"/>
</g>
</svg>
