<svg width="137" height="286" viewBox="0 0 137 286" fill="none" xmlns="http://www.w3.org/2000/svg">
<g opacity="0.3">
<path d="M53.6717 30.1311C53.6717 31.6224 54.95 32.8505 56.5022 32.8505C58.0544 32.8505 59.3326 31.6224 59.3326 30.1311C59.3326 28.6399 58.0544 27.4117 56.5022 27.4117C54.95 27.4117 53.6717 28.6399 53.6717 30.1311Z" stroke="#FB974E" stroke-miterlimit="10" stroke-linecap="round" stroke-linejoin="round"/>
</g>
<g opacity="0.3">
<path d="M34.8632 30.1303C34.8632 31.6215 36.1415 32.8496 37.6937 32.8496C39.2459 32.8496 40.5242 31.6215 40.5242 30.1303C40.5242 28.639 39.2459 27.4109 37.6937 27.4109C36.1415 27.4109 34.8632 28.639 34.8632 30.1303Z" stroke="#FB974E" stroke-miterlimit="10" stroke-linecap="round" stroke-linejoin="round"/>
</g>
<g opacity="0.3">
<path d="M44.2672 30.1303C44.2672 31.6215 45.5454 32.8496 47.0976 32.8496C48.6498 32.8496 49.9281 31.6215 49.9281 30.1303C49.9281 28.639 48.6498 27.4109 47.0976 27.4109C45.5454 27.4109 44.2672 28.639 44.2672 30.1303Z" stroke="#FB974E" stroke-miterlimit="10" stroke-linecap="round" stroke-linejoin="round"/>
</g>
<g opacity="0.3">
<path d="M87.7241 5.91951C87.4502 4.42823 85.898 3.55101 83.7067 3.98962C81.6066 4.34051 80.237 5.39317 79.5066 6.88445L76.4022 5.65634C77.5892 3.28785 79.9631 1.53341 83.524 0.919357C87.7241 0.217582 90.8285 1.53341 91.4676 4.6914C92.2894 9.16522 87.5415 10.3933 88.1806 13.639L84.5284 14.2531C83.6153 10.2179 88.2719 8.63889 87.7241 5.91951ZM84.8023 18.8146C84.6197 17.6742 85.3502 16.5339 86.7197 16.2707C87.998 16.0075 89.185 16.797 89.3676 17.9374C89.5502 19.0778 88.8198 20.2182 87.5415 20.4813C86.1719 20.7445 85.0762 19.955 84.8023 18.8146Z" stroke="#FB974E" stroke-miterlimit="10" stroke-linecap="round" stroke-linejoin="round"/>
</g>
<g opacity="0.3">
<path d="M71.272 13.3762C71.9111 12.4113 71.5459 11.2709 70.1763 10.3937C68.898 9.60419 67.6198 9.42874 66.4328 9.86735L65.4284 7.6743C67.3459 6.97253 69.4459 7.23569 71.6372 8.63925C74.2851 10.306 75.1981 12.499 73.8285 14.4289C71.9111 17.236 68.7154 15.5693 67.3459 17.5869L65.0632 16.1833C66.8893 13.6394 70.1763 15.0429 71.272 13.3762ZM62.9632 18.7273C63.4197 18.0255 64.4241 17.7623 65.2458 18.2887C66.0676 18.815 66.2502 19.7799 65.7937 20.4817C65.3371 21.1835 64.3328 21.4466 63.511 20.9203C62.6893 20.4817 62.5067 19.5168 62.9632 18.7273Z" stroke="#FB974E" stroke-miterlimit="10" stroke-linecap="round" stroke-linejoin="round"/>
</g>
<path d="M122.247 164.668C124.178 202.146 126.371 250.111 124.982 250.752C124.556 250.948 122.916 251.102 120.531 251.22M61.8719 145.231L37.6029 237.681C37.6029 237.681 39.783 238.641 43.0305 240.053M75.027 118.663L97.448 119.705M65.783 249.627C68.6507 250.748 70.659 251.447 71.0207 251.366C72.5729 251.015 85.0817 193.82 85.0817 193.82C85.0817 193.82 85.8122 251.103 85.7209 251.366C85.6991 251.428 87.7925 251.486 91.0241 251.524" stroke="black" stroke-linecap="round" stroke-linejoin="round"/>
<path d="M57.4161 276.892C56.8683 278.384 55.2248 279.349 53.6726 278.91L60.8059 256.345C62.4367 256.482 63.641 256.612 63.9901 256.716C65.1771 257.067 59.5162 270.664 57.4161 276.892Z" fill="#0EB80E"/>
<path d="M118.956 279.612C118.956 281.279 117.678 282.595 116.034 282.683L115.554 259.063C117.183 258.707 118.399 258.471 118.774 258.471C119.961 258.471 119.047 273.121 118.956 279.612Z" fill="#0EB80E"/>
<path d="M53.6726 278.91C55.2248 279.349 56.8683 278.384 57.4161 276.893C59.5162 270.665 65.1771 257.068 63.9901 256.717C62.5292 256.278 46.0943 255.401 46.0943 255.401C46.0943 255.401 48.6508 246.717 41.8942 246.278C36.6898 245.927 29.2941 249.611 26.0984 251.366C25.094 251.892 23.9984 252.155 22.8114 252.068C17.9722 251.717 4.55032 251.366 2.17638 257.594C-0.654089 265.226 2.81551 265.401 4.3677 265.84C5.55467 266.191 43.0812 276.103 53.6726 278.91Z" stroke="black" stroke-linecap="round" stroke-linejoin="round"/>
<path d="M116.034 282.682C117.678 282.595 118.956 281.279 118.956 279.612C119.047 273.121 119.961 258.471 118.774 258.471C117.221 258.471 101.243 262.506 101.243 262.506C101.243 262.506 100.878 253.471 94.3037 255.05C89.2819 256.278 83.3471 261.98 80.8818 264.524C80.0601 265.314 79.147 265.928 78.0514 266.191C73.3948 267.243 60.4294 270.84 60.1555 277.507C59.8816 285.665 63.2599 284.7 64.8121 284.7C66.273 284.7 105.078 283.121 116.034 282.682Z" stroke="black" stroke-linecap="round" stroke-linejoin="round"/>
<path d="M84.9813 188.879V139.434L72.6469 130.984" stroke="black" stroke-linecap="round" stroke-linejoin="round"/>
<path d="M68.0398 117.833C69.3181 112.92 71.3268 104.324 73.3355 95.0252C67.829 97.3592 59.5934 99.1412 49.5842 96.2711L48.0071 69.5565C51.8981 69.1912 56.0731 68.6235 59.9136 67.7437C67.0475 66.1351 74.0072 61.2368 79.451 57.5386L88.3503 72.2564C85.4693 82.5614 82.157 94.4417 80.0921 101.955C80.0008 102.131 79.9095 102.306 79.9095 102.482C78.9051 106.341 78.1747 109.061 78.0834 109.412C77.6269 111.341 75.9834 116.78 71.1442 131.518C69.592 137.483 68.0398 143.36 66.4876 149.237L66.4876 149.237C65.8485 145.992 65.118 140.904 65.3006 134.675C65.5745 126.868 67.1267 121.342 68.0398 117.833Z" fill="#0EB80E"/>
<path d="M114.149 163.273C110.223 162.922 102.188 160.642 100.909 160.203C99.9021 159.8 101.905 114.532 102.731 96.1269L102.918 91.9553C93.1485 81.0778 86.6658 65.2001 86.6658 65.2001L88.5845 63.7319L100.978 54.2479L102.37 53.1822L105.475 56.8666C105.749 53.1822 105.931 51.0769 105.931 51.0769C117.984 51.0769 129.488 59.4982 129.488 59.4982C129.488 59.4982 145.193 88.0956 129.305 99.0608C130.492 120.553 125.471 161.168 123.827 162.835C121.91 164.94 118.075 163.624 114.149 163.273Z" fill="#0EB80E"/>
<path d="M47.4509 95.5894C57.4601 98.4595 65.6957 96.6775 71.2022 94.3435C69.1935 103.642 67.1848 112.239 65.9065 117.151C64.9934 120.66 63.4412 126.187 63.1673 133.994C62.9847 140.222 63.7152 145.31 64.3543 148.556C65.9065 142.678 67.4587 136.801 69.0109 130.836C73.8501 116.099 75.4936 110.66 75.9501 108.73C76.0414 108.379 76.7718 105.66 77.7762 101.8C77.7762 101.624 77.8675 101.449 77.9588 101.274C80.0237 93.7601 83.336 81.8798 86.217 71.5748M45.8738 68.8749C49.7648 68.5095 53.9398 67.9419 57.7803 67.062C64.9142 65.4535 71.8739 60.5551 77.3177 56.8569" stroke="black" stroke-miterlimit="10" stroke-linecap="round" stroke-linejoin="round"/>
<path d="M98.8451 53.5654L100.238 52.4997L103.342 56.1841C103.616 52.4997 103.799 50.3944 103.799 50.3944C115.851 50.3944 127.355 58.8157 127.355 58.8157C127.355 58.8157 143.06 87.4131 127.173 98.3783C128.36 119.87 123.338 160.485 121.694 162.152C119.777 164.257 115.942 162.942 112.016 162.591C108.09 162.24 100.055 159.959 98.7768 159.52C97.7694 159.117 99.7722 113.85 100.598 95.4445M86.4518 63.0494L84.5331 64.5176C84.5331 64.5176 91.0158 80.3953 100.786 91.2728C107.909 99.2042 115.321 102.874 123.731 100.033" stroke="black" stroke-miterlimit="10" stroke-linecap="round" stroke-linejoin="round"/>
<path d="M27.0106 95.9224L50.1109 94.4311C50.9327 94.3434 51.3892 93.6416 51.024 92.7644L39.7934 58.0265C39.5195 57.1493 38.6064 56.4475 37.7847 56.5353L14.7757 58.0265" stroke="black" stroke-linecap="round" stroke-linejoin="round"/>
<path d="M14.0047 68.8465L11.1232 59.9562C10.8493 59.079 11.3058 58.3772 12.1276 58.2895L35.1365 56.7982C35.9583 56.7105 36.8713 57.4122 37.1452 58.2895L48.3758 93.0273C48.6497 93.8168 48.1932 94.5186 47.3715 94.6063L24.3625 96.0976C23.5407 96.1853 22.6277 95.4836 22.3538 94.6063L19.7519 86.5785" stroke="black" stroke-linecap="round" stroke-linejoin="round"/>
<path d="M30.2977 57.6556L30.9369 59.9364C31.1195 60.7259 31.0282 61.6031 30.4803 62.3049C29.9325 63.0067 29.2021 63.3576 28.3803 63.4453L22.8107 63.7962C22.7194 63.7962 22.7194 63.7962 22.6281 63.7962C21.2585 63.7962 19.9802 62.919 19.7063 61.6031L18.7019 58.5329" stroke="black" stroke-linecap="round" stroke-linejoin="round"/>
<path d="M21.3497 76.0972C21.3497 76.0972 25.8236 74.5182 24.728 73.1146C23.7236 71.7988 10.9408 68.4654 8.29298 70.0444C5.1886 71.9743 10.8495 74.5182 10.8495 74.5182C10.8495 74.5182 8.01906 75.22 8.20167 77.5007C8.47558 79.8692 10.393 80.8342 10.393 80.8342C10.393 80.8342 9.66255 83.2904 10.9408 84.8694C12.3104 86.4484 23.9062 86.3607 25.641 83.2904C27.2845 80.2201 22.0801 80.9219 22.0801 80.9219M21.3497 76.0972C21.3497 76.0972 27.741 76.7112 27.5584 78.992C27.3758 81.1851 22.0801 80.9219 22.0801 80.9219M21.3497 76.0972C18.1534 75.6607 16.3678 75.5744 13.1676 75.6666M22.0801 80.9219C18.7272 80.9004 17.0106 80.8644 13.8787 80.8342" stroke="black" stroke-linecap="round" stroke-linejoin="round"/>
<path d="M103.822 46.3408V48.7278" stroke="black" stroke-miterlimit="10" stroke-linecap="round" stroke-linejoin="round"/>
<path d="M110.127 38.8388C110.031 39.6678 109.713 40.5326 109.095 41.3594C107.903 43.0024 106.358 43.3738 105.245 43.3878M90.0834 28.2678C89.4741 29.9232 88.6988 32.2778 88.1827 34.7468" stroke="black" stroke-linecap="round" stroke-linejoin="round"/>
<path d="M98.4117 30.4821C98.503 30.4821 98.503 30.4821 98.5943 30.3943C98.7769 30.3066 98.7769 30.1312 98.6856 29.9557C97.4987 28.4645 95.9465 28.7276 95.216 29.0785C95.0334 29.1662 95.0334 29.3417 95.1247 29.5171C95.216 29.6926 95.3986 29.6926 95.5812 29.6048C95.6726 29.6048 97.0421 28.9031 98.2291 30.3066C98.2291 30.3943 98.3204 30.4821 98.4117 30.4821Z" fill="black"/>
<path d="M89.7382 30.0431C89.8295 30.0431 89.9208 30.0431 89.9208 29.9554C90.9251 29.1659 91.8382 29.7799 91.9295 29.7799C92.1121 29.8676 92.2947 29.7799 92.386 29.6922C92.4773 29.5167 92.386 29.3413 92.2947 29.2536C92.2034 29.2536 90.8338 28.4641 89.5555 29.5167C89.3729 29.6045 89.3729 29.7799 89.4642 29.9554C89.5555 29.9554 89.6468 30.0431 89.7382 30.0431Z" fill="black"/>
<path d="M95.398 34.2538C95.5806 34.2538 95.6719 34.166 95.6719 33.9906L96.2197 32.0607C96.311 31.8853 96.1284 31.7098 96.0371 31.7098C95.8545 31.6221 95.6719 31.7975 95.6719 31.8853L95.1241 33.8151C95.0328 34.0783 95.1241 34.166 95.398 34.2538C95.3067 34.2538 95.398 34.2538 95.398 34.2538Z" fill="black"/>
<path d="M93.5716 41.535C94.1194 41.535 95.8542 41.3595 96.676 39.7805C96.7673 39.6051 96.676 39.4296 96.4934 39.3419C96.3108 39.2542 96.1281 39.3419 96.0368 39.5174C95.3064 41.0963 93.4803 40.9209 93.389 40.9209C93.2064 40.9209 93.0238 41.0086 93.0238 41.1841C93.0238 41.3595 93.1151 41.535 93.2977 41.535C93.2977 41.535 93.389 41.535 93.5716 41.535Z" fill="black"/>
<path d="M102.318 35.6381C101.862 35.4627 101.223 35.1118 100.584 34.6732C97.5705 32.7433 97.3878 28.8836 97.3878 28.8836C97.3878 28.8836 96.2009 27.3046 93.9182 27.3046C91.9095 27.3046 91.1791 28.0063 91.0878 28.0941C91.0878 28.0941 87.4356 25.8133 88.3486 23.4448C89.2617 21.0763 93.0052 21.3395 93.0052 21.3395C93.0052 21.3395 95.1052 16.3393 100.584 18.1815C106.062 19.9359 107.066 23.4448 107.066 23.4448C107.066 23.4448 110.627 23.2693 112.179 25.9887C113.732 28.7081 113.275 30.8134 113.275 30.8134C113.275 30.8134 115.74 32.3047 114.827 34.5855C114.005 36.7785 110.992 38.533 110.81 38.6207C110.718 36.954 109.805 35.6381 108.71 35.1118C108.162 34.8486 107.523 34.8486 106.975 34.9364C105.879 35.0241 105.058 35.5504 104.875 35.6381H102.318Z" fill="#BDCCD4"/>
<path d="M88.6225 36.8662V36.7785L89.1704 38.1821C89.2617 38.4452 89.5356 38.533 89.8095 38.3575C90.1747 38.1821 90.9052 37.9189 92.0921 38.0066C94.1009 38.0944 95.5617 39.0593 97.0226 39.3225C98.4835 39.5856 101.588 38.7084 101.588 38.7084L102.318 35.6381H104.875L104.784 37.3926L104.601 43.7086C104.601 43.7086 104.601 44.5858 103.414 45.3753C102.227 46.2525 95.927 49.6737 91.1791 47.042C86.6138 44.8489 88.3486 37.7435 88.6225 36.8662Z" fill="#ACBDC6"/>
<path d="M97.7789 46.8799C100.161 46.2496 102.098 45.14 102.703 44.6924C103.89 43.9029 103.89 43.0257 103.89 43.0257L104.073 36.7097L104.164 34.9553C104.347 34.8676 105.168 34.3412 106.264 34.2535C106.812 34.1658 107.451 34.1658 107.999 34.429C109.094 34.9553 110.007 36.2711 110.099 37.9378C110.281 37.8501 113.294 36.0957 114.116 33.9026C115.029 31.6218 112.564 30.1306 112.564 30.1306C112.564 30.1306 113.021 28.0252 111.468 25.3059C109.916 22.5865 106.355 22.7619 106.355 22.7619C106.355 22.7619 105.351 19.2531 99.8726 17.4986C94.3943 15.6565 92.2942 20.6566 92.2942 20.6566C92.2942 20.6566 88.5507 20.3934 87.6377 22.7619C86.7246 25.1304 90.3768 27.4112 90.3768 27.4112C90.4681 27.3235 91.1986 26.6217 93.2073 26.6217C95.4899 26.6217 96.6769 28.2007 96.6769 28.2007C96.6769 28.2007 96.8595 32.0605 99.8726 33.9903C100.512 34.4289 101.151 34.7798 101.607 34.9553L100.877 38.0255C100.877 38.0255 97.7726 38.9028 96.3117 38.6396C94.8508 38.3764 93.3899 37.4115 91.3812 37.3238C90.1942 37.2361 89.4638 37.4992 89.0986 37.6747C88.8246 37.8501 88.5507 37.7624 88.4594 37.4992L87.9116 36.0957C87.9116 36.0957 87.9116 36.0957 87.9116 36.1834C87.7509 36.6979 87.0876 39.3553 87.4879 41.9072" stroke="black" stroke-linecap="round" stroke-linejoin="round"/>
<path d="M57.8714 67.6759C58.8758 69.3426 60.428 72.3252 59.7889 73.4655C59.6062 73.8164 59.3323 73.9042 58.7845 73.9919C58.6019 73.9919 58.5106 73.9919 58.328 73.8164C57.5975 72.9392 57.6888 69.6058 57.8714 67.6759Z" stroke="black" stroke-miterlimit="10" stroke-linecap="round" stroke-linejoin="round"/>
<path d="M97.524 52.8196L94.8506 49.5172C94.8506 49.5172 98.4115 44.868 97.2246 44.5171C94.5767 43.7276 91.9289 47.061 91.9289 47.061C91.9289 47.061 82.1592 38.6397 80.0591 38.9029C77.9591 39.1661 84.3505 45.6575 84.3505 45.6575C84.3505 45.6575 77.4113 50.6576 77.1374 52.1489C76.8635 53.6402 81.7026 58.9035 82.4331 59.0789C83.1635 59.2544 83.3461 57.2368 83.3461 57.2368C83.3461 57.2368 85.0154 59.2276 86.5715 60.6626" stroke="black" stroke-miterlimit="10" stroke-linecap="round" stroke-linejoin="round"/>
<path d="M114.298 68.9919C118.681 70.7464 121.329 74.343 121.329 75.0448C121.329 75.0448 121.238 75.0448 121.146 74.957C119.412 74.343 115.851 70.6587 114.298 68.9919Z" stroke="black" stroke-miterlimit="10" stroke-linecap="round" stroke-linejoin="round"/>
<path d="M109.559 134.958L107.542 134.608C106.994 134.52 106.538 134.695 106.081 134.958C105.716 135.222 105.442 135.66 105.351 136.187C103.525 149.608 103.068 154.959 103.342 155.485C103.981 156.275 114.573 158.556 117.129 157.766C118.408 157.415 119.777 149.871 120.69 138.555C120.782 137.59 120.142 136.801 119.138 136.625L117.687 136.373" stroke="black" stroke-miterlimit="10" stroke-linecap="round" stroke-linejoin="round"/>
<path d="M108.729 63.3776C110.555 65.5706 112.381 67.4128 114.299 68.904" stroke="black" stroke-miterlimit="10" stroke-linecap="round" stroke-linejoin="round"/>
<path d="M83.4379 57.2371L80.9726 55.2195" stroke="black" stroke-miterlimit="10" stroke-linecap="round" stroke-linejoin="round"/>
<path d="M108.638 36.447L104.073 39.5173" stroke="black" stroke-miterlimit="10" stroke-linecap="round" stroke-linejoin="round"/>
<path d="M108.273 39.4296L105.351 38.7278" stroke="black" stroke-miterlimit="10" stroke-linecap="round" stroke-linejoin="round"/>
<path d="M95.6449 41.2257C94.7995 42.092 93.9252 42.2026 92.8008 42.2487" stroke="black" stroke-miterlimit="10" stroke-linecap="round" stroke-linejoin="round"/>
<path d="M92.3853 32.324C91.3809 34.6925 90.6505 36.9732 91.3809 38.2013" stroke="black" stroke-miterlimit="10" stroke-linecap="round" stroke-linejoin="round"/>
<path d="M90.468 31.5348L89.6463 34.0787" stroke="black" stroke-miterlimit="10" stroke-linecap="round" stroke-linejoin="round"/>
<path d="M96.0381 31.973L95.399 34.0784" stroke="black" stroke-miterlimit="10" stroke-linecap="round" stroke-linejoin="round"/>
<path d="M89.5552 29.868C90.3769 29.1662 91.29 29.1662 92.4769 29.6048" stroke="black" stroke-miterlimit="10" stroke-linecap="round" stroke-linejoin="round"/>
<path d="M95.0333 29.5171C96.4942 28.9907 97.6812 29.1662 98.5942 30.3943" stroke="black" stroke-miterlimit="10" stroke-linecap="round" stroke-linejoin="round"/>
</svg>
