<svg width="417" height="296" viewBox="0 0 417 296" fill="none" xmlns="http://www.w3.org/2000/svg">
<path d="M239.311 55.099C258.367 50.4022 356.5 38.2471 356.5 38.2471L365.5 37.5C366.515 43.8196 368.805 46.778 375.5 50.9999C380.472 52.7884 383.724 52.824 388.5 52C388.5 52 389.035 55.4741 389.71 60.0001C394.421 91.5563 401.755 141.915 401.082 145.147C400.097 149.876 416.845 253.913 416.845 253.913L77.9349 295.292C73.7452 280.235 63.9924 181.116 58.5 122.5L97 75.5C145.073 69.4836 222.229 59.3094 239.311 55.099Z" fill="#C7EDCB"/>
<path d="M103.462 68.8261C151.501 62.812 216.271 54.2993 233.313 50.0989C244.58 47.3217 270.547 43.49 297.547 39.9034L335.97 35.0102C341.092 34.3813 345.976 33.7898 350.5 33.2471M53.3853 126.945C58.8791 185.565 67.7512 275.252 71.9361 290.292L410.846 248.913C410.846 248.913 394.098 144.876 395.083 140.147C395.753 136.932 388.499 87.0852 383.786 55.5" stroke="black" stroke-miterlimit="10" stroke-linecap="round"/>
<path d="M65.4324 36.7004C67.4028 34.73 97.156 12.8584 100.309 7.73535C100.309 7.73535 105.235 10.4939 108.584 13.8436C112.131 17.3904 130.653 26.0602 130.653 26.0602L136.17 31.3803C136.17 31.3803 94.2003 64.8772 82.1809 80.0494M65.4324 36.7004C63.462 38.8678 65.2353 40.0501 48.0928 58.1778C30.7532 76.3056 23.2656 86.5517 21.6893 89.1133C19.7189 91.6748 16.7633 103.694 16.7633 103.694M65.4324 36.7004C66.2812 43.9641 66.0782 48.1669 64.0531 56.0104M16.7633 103.694L1 119.852C1 119.852 6.51715 139.162 7.89643 142.708C9.07868 146.452 7.10827 144.482 8.6846 151.772C10.458 159.063 12.8225 157.486 12.8225 157.486C12.8225 157.486 38.0437 133.447 40.2111 129.31C42.3786 124.975 50.4573 119.458 52.0336 117.881C53.6099 116.305 70.1614 95.2215 82.1809 80.0494M16.7633 103.694C23.2063 124.332 25.1537 133.882 22.6745 143.694M82.1809 80.0494C82.1809 80.0494 62.0827 97.389 61.0975 101.33C60.1123 105.271 52.2306 110.197 52.2306 110.197" stroke="black" stroke-linecap="round" stroke-linejoin="round"/>
<path d="M108.584 28.4246C109.372 28.4246 120.801 29.6069 121.589 29.4099C122.18 29.2128 131.047 26.0602 131.047 26.0602C131.047 26.0602 112.525 17.3904 108.978 13.8436C105.235 10.4939 100.309 7.73535 100.309 7.73535L98.5352 23.4986C98.5352 23.4986 107.796 28.4246 108.584 28.4246Z" stroke="black" stroke-linejoin="round"/>
<path d="M364.903 56.4044L369.937 45.7361" stroke="black" stroke-linecap="round" stroke-linejoin="round"/>
<path d="M368.658 22.009C365.309 22.9767 362.515 25.0188 361.122 27.805C357.969 33.5192 361.713 41.4008 369.2 45.3417C376.688 49.2825 385.358 47.7061 388.313 41.7949C389.982 38.5689 389.767 34.338 387.915 30.556" stroke="black" stroke-linecap="round" stroke-linejoin="round"/>
<path d="M385.358 32.7313C386.737 29.7757 384.373 25.8349 380.235 23.8645C375.9 21.8941 371.368 22.4852 369.989 25.2438M385.358 32.7313C383.979 35.4899 379.447 36.081 375.112 34.1106C370.974 32.1402 368.61 28.1994 369.989 25.2438M385.358 32.7313C386.046 29.0501 386.741 25.3704 387.43 21.6895M369.989 25.2438C372.011 22.4012 374.047 19.5707 376.117 16.7634" stroke="black" stroke-linecap="round" stroke-linejoin="round"/>
<path d="M390.285 2.78118C396.196 5.73679 398.955 11.648 396.787 15.9829C395.8 17.9575 393.913 19.237 391.611 19.7657C387.107 20.8002 378.392 16.3725 376.413 12.8225C374.996 10.2789 374.732 7.48311 375.901 5.14567C378.068 0.810772 384.571 -0.371475 390.285 2.78118Z" stroke="black" stroke-linecap="round" stroke-linejoin="round"/>
</svg>
