<svg width="479" height="547" viewBox="0 0 479 547" fill="none" xmlns="http://www.w3.org/2000/svg">
<g opacity="0.1">
<path d="M117.805 124.802H175.353C177.663 124.802 179.595 122.87 179.595 120.56V64.7414C179.595 62.4314 177.663 60.5 175.353 60.5H117.805C115.495 60.5 113.563 62.4314 113.563 64.7414V120.345C113.563 122.885 115.509 124.802 117.805 124.802Z" stroke="black"/>
<path d="M116.581 117.974V117.997L116.579 118.02C116.391 120.086 118.087 122 120.391 122H172.982C175.077 122 176.792 120.284 176.792 118.19V67.1121C176.792 65.0176 175.077 63.3018 172.982 63.3018H120.391C118.297 63.3018 116.581 65.0176 116.581 67.1121V117.974Z" stroke="black"/>
<path d="M147.98 68.8351C147.98 67.973 147.334 67.542 146.687 67.542C145.825 67.542 145.394 68.1885 145.394 68.8351C145.394 69.6972 146.04 70.1282 146.687 70.1282C147.334 70.1282 147.98 69.4816 147.98 68.8351Z" fill="black"/>
<path d="M136.772 70.7752C136.341 70.1287 135.479 69.9132 134.833 70.1287C134.186 70.5597 133.97 71.4218 134.186 72.0683C134.617 72.7149 135.479 72.9304 136.126 72.7149C136.988 72.2838 137.203 71.4218 136.772 70.7752Z" fill="black"/>
<path d="M127.074 78.319C126.427 77.8879 125.565 78.1035 125.134 78.75C124.703 79.3966 124.918 80.2586 125.565 80.6897C126.211 81.1207 127.074 80.9052 127.505 80.2586C127.936 79.6121 127.72 78.75 127.074 78.319Z" fill="black"/>
<path d="M122.332 90.1709C121.47 90.1709 121.039 90.8175 121.039 91.464C121.039 92.3261 121.685 92.7571 122.332 92.7571C123.194 92.7571 123.625 92.1106 123.625 91.464C123.841 90.8175 123.194 90.1709 122.332 90.1709Z" fill="black"/>
<path d="M124.702 103.965C124.056 104.612 124.056 105.474 124.702 105.905C125.349 106.552 126.211 106.552 126.642 105.905C127.289 105.258 127.289 104.396 126.642 103.965C126.211 103.319 125.349 103.319 124.702 103.965Z" fill="black"/>
<path d="M133.539 112.802C132.893 113.448 132.893 114.31 133.539 114.741C134.186 115.388 135.048 115.388 135.479 114.741C136.126 114.095 136.126 113.233 135.479 112.802C134.833 112.371 134.186 112.155 133.539 112.802Z" fill="black"/>
<path d="M147.98 117.327C147.98 116.465 147.334 116.034 146.687 116.034C145.825 116.034 145.394 116.681 145.394 117.327C145.394 118.189 146.04 118.62 146.687 118.62C147.334 118.62 147.98 117.974 147.98 117.327Z" fill="black"/>
<path d="M156.386 70.7742C156.817 70.1277 157.679 69.9122 158.326 70.1277C158.973 70.5587 159.188 71.4208 158.973 72.0674C158.541 72.7139 157.679 72.9294 157.033 72.7139C156.386 72.2829 156.171 71.4208 156.386 70.7742Z" fill="black"/>
<path d="M166.085 78.317C166.732 77.886 167.594 78.1015 168.025 78.7481C168.456 79.3946 168.24 80.2567 167.594 80.6877C166.947 81.1188 166.085 80.9032 165.654 80.2567C165.223 79.6101 165.438 78.7481 166.085 78.317Z" fill="black"/>
<path d="M170.827 90.1699C171.689 90.1699 172.12 90.8165 172.12 91.463C172.12 92.3251 171.473 92.7561 170.827 92.7561C169.965 92.7561 169.534 92.1096 169.534 91.463C169.534 90.8165 170.18 90.1699 170.827 90.1699Z" fill="black"/>
<path d="M167.378 106.334C166.664 106.334 166.085 105.755 166.085 105.041C166.085 104.327 166.664 103.748 167.378 103.748C168.092 103.748 168.671 104.327 168.671 105.041C168.671 105.755 168.092 106.334 167.378 106.334Z" fill="black"/>
<path d="M159.619 112.8C160.266 113.447 160.266 114.309 159.619 114.74C158.972 115.387 158.11 115.387 157.679 114.74C157.033 114.093 157.033 113.231 157.679 112.8C158.326 112.154 159.188 112.154 159.619 112.8Z" fill="black"/>
<path d="M147.98 91.6808C147.98 90.8187 147.333 90.3877 146.687 90.3877C145.825 90.3877 145.393 91.0342 145.393 91.6808C145.393 92.5429 146.04 92.9739 146.687 92.9739C147.333 92.9739 147.98 92.3274 147.98 91.6808Z" fill="black"/>
<path d="M146.687 91.6806V74.2236" stroke="black" stroke-miterlimit="10" stroke-linecap="round" stroke-linejoin="round"/>
<path d="M146.687 91.6811L137.419 84.3535" stroke="black" stroke-miterlimit="10" stroke-linecap="round" stroke-linejoin="round"/>
<path d="M504.044 421.207L514.389 341.466C515.683 331.121 507.923 322.069 497.793 322.069H456.626" stroke="black" stroke-miterlimit="10" stroke-linecap="round" stroke-linejoin="round"/>
<path d="M154.662 364.418L160.912 340.819C163.714 329.612 173.629 321.854 185.052 321.854H222.605M162.719 388.017H222.605M281.794 388.017H237.924M293.283 321.854H237.924M378.934 321.854H471.498C477.814 321.854 483.208 325.372 486.062 330.529" stroke="black" stroke-miterlimit="10" stroke-linecap="round" stroke-linejoin="round"/>
<path d="M381.023 388.232H399.824M390.772 432.414H493.052C499.087 432.414 504.044 427.457 504.044 421.422V399.224C504.044 393.189 499.087 388.232 493.052 388.232H488.26" stroke="black" stroke-miterlimit="10" stroke-linecap="round" stroke-linejoin="round"/>
<path d="M161.327 388.232H222.605M167.246 432.414H222.605M384.157 388.232H398.78M281.794 388.232H237.924M279.705 432.414H237.924M391.468 432.414H424.727C436.797 432.414 446.496 422.5 446.496 410.646V410C446.496 401.829 441.952 394.745 435.338 391.021" stroke="black" stroke-miterlimit="10" stroke-linecap="round" stroke-linejoin="round"/>
<path d="M458.135 471.855C460.29 471.855 462.014 469.915 461.583 467.76L456.195 432.415H446.496L455.979 470.346C456.411 471.208 457.273 471.855 458.135 471.855Z" stroke="black" stroke-miterlimit="10" stroke-linecap="round" stroke-linejoin="round"/>
<path d="M168.672 471.855C166.517 471.855 164.792 469.915 165.223 467.76L170.612 432.415H180.311L170.827 470.346C170.612 471.208 169.75 471.855 168.672 471.855Z" stroke="black" stroke-miterlimit="10" stroke-linecap="round" stroke-linejoin="round"/>
<path d="M67.5 189H243.5C247.09 189 250 191.91 250 195.5C250 199.09 247.09 202 243.5 202H67.5C63.9101 202 61 199.09 61 195.5C61 191.91 63.9101 189 67.5 189Z" stroke="black" stroke-miterlimit="10" stroke-linecap="round" stroke-linejoin="round"/>
<path d="M220 165.5V185.5C220 186.904 220 187.607 220.337 188.111C220.483 188.33 220.67 188.517 220.889 188.663C221.393 189 222.096 189 223.5 189C224.904 189 225.607 189 226.111 188.663C226.33 188.517 226.517 188.33 226.663 188.111C227 187.607 227 186.904 227 185.5V165.5C227 164.096 227 163.393 226.663 162.889C226.517 162.67 226.33 162.483 226.111 162.337C225.607 162 224.904 162 223.5 162C222.096 162 221.393 162 220.889 162.337C220.67 162.483 220.483 162.67 220.337 162.889C220 163.393 220 164.096 220 165.5Z" stroke="black" stroke-miterlimit="10" stroke-linecap="round" stroke-linejoin="round"/>
<path d="M213.015 172.513L210.71 184.553C210.518 185.559 210.422 186.062 210.527 186.487C210.641 186.95 210.917 187.358 211.306 187.635C211.662 187.89 212.165 187.986 213.171 188.178C214.177 188.371 214.679 188.467 215.105 188.362C215.568 188.248 215.975 187.971 216.253 187.583C216.507 187.227 216.603 186.724 216.796 185.718L219.1 173.678C219.293 172.672 219.389 172.169 219.284 171.744C219.17 171.281 218.893 170.873 218.505 170.596C218.148 170.341 217.646 170.245 216.64 170.053C215.634 169.86 215.131 169.764 214.706 169.869C214.243 169.983 213.835 170.26 213.558 170.648C213.303 171.005 213.207 171.507 213.015 172.513Z" stroke="black" stroke-miterlimit="10" stroke-linecap="round" stroke-linejoin="round"/>
<path d="M285.624 202.026V202.026C277.69 202.026 273.724 202.026 271.009 199.902C270.37 199.402 269.795 198.826 269.295 198.188C267.171 195.473 267.171 191.506 267.171 183.573V90.7754C267.171 81.3473 267.171 76.6333 270.1 73.7043C273.029 70.7754 277.743 70.7754 287.171 70.7754H432.746C442.174 70.7754 446.888 70.7754 449.817 73.7043C452.746 76.6333 452.746 81.3473 452.746 90.7754V182.026C452.746 191.454 452.746 196.168 449.817 199.097C446.888 202.026 442.174 202.026 432.746 202.026H423.152" stroke="black" stroke-miterlimit="10" stroke-linecap="round" stroke-linejoin="round"/>
<path d="M406.577 81.1191H418.305C427.733 81.1191 432.447 81.1191 435.376 84.0481C438.305 86.977 438.305 91.691 438.305 101.119V107.455C438.305 116.884 438.305 121.598 435.376 124.526C432.447 127.455 427.733 127.455 418.305 127.455H406.577C397.149 127.455 392.435 127.455 389.506 124.526C386.577 121.598 386.577 116.884 386.577 107.455V101.119C386.577 91.6911 386.577 86.977 389.506 84.0481C392.435 81.1191 397.149 81.1191 406.577 81.1191Z" stroke="black" stroke-miterlimit="10" stroke-linecap="round" stroke-linejoin="round"/>
<path d="M298.854 158.491V158.491C296.731 158.491 295.669 158.491 294.783 158.652C290.683 159.396 287.474 162.605 286.73 166.706C286.569 167.591 286.569 168.653 286.569 170.777V178.434C286.569 183.489 290.666 187.586 295.721 187.586V187.586" stroke="black" stroke-miterlimit="10" stroke-linecap="round" stroke-linejoin="round"/>
<path d="M377.956 82.8438H333.987" stroke="black" stroke-miterlimit="10" stroke-linecap="round" stroke-linejoin="round"/>
<path d="M331.4 82.8438H312.002" stroke="black" stroke-miterlimit="10" stroke-linecap="round" stroke-linejoin="round"/>
<path d="M309.2 82.8438H290.018" stroke="black" stroke-miterlimit="10" stroke-linecap="round" stroke-linejoin="round"/>
<path d="M377.956 89.9561H333.987" stroke="black" stroke-miterlimit="10" stroke-linecap="round" stroke-linejoin="round"/>
<path d="M331.4 89.9561H312.002" stroke="black" stroke-miterlimit="10" stroke-linecap="round" stroke-linejoin="round"/>
<path d="M309.2 89.9561H290.018" stroke="black" stroke-miterlimit="10" stroke-linecap="round" stroke-linejoin="round"/>
<path d="M377.956 96.8525H333.987" stroke="black" stroke-miterlimit="10" stroke-linecap="round" stroke-linejoin="round"/>
<path d="M331.4 96.8525H312.002" stroke="black" stroke-miterlimit="10" stroke-linecap="round" stroke-linejoin="round"/>
<path d="M309.2 96.8525H290.018" stroke="black" stroke-miterlimit="10" stroke-linecap="round" stroke-linejoin="round"/>
<path d="M377.956 111.292H333.987" stroke="black" stroke-miterlimit="10" stroke-linecap="round" stroke-linejoin="round"/>
<path d="M331.4 111.292H312.002" stroke="black" stroke-miterlimit="10" stroke-linecap="round" stroke-linejoin="round"/>
<path d="M309.2 111.292H290.018" stroke="black" stroke-miterlimit="10" stroke-linecap="round" stroke-linejoin="round"/>
<path d="M377.956 118.189H333.987" stroke="black" stroke-miterlimit="10" stroke-linecap="round" stroke-linejoin="round"/>
<path d="M331.4 118.189H312.002" stroke="black" stroke-miterlimit="10" stroke-linecap="round" stroke-linejoin="round"/>
<path d="M309.2 118.189H290.018" stroke="black" stroke-miterlimit="10" stroke-linecap="round" stroke-linejoin="round"/>
<path d="M377.889 125.456L353.517 125.456" stroke="black" stroke-miterlimit="10" stroke-linecap="round" stroke-linejoin="round"/>
<path d="M326.36 125.456H311.737" stroke="black" stroke-miterlimit="10" stroke-linecap="round" stroke-linejoin="round"/>
<path d="M309.2 125.302H290.018" stroke="black" stroke-miterlimit="10" stroke-linecap="round" stroke-linejoin="round"/>
<path d="M438.305 158.922H412.01" stroke="black" stroke-miterlimit="10" stroke-linecap="round" stroke-linejoin="round"/>
<path d="M368.903 158.922H349.29" stroke="black" stroke-miterlimit="10" stroke-linecap="round" stroke-linejoin="round"/>
<path d="M408.777 158.922H389.163" stroke="black" stroke-miterlimit="10" stroke-linecap="round" stroke-linejoin="round"/>
<path d="M386.577 158.922H371.921" stroke="black" stroke-miterlimit="10" stroke-linecap="round" stroke-linejoin="round"/>
<path d="M438.305 165.818H393.905" stroke="black" stroke-miterlimit="10" stroke-linecap="round" stroke-linejoin="round"/>
<path d="M391.103 165.818H371.49" stroke="black" stroke-miterlimit="10" stroke-linecap="round" stroke-linejoin="round"/>
<path d="M368.903 165.818H349.29" stroke="black" stroke-miterlimit="10" stroke-linecap="round" stroke-linejoin="round"/>
<path d="M438.305 139.741H412.01" stroke="black" stroke-miterlimit="10" stroke-linecap="round" stroke-linejoin="round"/>
<path d="M408.777 139.741H389.163" stroke="black" stroke-miterlimit="10" stroke-linecap="round" stroke-linejoin="round"/>
<path d="M386.577 139.741H371.921" stroke="black" stroke-miterlimit="10" stroke-linecap="round" stroke-linejoin="round"/>
<path d="M438.305 146.637H393.905" stroke="black" stroke-miterlimit="10" stroke-linecap="round" stroke-linejoin="round"/>
<path d="M391.103 146.637H352.522" stroke="black" stroke-miterlimit="10" stroke-linecap="round" stroke-linejoin="round"/>
<path d="M438.305 172.931H403.389" stroke="black" stroke-miterlimit="10" stroke-linecap="round" stroke-linejoin="round"/>
<path d="M399.509 172.931H373.645" stroke="black" stroke-miterlimit="10" stroke-linecap="round" stroke-linejoin="round"/>
<path d="M438.305 180.259H393.905" stroke="black" stroke-miterlimit="10" stroke-linecap="round" stroke-linejoin="round"/>
</g>
</svg>
