<svg width="360" height="593" viewBox="0 0 360 593" fill="none" xmlns="http://www.w3.org/2000/svg">
<g opacity="0.1">
<path d="M39.0165 112.882H92.2285C94.344 112.882 96.113 111.113 96.113 108.998V57.3842C96.113 55.269 94.344 53.5 92.2285 53.5H39.0165C36.901 53.5 35.132 55.269 35.132 57.3842V108.798C35.132 111.127 36.9154 112.882 39.0165 112.882Z" stroke="black"/>
<path d="M37.9222 106.606V106.629L37.9201 106.652C37.7485 108.539 39.2986 110.291 41.4081 110.291H90.0363C91.9524 110.291 93.5222 108.722 93.5222 106.806V59.5764C93.5222 57.6605 91.9524 56.0908 90.0363 56.0908H41.4081C39.492 56.0908 37.9222 57.6605 37.9222 59.5764V106.606Z" stroke="black"/>
<path d="M66.9181 61.1703C66.9181 60.3732 66.3203 59.9746 65.7224 59.9746C64.9252 59.9746 64.5266 60.5724 64.5266 61.1703C64.5266 61.9674 65.1245 62.366 65.7224 62.366C66.3203 62.366 66.9181 61.7681 66.9181 61.1703Z" fill="black"/>
<path d="M56.5547 62.9636C56.1561 62.3657 55.359 62.1665 54.7611 62.3657C54.1632 62.7643 53.9639 63.5614 54.1632 64.1593C54.5618 64.7571 55.3589 64.9564 55.9568 64.7571C56.754 64.3585 56.9533 63.5614 56.5547 62.9636Z" fill="black"/>
<path d="M47.5866 69.9388C46.9887 69.5402 46.1915 69.7395 45.7929 70.3374C45.3943 70.9352 45.5936 71.7323 46.1915 72.1309C46.7894 72.5294 47.5865 72.3302 47.9851 71.7323C48.3837 71.1345 48.1845 70.3374 47.5866 69.9388Z" fill="black"/>
<path d="M43.202 80.8984C42.4048 80.8984 42.0062 81.4963 42.0062 82.0941C42.0062 82.8912 42.6041 83.2898 43.202 83.2898C43.9992 83.2898 44.3978 82.692 44.3978 82.0941C44.5971 81.4963 43.9992 80.8984 43.202 80.8984Z" fill="black"/>
<path d="M45.3943 93.6535C44.7964 94.2513 44.7964 95.0484 45.3943 95.447C45.9922 96.0448 46.7893 96.0448 47.1879 95.447C47.7858 94.8491 47.7858 94.052 47.1879 93.6535C46.7893 93.0556 45.9922 93.0556 45.3943 93.6535Z" fill="black"/>
<path d="M53.5653 101.824C52.9674 102.421 52.9674 103.219 53.5653 103.617C54.1632 104.215 54.9604 104.215 55.359 103.617C55.9568 103.019 55.9568 102.222 55.359 101.824C54.7611 101.425 54.1632 101.226 53.5653 101.824Z" fill="black"/>
<path d="M66.9181 106.008C66.9181 105.211 66.3203 104.812 65.7224 104.812C64.9252 104.812 64.5266 105.41 64.5266 106.008C64.5266 106.805 65.1245 107.204 65.7224 107.204C66.3203 107.204 66.9181 106.606 66.9181 106.008Z" fill="black"/>
<path d="M74.6907 62.9636C75.0893 62.3657 75.8865 62.1665 76.4844 62.3657C77.0823 62.7643 77.2815 63.5614 77.0822 64.1593C76.6837 64.7571 75.8865 64.9564 75.2886 64.7571C74.6907 64.3585 74.4914 63.5614 74.6907 62.9636Z" fill="black"/>
<path d="M83.6589 69.9378C84.2568 69.5393 85.054 69.7385 85.4525 70.3364C85.8511 70.9342 85.6518 71.7313 85.0539 72.1299C84.456 72.5285 83.6589 72.3292 83.2603 71.7313C82.8617 71.1335 83.061 70.3364 83.6589 69.9378Z" fill="black"/>
<path d="M88.0435 80.8984C88.8407 80.8984 89.2393 81.4963 89.2393 82.0941C89.2393 82.8912 88.6414 83.2898 88.0435 83.2898C87.2463 83.2898 86.8477 82.692 86.8477 82.0941C86.8477 81.4963 87.4456 80.8984 88.0435 80.8984Z" fill="black"/>
<path d="M84.8546 95.8445C84.1942 95.8445 83.6589 95.3092 83.6589 94.6488C83.6589 93.9884 84.1942 93.4531 84.8546 93.4531C85.515 93.4531 86.0504 93.9884 86.0504 94.6488C86.0504 95.3092 85.515 95.8445 84.8546 95.8445Z" fill="black"/>
<path d="M77.6802 101.823C78.2781 102.421 78.2781 103.218 77.6802 103.617C77.0824 104.215 76.2851 104.215 75.8865 103.617C75.2886 103.019 75.2886 102.222 75.8865 101.823C76.4844 101.226 77.2817 101.226 77.6802 101.823Z" fill="black"/>
<path d="M66.9178 82.2943C66.9178 81.4972 66.32 81.0986 65.7221 81.0986C64.9249 81.0986 64.5263 81.6965 64.5263 82.2943C64.5263 83.0914 65.1242 83.49 65.7221 83.49C66.32 83.49 66.9178 82.8922 66.9178 82.2943Z" fill="black"/>
<path d="M65.7222 82.294V66.1523" stroke="black" stroke-miterlimit="10" stroke-linecap="round" stroke-linejoin="round"/>
<path d="M65.7222 82.2941L57.1524 75.5186" stroke="black" stroke-miterlimit="10" stroke-linecap="round" stroke-linejoin="round"/>
<path d="M396.155 386.993L405.721 313.259C406.917 303.694 399.742 295.324 390.375 295.324H352.31" stroke="black" stroke-miterlimit="10" stroke-linecap="round" stroke-linejoin="round"/>
<path d="M73.0963 334.483L78.8759 312.662C81.4667 302.299 90.6343 295.125 101.197 295.125H135.92M80.5467 356.304H135.92M190.65 356.304H150.086M201.274 295.125H150.086M280.471 295.125H366.061C371.901 295.125 376.889 298.379 379.528 303.147" stroke="black" stroke-miterlimit="10" stroke-linecap="round" stroke-linejoin="round"/>
<path d="M282.403 356.503H299.788M291.417 397.355H385.991C391.571 397.355 396.155 392.772 396.155 387.192V366.666C396.155 361.086 391.571 356.503 385.991 356.503H381.56" stroke="black" stroke-miterlimit="10" stroke-linecap="round" stroke-linejoin="round"/>
<path d="M79.2591 356.503H135.92M84.732 397.355H135.92M285.3 356.503H298.822M190.65 356.503H150.086M188.719 397.355H150.086M292.061 397.355H322.814C333.975 397.355 342.943 388.188 342.943 377.228V376.63C342.943 369.075 338.741 362.525 332.626 359.081" stroke="black" stroke-miterlimit="10" stroke-linecap="round" stroke-linejoin="round"/>
<path d="M353.705 433.825C355.698 433.825 357.292 432.031 356.894 430.038L351.911 397.356H342.943L351.712 432.43C352.111 433.227 352.908 433.825 353.705 433.825Z" stroke="black" stroke-miterlimit="10" stroke-linecap="round" stroke-linejoin="round"/>
<path d="M86.0507 433.825C84.0577 433.825 82.4633 432.031 82.8619 430.038L87.8443 397.356H96.8126L88.0436 432.43C87.8443 433.227 87.0471 433.825 86.0507 433.825Z" stroke="black" stroke-miterlimit="10" stroke-linecap="round" stroke-linejoin="round"/>
<path d="M-8 172H155C158.314 172 161 174.686 161 178C161 181.314 158.314 184 155 184H-8C-11.3137 184 -14 181.314 -14 178C-14 174.686 -11.3137 172 -8 172Z" stroke="black" stroke-miterlimit="10" stroke-linecap="round" stroke-linejoin="round"/>
<path d="M133 151V169C133 169.932 133 170.398 133.152 170.765C133.355 171.255 133.745 171.645 134.235 171.848C134.602 172 135.068 172 136 172C136.932 172 137.398 172 137.765 171.848C138.255 171.645 138.645 171.255 138.848 170.765C139 170.398 139 169.932 139 169V151C139 150.068 139 149.602 138.848 149.235C138.645 148.745 138.255 148.355 137.765 148.152C137.398 148 136.932 148 136 148C135.068 148 134.602 148 134.235 148.152C133.745 148.355 133.355 148.745 133.152 149.235C133 149.602 133 150.068 133 151Z" stroke="black" stroke-miterlimit="10" stroke-linecap="round" stroke-linejoin="round"/>
<path d="M127.053 157.036L124.922 168.169C124.771 168.96 124.695 169.355 124.747 169.694C124.837 170.292 125.193 170.816 125.715 171.121C126.011 171.294 126.407 171.37 127.197 171.521C127.988 171.672 128.383 171.748 128.722 171.697C129.32 171.606 129.845 171.25 130.149 170.728C130.322 170.432 130.398 170.037 130.549 169.246L132.68 158.113C132.831 157.322 132.907 156.927 132.856 156.588C132.765 155.99 132.409 155.466 131.887 155.161C131.591 154.988 131.196 154.912 130.405 154.761C129.614 154.61 129.219 154.534 128.88 154.585C128.282 154.676 127.758 155.032 127.453 155.554C127.28 155.85 127.204 156.246 127.053 157.036Z" stroke="black" stroke-miterlimit="10" stroke-linecap="round" stroke-linejoin="round"/>
<path d="M194.192 184.325V184.325C187.585 184.325 184.282 184.325 181.862 182.826C180.549 182.012 179.442 180.905 178.628 179.592C177.129 177.172 177.129 173.869 177.129 167.263V82.9639C177.129 73.5358 177.129 68.8217 180.058 65.8928C182.987 62.9639 187.701 62.9639 197.129 62.9639H328.723C338.151 62.9639 342.865 62.9639 345.794 65.8928C348.723 68.8217 348.723 73.5358 348.723 82.9639V164.325C348.723 173.753 348.723 178.467 345.794 181.396C342.865 184.325 338.151 184.325 328.723 184.325H321.358" stroke="black" stroke-miterlimit="10" stroke-linecap="round" stroke-linejoin="round"/>
<path d="M307.539 72.5293H315.37C324.798 72.5293 329.512 72.5293 332.441 75.4582C335.37 78.3872 335.37 83.1012 335.37 92.5293V95.3745C335.37 104.803 335.37 109.517 332.441 112.446C329.512 115.374 324.798 115.374 315.37 115.374H307.539C298.111 115.374 293.397 115.374 290.468 112.446C287.539 109.517 287.539 104.803 287.539 95.3745V92.5293C287.539 83.1012 287.539 78.3872 290.468 75.4582C293.397 72.5293 298.111 72.5293 307.539 72.5293Z" stroke="black" stroke-miterlimit="10" stroke-linecap="round" stroke-linejoin="round"/>
<path d="M206.425 144.07V144.07C205.162 144.07 204.531 144.07 203.999 144.127C199.32 144.629 195.624 148.325 195.122 153.004C195.065 153.536 195.065 154.167 195.065 155.43V162.511C195.065 167.184 198.854 170.973 203.528 170.973V170.973" stroke="black" stroke-miterlimit="10" stroke-linecap="round" stroke-linejoin="round"/>
<path d="M279.567 74.124H238.911" stroke="black" stroke-miterlimit="10" stroke-linecap="round" stroke-linejoin="round"/>
<path d="M236.519 74.124H218.582" stroke="black" stroke-miterlimit="10" stroke-linecap="round" stroke-linejoin="round"/>
<path d="M215.992 74.124H198.254" stroke="black" stroke-miterlimit="10" stroke-linecap="round" stroke-linejoin="round"/>
<path d="M279.567 80.6992H238.911" stroke="black" stroke-miterlimit="10" stroke-linecap="round" stroke-linejoin="round"/>
<path d="M236.519 80.6992H218.582" stroke="black" stroke-miterlimit="10" stroke-linecap="round" stroke-linejoin="round"/>
<path d="M215.992 80.6992H198.254" stroke="black" stroke-miterlimit="10" stroke-linecap="round" stroke-linejoin="round"/>
<path d="M279.567 87.0771H238.911" stroke="black" stroke-miterlimit="10" stroke-linecap="round" stroke-linejoin="round"/>
<path d="M236.519 87.0771H218.582" stroke="black" stroke-miterlimit="10" stroke-linecap="round" stroke-linejoin="round"/>
<path d="M215.992 87.0771H198.254" stroke="black" stroke-miterlimit="10" stroke-linecap="round" stroke-linejoin="round"/>
<path d="M279.567 100.428H238.911" stroke="black" stroke-miterlimit="10" stroke-linecap="round" stroke-linejoin="round"/>
<path d="M236.519 100.428H218.582" stroke="black" stroke-miterlimit="10" stroke-linecap="round" stroke-linejoin="round"/>
<path d="M215.992 100.428H198.254" stroke="black" stroke-miterlimit="10" stroke-linecap="round" stroke-linejoin="round"/>
<path d="M279.567 106.806H238.911" stroke="black" stroke-miterlimit="10" stroke-linecap="round" stroke-linejoin="round"/>
<path d="M236.519 106.806H218.582" stroke="black" stroke-miterlimit="10" stroke-linecap="round" stroke-linejoin="round"/>
<path d="M215.992 106.806H198.254" stroke="black" stroke-miterlimit="10" stroke-linecap="round" stroke-linejoin="round"/>
<path d="M279.506 113.524L256.97 113.524" stroke="black" stroke-miterlimit="10" stroke-linecap="round" stroke-linejoin="round"/>
<path d="M231.859 113.524H218.337" stroke="black" stroke-miterlimit="10" stroke-linecap="round" stroke-linejoin="round"/>
<path d="M215.992 113.382H198.254" stroke="black" stroke-miterlimit="10" stroke-linecap="round" stroke-linejoin="round"/>
<path d="M335.37 144.47H311.056" stroke="black" stroke-miterlimit="10" stroke-linecap="round" stroke-linejoin="round"/>
<path d="M271.197 144.47H253.061" stroke="black" stroke-miterlimit="10" stroke-linecap="round" stroke-linejoin="round"/>
<path d="M308.066 144.47H289.93" stroke="black" stroke-miterlimit="10" stroke-linecap="round" stroke-linejoin="round"/>
<path d="M287.539 144.47H273.987" stroke="black" stroke-miterlimit="10" stroke-linecap="round" stroke-linejoin="round"/>
<path d="M335.37 150.846H294.315" stroke="black" stroke-miterlimit="10" stroke-linecap="round" stroke-linejoin="round"/>
<path d="M291.724 150.846H273.588" stroke="black" stroke-miterlimit="10" stroke-linecap="round" stroke-linejoin="round"/>
<path d="M271.197 150.846H253.061" stroke="black" stroke-miterlimit="10" stroke-linecap="round" stroke-linejoin="round"/>
<path d="M335.37 126.733H311.056" stroke="black" stroke-miterlimit="10" stroke-linecap="round" stroke-linejoin="round"/>
<path d="M308.066 126.733H289.93" stroke="black" stroke-miterlimit="10" stroke-linecap="round" stroke-linejoin="round"/>
<path d="M287.539 126.733H273.987" stroke="black" stroke-miterlimit="10" stroke-linecap="round" stroke-linejoin="round"/>
<path d="M335.37 133.11H294.315" stroke="black" stroke-miterlimit="10" stroke-linecap="round" stroke-linejoin="round"/>
<path d="M291.724 133.11H256.05" stroke="black" stroke-miterlimit="10" stroke-linecap="round" stroke-linejoin="round"/>
<path d="M335.37 157.423H303.084" stroke="black" stroke-miterlimit="10" stroke-linecap="round" stroke-linejoin="round"/>
<path d="M299.496 157.423H275.581" stroke="black" stroke-miterlimit="10" stroke-linecap="round" stroke-linejoin="round"/>
<path d="M335.37 164.198H294.315" stroke="black" stroke-miterlimit="10" stroke-linecap="round" stroke-linejoin="round"/>
</g>
</svg>
