<svg width="990" height="649" viewBox="0 0 990 649" fill="none" xmlns="http://www.w3.org/2000/svg">
<g opacity="0.1">
<path d="M99.4997 93.2782H182.143C185.581 93.2782 188.452 90.407 188.452 86.9692V6.80898C188.452 3.37117 185.581 0.5 182.143 0.5H99.4997C96.0615 0.5 93.1902 3.37116 93.1902 6.80898V86.6597C93.1902 90.4216 96.0759 93.2782 99.4997 93.2782Z" stroke="black"/>
<path d="M97.5235 83.2552V83.2778L97.5214 83.3004C97.2396 86.4003 99.7817 89.2546 103.214 89.2546H178.738C181.866 89.2546 184.428 86.693 184.428 83.5647V10.2134C184.428 7.08511 181.866 4.52344 178.738 4.52344H103.214C100.085 4.52344 97.5235 7.08511 97.5235 10.2134V83.2552Z" stroke="black"/>
<path d="M142.833 12.689C142.833 11.451 141.905 10.832 140.976 10.832C139.738 10.832 139.119 11.7605 139.119 12.689C139.119 13.927 140.048 14.546 140.976 14.546C141.905 14.546 142.833 13.6175 142.833 12.689Z" fill="black"/>
<path d="M126.738 15.4742C126.119 14.5458 124.881 14.2363 123.953 14.5457C123.024 15.1647 122.714 16.4027 123.024 17.3312C123.643 18.2597 124.881 18.5692 125.81 18.2597C127.048 17.6407 127.357 16.4027 126.738 15.4742Z" fill="black"/>
<path d="M112.81 26.3074C111.881 25.6884 110.643 25.9979 110.024 26.9264C109.405 27.8549 109.715 29.0929 110.643 29.7119C111.572 30.3309 112.81 30.0214 113.429 29.0929C114.048 28.1644 113.738 26.9264 112.81 26.3074Z" fill="black"/>
<path d="M106 43.3291C104.762 43.3291 104.143 44.2576 104.143 45.1861C104.143 46.4241 105.072 47.0431 106 47.0431C107.238 47.0431 107.857 46.1146 107.857 45.1861C108.167 44.2576 107.238 43.3291 106 43.3291Z" fill="black"/>
<path d="M109.405 63.1378C108.477 64.0663 108.477 65.3043 109.405 65.9233C110.334 66.8518 111.572 66.8518 112.191 65.9233C113.119 64.9948 113.119 63.7568 112.191 63.1378C111.572 62.2093 110.334 62.2093 109.405 63.1378Z" fill="black"/>
<path d="M122.096 75.8272C121.167 76.7557 121.167 77.9937 122.096 78.6127C123.024 79.5412 124.262 79.5412 124.881 78.6127C125.81 77.6842 125.81 76.4462 124.881 75.8272C123.953 75.2082 123.024 74.8987 122.096 75.8272Z" fill="black"/>
<path d="M142.833 82.3267C142.833 81.0887 141.905 80.4697 140.976 80.4697C139.738 80.4697 139.119 81.3982 139.119 82.3267C139.119 83.5647 140.048 84.1837 140.976 84.1837C141.905 84.1837 142.833 83.2552 142.833 82.3267Z" fill="black"/>
<path d="M154.905 15.4742C155.524 14.5458 156.762 14.2363 157.691 14.5457C158.619 15.1647 158.929 16.4027 158.619 17.3312C158 18.2597 156.762 18.5692 155.834 18.2597C154.905 17.6407 154.596 16.4027 154.905 15.4742Z" fill="black"/>
<path d="M168.833 26.3064C169.762 25.6874 171 25.9969 171.619 26.9254C172.238 27.8539 171.928 29.0919 171 29.7109C170.071 30.3299 168.833 30.0204 168.214 29.0919C167.595 28.1634 167.905 26.9254 168.833 26.3064Z" fill="black"/>
<path d="M175.643 43.3291C176.881 43.3291 177.5 44.2576 177.5 45.1861C177.5 46.4241 176.571 47.0431 175.643 47.0431C174.405 47.0431 173.786 46.1146 173.786 45.1861C173.786 44.2576 174.714 43.3291 175.643 43.3291Z" fill="black"/>
<path d="M170.69 66.5411C169.665 66.5411 168.833 65.7097 168.833 64.6841C168.833 63.6586 169.665 62.8271 170.69 62.8271C171.716 62.8271 172.547 63.6586 172.547 64.6841C172.547 65.7097 171.716 66.5411 170.69 66.5411Z" fill="black"/>
<path d="M159.548 75.8263C160.476 76.7548 160.476 77.9927 159.548 78.6117C158.619 79.5402 157.381 79.5402 156.762 78.6117C155.833 77.6832 155.833 76.4453 156.762 75.8263C157.69 74.8978 158.929 74.8978 159.548 75.8263Z" fill="black"/>
<path d="M142.833 45.4966C142.833 44.2586 141.905 43.6396 140.976 43.6396C139.738 43.6396 139.119 44.5681 139.119 45.4966C139.119 46.7346 140.047 47.3536 140.976 47.3536C141.905 47.3536 142.833 46.4251 142.833 45.4966Z" fill="black"/>
<path d="M140.976 45.4962V20.4268" stroke="black" stroke-miterlimit="10" stroke-linecap="round" stroke-linejoin="round"/>
<path d="M140.976 45.4966L127.666 34.9736" stroke="black" stroke-miterlimit="10" stroke-linecap="round" stroke-linejoin="round"/>
<path d="M706.785 76.7559H988.452V591.453H706.785V76.7559Z" stroke="black" stroke-miterlimit="10" stroke-linecap="round" stroke-linejoin="round"/>
<path d="M718.857 85.7314H976.071V591.453H718.857V85.7314Z" stroke="black" stroke-miterlimit="10" stroke-linecap="round" stroke-linejoin="round"/>
<path d="M762 335.188C762 329.265 757.263 324.236 751.048 324.236C745.124 324.236 740.095 328.973 740.095 335.188C740.095 341.11 744.833 346.139 751.048 346.139C757.263 346.139 762 341.11 762 335.188Z" stroke="black"/>
<path d="M880.428 173.01H813.881" stroke="black" stroke-miterlimit="10" stroke-linecap="round" stroke-linejoin="round"/>
<path d="M823.166 185.699H871.143" stroke="black" stroke-miterlimit="10" stroke-linecap="round" stroke-linejoin="round"/>
<path d="M901.476 161.249V197.46H792.833V161.249H901.476Z" stroke="black" stroke-miterlimit="10" stroke-linecap="round" stroke-linejoin="round"/>
<path d="M654.167 518.72L669.024 404.206C670.881 389.35 659.738 376.351 645.191 376.351H586.072" stroke="black" stroke-miterlimit="10" stroke-linecap="round" stroke-linejoin="round"/>
<path d="M152.429 437.167L161.405 403.277C165.429 387.183 179.667 376.041 196.072 376.041H250M164 471.057H250M335 471.057H272M351.5 376.041H272M474.5 376.041H607.429C616.499 376.041 624.246 381.094 628.343 388.5" stroke="black" stroke-miterlimit="10" stroke-linecap="round" stroke-linejoin="round"/>
<path d="M477.5 471.366H504.5M491.5 534.813H638.381C647.048 534.813 654.167 527.695 654.167 519.029V487.151C654.167 478.485 647.048 471.366 638.381 471.366H631.5" stroke="black" stroke-miterlimit="10" stroke-linecap="round" stroke-linejoin="round"/>
<path d="M162 471.366H250M170.5 534.813H250M482 471.366H503M335 471.366H272M332 534.813H272M492.5 534.813H540.262C557.595 534.813 571.524 520.577 571.524 503.554V502.626C571.524 490.892 564.998 480.718 555.5 475.371" stroke="black" stroke-miterlimit="10" stroke-linecap="round" stroke-linejoin="round"/>
<path d="M588.238 591.453C591.333 591.453 593.81 588.667 593.191 585.572L585.453 534.814H571.524L585.143 589.286C585.762 590.524 587 591.453 588.238 591.453Z" stroke="black" stroke-miterlimit="10" stroke-linecap="round" stroke-linejoin="round"/>
<path d="M172.548 591.453C169.453 591.453 166.976 588.667 167.596 585.572L175.334 534.814H189.262L175.643 589.286C175.334 590.524 174.096 591.453 172.548 591.453Z" stroke="black" stroke-miterlimit="10" stroke-linecap="round" stroke-linejoin="round"/>
<path d="M638.072 591.453C641.167 591.453 643.643 588.667 643.024 585.572L635.286 534.814H621.357L634.977 589.286C635.596 590.524 636.834 591.453 638.072 591.453Z" stroke="black" stroke-miterlimit="10" stroke-linecap="round" stroke-linejoin="round"/>
<path d="M25.8328 185.08H280.263C285.391 185.08 289.548 189.237 289.548 194.365C289.548 199.493 285.391 203.65 280.263 203.65H25.8328C20.7049 203.65 16.5479 199.493 16.5479 194.365C16.5479 189.237 20.7049 185.08 25.8328 185.08Z" stroke="black" stroke-miterlimit="10" stroke-linecap="round" stroke-linejoin="round"/>
<path d="M250 185H251C252.886 185 253.828 185 254.414 184.414C255 183.828 255 182.886 255 181V151C255 149.114 255 148.172 254.414 147.586C253.828 147 252.886 147 251 147H250C248.114 147 247.172 147 246.586 147.586C246 148.172 246 149.114 246 151V181C246 182.886 246 183.828 246.586 184.414C247.172 185 248.114 185 250 185Z" stroke="black" stroke-miterlimit="10" stroke-linecap="round" stroke-linejoin="round"/>
<path d="M236.011 183.989L236.893 184.157C238.745 184.512 239.671 184.689 240.357 184.224C241.042 183.758 241.219 182.832 241.574 180.98L245.052 162.808C245.406 160.956 245.583 160.03 245.118 159.345C244.653 158.659 243.727 158.482 241.875 158.127L240.993 157.959C239.141 157.604 238.215 157.427 237.529 157.892C236.844 158.357 236.667 159.283 236.312 161.135L232.834 179.308C232.48 181.16 232.303 182.086 232.768 182.771C233.233 183.457 234.159 183.634 236.011 183.989Z" stroke="black" stroke-miterlimit="10" stroke-linecap="round" stroke-linejoin="round"/>
<path d="M340.5 203.959H334C324.572 203.959 319.858 203.959 316.929 201.031C314 198.102 314 193.388 314 183.959V35.4746C314 26.0465 314 21.3325 316.929 18.4035C319.858 15.4746 324.572 15.4746 334 15.4746H560.5C569.928 15.4746 574.642 15.4746 577.571 18.4035C580.5 21.3325 580.5 26.0465 580.5 35.4746V183.959C580.5 193.388 580.5 198.102 577.571 201.031C574.642 203.959 569.928 203.959 560.5 203.959H538" stroke="black" stroke-miterlimit="10" stroke-linecap="round" stroke-linejoin="round"/>
<path d="M505.476 30.3301H539.762C549.19 30.3301 553.904 30.3301 556.833 33.259C559.762 36.1879 559.762 40.902 559.762 50.3301V76.8724C559.762 86.3004 559.762 91.0145 556.833 93.9434C553.904 96.8724 549.19 96.8724 539.762 96.8724H505.476C496.048 96.8724 491.334 96.8724 488.405 93.9434C485.476 91.0145 485.476 86.3004 485.476 76.8723V50.3301C485.476 40.902 485.476 36.1879 488.405 33.259C491.334 30.3301 496.048 30.3301 505.476 30.3301Z" stroke="black" stroke-miterlimit="10" stroke-linecap="round" stroke-linejoin="round"/>
<path d="M359.5 141.44V141.44C352.341 141.44 348.762 141.44 346.208 143.189C345.187 143.888 344.304 144.77 343.605 145.792C341.857 148.346 341.857 151.925 341.857 159.083V170.08C341.857 173.002 341.857 174.463 342.16 175.666C343.059 179.234 345.845 182.021 349.414 182.92C350.617 183.223 352.078 183.223 355 183.223V183.223" stroke="black" stroke-miterlimit="10" stroke-linecap="round" stroke-linejoin="round"/>
<path d="M473.095 32.8066H409.952" stroke="black" stroke-miterlimit="10" stroke-linecap="round" stroke-linejoin="round"/>
<path d="M406.238 32.8066H378.381" stroke="black" stroke-miterlimit="10" stroke-linecap="round" stroke-linejoin="round"/>
<path d="M374.357 32.8066H346.809" stroke="black" stroke-miterlimit="10" stroke-linecap="round" stroke-linejoin="round"/>
<path d="M473.095 43.0195H409.952" stroke="black" stroke-miterlimit="10" stroke-linecap="round" stroke-linejoin="round"/>
<path d="M406.238 43.0195H378.381" stroke="black" stroke-miterlimit="10" stroke-linecap="round" stroke-linejoin="round"/>
<path d="M374.357 43.0195H346.809" stroke="black" stroke-miterlimit="10" stroke-linecap="round" stroke-linejoin="round"/>
<path d="M473.095 52.9238H409.952" stroke="black" stroke-miterlimit="10" stroke-linecap="round" stroke-linejoin="round"/>
<path d="M406.238 52.9238H378.381" stroke="black" stroke-miterlimit="10" stroke-linecap="round" stroke-linejoin="round"/>
<path d="M374.357 52.9238H346.809" stroke="black" stroke-miterlimit="10" stroke-linecap="round" stroke-linejoin="round"/>
<path d="M473.095 73.6602H409.952" stroke="black" stroke-miterlimit="10" stroke-linecap="round" stroke-linejoin="round"/>
<path d="M406.238 73.6602H378.381" stroke="black" stroke-miterlimit="10" stroke-linecap="round" stroke-linejoin="round"/>
<path d="M374.357 73.6602H346.809" stroke="black" stroke-miterlimit="10" stroke-linecap="round" stroke-linejoin="round"/>
<path d="M473.095 83.5645H409.952" stroke="black" stroke-miterlimit="10" stroke-linecap="round" stroke-linejoin="round"/>
<path d="M406.238 83.5645H378.381" stroke="black" stroke-miterlimit="10" stroke-linecap="round" stroke-linejoin="round"/>
<path d="M374.357 83.5645H346.809" stroke="black" stroke-miterlimit="10" stroke-linecap="round" stroke-linejoin="round"/>
<path d="M473 94L438 94" stroke="black" stroke-miterlimit="10" stroke-linecap="round" stroke-linejoin="round"/>
<path d="M399 94H378" stroke="black" stroke-miterlimit="10" stroke-linecap="round" stroke-linejoin="round"/>
<path d="M374.357 93.7783H346.809" stroke="black" stroke-miterlimit="10" stroke-linecap="round" stroke-linejoin="round"/>
<path d="M559.762 142.06H522" stroke="black" stroke-miterlimit="10" stroke-linecap="round" stroke-linejoin="round"/>
<path d="M460.095 142.06H431.929" stroke="black" stroke-miterlimit="10" stroke-linecap="round" stroke-linejoin="round"/>
<path d="M517.357 142.06H489.19" stroke="black" stroke-miterlimit="10" stroke-linecap="round" stroke-linejoin="round"/>
<path d="M485.476 142.06H464.428" stroke="black" stroke-miterlimit="10" stroke-linecap="round" stroke-linejoin="round"/>
<path d="M559.762 151.964H496" stroke="black" stroke-miterlimit="10" stroke-linecap="round" stroke-linejoin="round"/>
<path d="M491.976 151.964H463.809" stroke="black" stroke-miterlimit="10" stroke-linecap="round" stroke-linejoin="round"/>
<path d="M460.095 151.964H431.929" stroke="black" stroke-miterlimit="10" stroke-linecap="round" stroke-linejoin="round"/>
<path d="M559.762 114.515H522" stroke="black" stroke-miterlimit="10" stroke-linecap="round" stroke-linejoin="round"/>
<path d="M517.357 114.515H489.19" stroke="black" stroke-miterlimit="10" stroke-linecap="round" stroke-linejoin="round"/>
<path d="M485.476 114.515H464.428" stroke="black" stroke-miterlimit="10" stroke-linecap="round" stroke-linejoin="round"/>
<path d="M559.762 124.418H496" stroke="black" stroke-miterlimit="10" stroke-linecap="round" stroke-linejoin="round"/>
<path d="M491.976 124.418H436.571" stroke="black" stroke-miterlimit="10" stroke-linecap="round" stroke-linejoin="round"/>
<path d="M559.762 162.177H509.619" stroke="black" stroke-miterlimit="10" stroke-linecap="round" stroke-linejoin="round"/>
<path d="M504.047 162.177H466.905" stroke="black" stroke-miterlimit="10" stroke-linecap="round" stroke-linejoin="round"/>
<path d="M559.762 172.7H496" stroke="black" stroke-miterlimit="10" stroke-linecap="round" stroke-linejoin="round"/>
<path d="M753.762 586.501H781V591.453H753.762V586.501Z" stroke="black" stroke-miterlimit="10" stroke-linecap="round" stroke-linejoin="round"/>
<path d="M756.929 526.458C756.929 526.458 767.453 514.078 757.548 506.341C757.548 506.341 750.429 502.008 744.548 502.317C744.548 502.317 752.905 516.245 750.119 517.483C747.333 518.721 742.072 501.389 742.072 501.389C742.072 501.389 725.667 499.841 720.405 502.317C720.405 502.317 734.333 513.769 731.548 514.388C728.453 515.007 713.595 503.865 713.595 503.865C713.595 503.865 698.429 506.341 699.048 515.626C699.976 524.911 705.238 527.696 707.405 527.387C709.572 527.077 723.191 522.125 723.5 523.982C723.81 525.839 715.762 532.029 709.881 532.339C709.881 532.339 720.714 544.1 727.833 540.695C734.953 537.291 735.572 531.72 739.905 529.863C744.238 527.696 748.262 527.696 746.405 529.863C744.548 532.029 736.5 533.886 734.024 538.529C731.548 543.171 729.072 545.957 736.5 545.028C743.929 543.79 756 538.529 756.31 532.339C756.929 526.458 756.929 526.458 756.929 526.458Z" fill="#F4FAFA" stroke="black" stroke-miterlimit="10" stroke-linecap="round" stroke-linejoin="round"/>
<path d="M706.476 516.245C706.476 516.245 747.952 514.697 756.929 526.458C756.929 526.458 759.095 532.648 765.286 537.91L766.214 540.695C766.214 540.695 759.095 533.267 756.619 532.648C756.31 532.648 760.333 518.102 706.476 516.245Z" stroke="black" stroke-miterlimit="10" stroke-linecap="round" stroke-linejoin="round"/>
<path d="M765.286 537.91C765.286 537.91 769.31 540.696 772.095 546.266H769.619C768.381 543.79 766.833 541.315 765.286 539.458C760.024 534.815 765.286 537.91 765.286 537.91Z" stroke="black" stroke-miterlimit="10" stroke-linecap="round" stroke-linejoin="round"/>
<path d="M793.453 510.983C793.453 510.983 776.738 501.698 784.476 489.008C784.476 489.008 790.667 481.271 797.476 479.104C797.476 479.104 794.072 497.984 797.476 498.603C800.881 498.912 799.953 477.247 799.953 477.247C799.953 477.247 817.595 468.891 824.405 469.51C824.405 469.51 813.572 488.08 816.976 487.461C820.381 487.151 832.762 468.272 832.762 468.272C832.762 468.272 850.714 464.867 853.81 475.7C856.595 486.223 851.953 491.794 849.476 492.413C846.691 493.032 829.667 492.722 829.976 495.198C830.286 497.365 842.048 501.079 848.548 498.912C848.548 498.912 841.429 516.554 832.143 515.625C822.857 514.697 819.762 508.816 814.191 508.507C808.31 508.197 804.286 509.745 807.072 511.292C809.857 512.84 819.762 511.911 824.405 515.625C829.048 519.649 832.762 522.125 824.095 523.672C815.429 525.529 799.953 524.291 796.857 517.792C793.453 510.983 793.453 510.983 793.453 510.983Z" fill="#F4FAFA" stroke="black" stroke-miterlimit="10" stroke-linecap="round" stroke-linejoin="round"/>
<path d="M845.762 479.104C845.762 479.104 799.024 494.27 793.762 510.983C793.762 510.983 794.072 518.411 789.429 527.077V530.481C789.429 530.481 794.381 519.03 796.857 517.482C796.857 517.792 786.334 502.936 845.762 479.104Z" stroke="black" stroke-miterlimit="10" stroke-linecap="round" stroke-linejoin="round"/>
<path d="M789.119 527.387C789.119 527.387 783.858 535.434 784.786 546.266H787.262C786.953 541.314 787.262 533.886 789.739 528.934C793.762 521.506 789.119 527.387 789.119 527.387Z" stroke="black" stroke-miterlimit="10" stroke-linecap="round" stroke-linejoin="round"/>
<path d="M767.143 498.293C767.143 498.293 789.119 485.913 778.905 469.201C778.905 469.201 770.548 458.987 761.881 456.202C761.881 456.202 766.524 481.271 761.881 481.581C757.238 482.2 758.786 453.416 758.786 453.416C758.786 453.416 735.571 442.274 726.595 443.203C726.595 443.203 740.833 467.653 736.19 467.034C731.548 466.415 715.452 441.965 715.452 441.965C715.452 441.965 691.619 437.632 687.905 451.559C684.19 465.487 690.381 472.605 693.786 473.534C697.19 474.462 719.786 474.153 719.167 476.938C718.548 479.724 703.381 484.675 694.714 481.89C694.714 481.89 704 505.102 716.381 503.864C728.762 502.626 732.476 495.198 740.214 494.579C747.952 493.96 753.524 496.127 749.5 497.984C745.786 500.15 732.786 498.603 726.595 503.864C720.405 509.126 715.452 512.221 726.905 514.697C738.357 517.173 758.786 515.625 762.809 506.65C767.143 498.293 767.143 498.293 767.143 498.293Z" fill="#F4FAFA" stroke="black" stroke-miterlimit="10" stroke-linecap="round" stroke-linejoin="round"/>
<path d="M698.429 456.201C698.429 456.201 760.024 476.009 767.143 498.293C767.143 498.293 766.833 508.197 773.024 519.648V523.981C773.024 523.981 766.524 509.126 763.119 506.959C762.81 506.959 776.738 487.77 698.429 456.201Z" stroke="black" stroke-miterlimit="10" stroke-linecap="round" stroke-linejoin="round"/>
<path d="M773.024 519.649C773.024 519.649 780.762 531.1 778.286 546.266H774.881C775.19 539.766 775.19 528.624 771.786 522.125C767.143 512.221 773.024 519.649 773.024 519.649Z" stroke="black" stroke-miterlimit="10" stroke-linecap="round" stroke-linejoin="round"/>
<path d="M767.976 589.286C744.143 589.286 724.952 570.097 724.952 546.266H811C811 570.097 791.81 589.286 767.976 589.286Z" fill="#F4FAFA" stroke="black" stroke-miterlimit="10" stroke-linecap="round" stroke-linejoin="round"/>
<path d="M723.81 546.266H812.333V547.504H723.81V546.266Z" stroke="black" stroke-miterlimit="10" stroke-linecap="round" stroke-linejoin="round"/>
</g>
</svg>
