<svg width="356" height="350" viewBox="0 0 356 350" fill="none" xmlns="http://www.w3.org/2000/svg">
<path d="M329.057 193.824C329.057 192.401 330.211 191.248 331.633 191.248H347.73C349.152 191.248 350.306 192.401 350.306 193.824V193.824H329.057V193.824Z" fill="#0EB80E"/>
<path d="M299.696 200.584C299.695 213.263 299.695 225.943 299.695 238.622C299.695 242.393 299.695 244.279 300.867 245.45C302.039 246.622 303.924 246.622 307.695 246.622H371.122M329.146 197.676H350.364M329.146 197.676V193.824V193.824C329.146 192.472 330.241 191.377 331.593 191.377H344.065C346.21 191.377 347.283 191.377 348.109 191.778C348.918 192.17 349.571 192.823 349.964 193.632C350.364 194.458 350.364 195.531 350.364 197.676V197.676M329.146 197.676H301.371M350.364 197.676H364.471M376.331 237.607C376.331 226.964 376.331 216.32 376.331 205.676C376.331 201.905 376.331 200.019 375.159 198.848C373.988 197.676 372.102 197.676 368.331 197.676H366.403" stroke="black" stroke-linecap="round" stroke-linejoin="round"/>
<path d="M350.701 223.768C350.701 222.603 350.701 222.021 350.465 221.58C350.28 221.233 349.997 220.949 349.652 220.762C349.211 220.524 348.629 220.521 347.465 220.515L346.878 220.512C345.147 220.504 344.281 220.499 343.716 219.996C343.654 219.941 343.596 219.882 343.541 219.82C343.043 219.25 343.048 218.384 343.056 216.652L343.059 216.059C343.066 214.587 343.069 213.85 342.704 213.329C342.572 213.142 342.409 212.978 342.222 212.846C341.703 212.478 340.966 212.478 339.494 212.478V212.478C338.034 212.478 337.304 212.478 336.786 212.841C336.6 212.972 336.437 213.134 336.306 213.32C335.939 213.835 335.936 214.565 335.929 216.025L335.926 216.69C335.918 218.395 335.914 219.248 335.423 219.809C335.362 219.879 335.296 219.945 335.226 220.006C334.662 220.493 333.81 220.493 332.104 220.493H331.546C330.366 220.493 329.776 220.493 329.33 220.734C328.989 220.919 328.708 221.2 328.524 221.541C328.282 221.987 328.282 222.577 328.282 223.757V223.757C328.282 224.937 328.282 225.527 328.524 225.972C328.708 226.314 328.989 226.594 329.33 226.779C329.776 227.02 330.366 227.02 331.546 227.02H332.095C333.799 227.02 334.651 227.02 335.214 227.506C335.288 227.57 335.358 227.64 335.422 227.714C335.908 228.277 335.908 229.129 335.908 230.833V231.471C335.908 232.937 335.908 233.671 336.274 234.189C336.405 234.376 336.568 234.538 336.755 234.67C337.273 235.036 338.006 235.036 339.473 235.036V235.036C340.939 235.036 341.672 235.036 342.191 234.67C342.377 234.538 342.54 234.376 342.672 234.189C343.037 233.671 343.037 232.937 343.037 231.471V230.852C343.037 229.13 343.037 228.268 343.533 227.703C343.591 227.636 343.653 227.574 343.72 227.516C344.285 227.02 345.147 227.02 346.869 227.02H347.448C348.618 227.02 349.203 227.02 349.646 226.783C349.993 226.597 350.278 226.312 350.464 225.965C350.701 225.522 350.701 224.937 350.701 223.768V223.768Z" fill="#0EB80E"/>
<path d="M334.639 215.197L334.641 214.737C334.648 213.277 334.652 212.547 335.018 212.032C335.15 211.846 335.312 211.684 335.499 211.553C336.016 211.189 336.746 211.189 338.206 211.189V211.189C339.679 211.189 340.415 211.189 340.935 211.557C341.121 211.69 341.284 211.854 341.416 212.041C341.781 212.562 341.778 213.299 341.771 214.771L341.768 215.364C341.76 217.096 341.756 217.962 342.254 218.531C342.308 218.594 342.366 218.653 342.428 218.708C342.993 219.211 343.859 219.216 345.591 219.224L346.177 219.227C347.341 219.233 347.924 219.236 348.364 219.474C348.71 219.66 348.993 219.945 349.178 220.292C349.413 220.733 349.413 221.315 349.413 222.48V222.48C349.413 223.649 349.413 224.234 349.176 224.677C348.99 225.024 348.705 225.309 348.358 225.495C347.915 225.732 347.33 225.732 346.161 225.732H345.582C343.859 225.732 342.998 225.732 342.432 226.228C342.366 226.286 342.303 226.348 342.245 226.414C341.75 226.98 341.75 227.841 341.75 229.564V230.183C341.75 231.649 341.75 232.383 341.384 232.901C341.252 233.088 341.09 233.25 340.903 233.382C340.384 233.748 339.651 233.748 338.185 233.748V233.748C336.719 233.748 335.985 233.748 335.467 233.382C335.28 233.25 335.118 233.088 334.986 232.901C334.62 232.383 334.62 231.649 334.62 230.183V229.545C334.62 227.841 334.62 226.989 334.134 226.426C334.07 226.351 334.001 226.282 333.926 226.218C333.364 225.732 332.511 225.732 330.807 225.732H330.258C329.078 225.732 328.488 225.732 328.042 225.491C327.701 225.306 327.421 225.026 327.236 224.684C326.995 224.239 326.995 223.649 326.995 222.469V222.469C326.995 221.289 326.995 220.699 327.236 220.253C327.421 219.911 327.701 219.631 328.042 219.446C328.488 219.205 329.078 219.205 330.258 219.205H331.845" stroke="#333333" stroke-linecap="round" stroke-linejoin="round"/>
<path d="M40.3217 318.678C40.3217 318.678 39.9341 315.48 40.031 314.027C40.1123 312.808 57.4403 312.918 63.0252 312.985C64.1394 312.999 65.2087 313.39 66.075 314.091L80.2478 325.557C81.3531 326.451 82.7859 326.828 84.2045 326.734C86.0952 326.61 88.9809 326.574 92.0129 327.107C94.7743 327.592 96.5184 330.983 97.3904 334.18" stroke="black" stroke-miterlimit="10" stroke-linecap="round" stroke-linejoin="round"/>
<path d="M97.7298 339.752C96.4217 340.333 40.7095 342.949 39.353 340.914C38.9655 340.285 38.6263 338.201 38.3841 335.537C48.9937 336.07 75.1058 336.99 97.3422 334.035C98.2142 336.845 98.3111 339.509 97.7298 339.752Z" fill="#0EB80E"/>
<path d="M66.8702 305.55L76.0264 304.629L63.5275 207.496C48.6063 210.597 29.9548 210.354 10.7219 209.579C10.7219 209.579 6.02272 237.484 4.95692 246.834C3.30977 261.319 0.693728 305.017 0.693728 305.017L18.4247 305.453" stroke="black" stroke-miterlimit="10" stroke-linecap="round" stroke-linejoin="round"/>
<path d="M56.1636 140.737C57.1809 141.512 58.1014 142.433 58.925 143.499C59.8939 144.758 60.7174 146.309 61.4441 148.053L75.9293 139.139C75.9293 139.139 95.8404 175.134 82.6632 187.681C76.4138 193.64 67.6452 192.913 63.9149 192.235L64.69 202.021C64.69 202.021 63.818 202.554 61.8801 203.232" stroke="black" stroke-miterlimit="10" stroke-linecap="round" stroke-linejoin="round"/>
<path d="M26.0024 197.688C-14.24 179.338 2.57704 141.262 25.2064 136.91" stroke="black" stroke-miterlimit="10" stroke-linecap="round" stroke-linejoin="round"/>
<path d="M43.0835 207.836C26.8058 209.338 11.8846 206.383 11.8846 206.383C12.3153 202.183 13.1364 193.825 13.1364 193.825" stroke="black" stroke-miterlimit="10" stroke-linecap="round" stroke-linejoin="round"/>
<path d="M33.729 187.387C37.2703 189.318 43.0655 191.25 49.182 191.894C50.5098 192.034 51.8915 193.103 51.4358 194.469C50.899 196.079 48.2163 196.079 48.2163 196.079M48.2163 196.079C48.2163 196.079 50.4698 196.723 50.1479 198.333C49.8259 199.942 47.5723 199.984 47.5723 199.984M48.2163 196.079C44.997 195.757 39.5239 194.469 37.5922 193.182M47.5723 199.984C47.5723 199.984 48.9472 200.691 49.182 201.552C50.1478 205.093 33.729 203.317 28.5779 196.723M47.5723 199.984C44.2712 199.68 39.2019 198.655 36.3045 197.367" stroke="black" stroke-miterlimit="10" stroke-linecap="round" stroke-linejoin="round"/>
<path d="M23.6891 155.836C18.4531 159.993 18.7623 169.738 24.2444 173.339" stroke="black" stroke-miterlimit="10" stroke-linecap="round" stroke-linejoin="round"/>
<path d="M51.4641 109.104C52.2392 111.526 53.4019 115.498 53.9348 119.471" stroke="black" stroke-miterlimit="10" stroke-linecap="round" stroke-linejoin="round"/>
<path d="M52.1427 130.468C50.98 132.067 49.5266 132.891 47.9279 133.181V133.23C47.8311 133.278 47.7342 133.278 47.5888 133.327C44.9243 134.15 40.6127 134.441 34.4117 131.098L34.4601 127.901C34.4601 127.901 30.5845 129.064 28.1622 125.382C27.5324 124.413 27.1933 123.444 27.0479 122.523" stroke="black" stroke-miterlimit="10" stroke-linecap="round" stroke-linejoin="round"/>
<path d="M37.173 130.371C39.7891 134.973 45.8447 136.33 48.3639 136.621L47.9279 133.132C47.8795 133.132 43.9069 134.586 37.173 130.371Z" fill="black"/>
<path d="M34.5083 117.678C34.5083 117.678 34.9928 120.827 36.7853 119.762C38.5777 118.696 34.7505 112.785 34.7505 112.785C34.7505 112.785 39.4982 114.675 42.744 110.848C45.9414 107.02 44.6334 104.453 44.6334 104.453L51.222 108.328C51.222 108.328 53.0145 100.383 50.6891 98.7847C48.3637 97.1376 44.2943 98.4941 44.2943 98.4941C44.2943 98.4941 44.6819 95.0544 37.8995 95.5873C31.1171 96.1202 30.9718 103.096 30.9718 103.096C30.9718 103.096 26.5633 102.709 24.8677 106.584C23.1721 110.509 25.7881 113.706 25.7881 113.706C25.7881 113.706 22.5907 114.287 23.9472 117.097C25.2552 119.907 27.0962 121.263 27.0962 121.263C27.0962 121.263 28.2104 115.547 34.5083 117.678Z" stroke="black" stroke-miterlimit="10" stroke-linecap="round" stroke-linejoin="round"/>
<path d="M32.9097 117.921C32.9097 117.921 33.3942 121.07 35.1866 120.004C36.9791 118.938 33.1519 113.028 33.1519 113.028C33.1519 113.028 37.8996 114.917 41.1454 111.09C44.3428 107.263 43.0348 104.695 43.0348 104.695L49.6234 108.571C49.6234 108.571 51.4158 100.626 49.0905 99.0269C46.7651 97.3798 42.6957 98.7363 42.6957 98.7363C42.6957 98.7363 43.0832 95.2966 36.3009 95.8295C29.5185 96.3624 29.3732 103.339 29.3732 103.339C29.3732 103.339 24.9646 102.951 23.2691 106.827C21.5735 110.751 24.1895 113.948 24.1895 113.948C24.1895 113.948 20.9921 114.529 22.3486 117.339C23.6566 120.149 25.4976 121.506 25.4976 121.506C25.4976 121.506 26.6118 115.741 32.9097 117.921Z" fill="black"/>
<path d="M2.92207 331.71C2.92207 327.058 4.48181 321.11 5.29691 318.32C5.60378 317.269 5.74961 316.181 5.73361 315.086C5.71891 314.08 5.72772 312.848 5.8288 312.09C5.97967 310.958 20.9019 311.941 27.5028 312.432C29.5024 312.58 31.385 313.409 32.859 314.768L45.5056 326.43" stroke="black" stroke-miterlimit="10" stroke-linecap="round" stroke-linejoin="round"/>
<path d="M46.9104 327.689C46.9104 327.689 51.755 327.205 56.8902 328.464C59.6031 329.094 61.1534 332.631 61.7832 335.877C62.3645 338.783 62.2192 341.399 61.5894 341.593" stroke="black" stroke-miterlimit="10" stroke-linecap="round" stroke-linejoin="round"/>
<path d="M61.3472 341.496C59.9907 341.98 4.23004 341.012 3.01891 338.88C2.63135 338.25 2.48602 336.119 2.38912 333.454C12.9502 334.665 38.9654 337.281 61.3472 335.779C62.0254 338.589 61.977 341.254 61.3472 341.496Z" fill="#0EB80E"/>
<path d="M62.607 145.486C61.8319 144.227 60.5723 142.337 59.2643 140.981C56.842 138.51 55.1949 135.41 54.5651 132.018C54.4198 131.292 54.3229 130.565 54.226 129.838C53.6931 125.817 53.8384 122.475 54.7104 121.748C55.098 121.409 55.4856 121.312 55.8247 121.312C57.5203 121.457 58.7798 124.8 58.7798 124.8M58.7798 124.8C58.7798 124.8 56.5514 121.215 57.9078 119.568C59.2643 117.921 61.5897 122.62 61.5897 122.62M58.7798 124.8C59.9744 128.605 60.777 130.703 62.6439 134.281M61.5897 122.62C61.5897 122.62 61.2021 118.599 63.2853 119.81C63.7698 120.101 64.1088 120.537 64.3511 121.021C65.5138 123.54 70.4552 133.714 73.3135 138.607M61.5897 122.62C62.9577 126.886 63.8189 129.242 65.8482 133.213" stroke="black" stroke-miterlimit="10" stroke-linecap="round" stroke-linejoin="round"/>
<mask id="mask0_464_5288" style="mask-type:alpha" maskUnits="userSpaceOnUse" x="29" y="131" width="25" height="36">
<path d="M33.83 131.582C33.83 131.582 32.086 132.066 31.4077 132.309C30.6811 132.551 28.501 138.267 30.5842 140.544C32.6673 142.821 37.6572 144.807 42.308 144.807C51.2219 144.807 53.5958 139.866 53.5958 139.866L51.3188 131.437C51.2704 131.437 45.5538 137.977 33.83 131.582Z" fill="#0EB80E"/>
<path d="M33.1037 140.495C33.1037 140.495 29.1312 161.036 29.6641 162.296C30.1485 163.555 38.9171 164.282 40.0314 163.798C41.1941 163.313 37.8029 141.61 37.8029 141.61L33.1037 140.495Z" fill="#0EB80E"/>
<path d="M35.817 141.61C35.817 141.61 36.253 154.593 37.9971 155.32C39.7411 156.046 46.8141 156.579 47.8799 155.32C48.9457 154.06 41.9696 141.464 41.9696 141.464L35.817 141.61Z" fill="#0EB80E"/>
<path d="M30.5845 166.608C30.2938 166.608 30.0031 166.366 30.0031 166.027V161.037C30.0031 160.746 30.2453 160.456 30.5845 160.456C30.8751 160.456 31.1658 160.698 31.1658 161.037V166.027C31.1658 166.366 30.9236 166.608 30.5845 166.608Z" fill="#0EB80E"/>
<path d="M33.8306 166.947C33.54 166.947 33.2493 166.705 33.2493 166.366V162.006C33.2493 161.715 33.4915 161.424 33.8306 161.424C34.1213 161.424 34.412 161.667 34.412 162.006V166.366C34.412 166.705 34.1213 166.947 33.8306 166.947Z" fill="#0EB80E"/>
<path d="M37.8032 166.947C37.5126 166.947 37.2703 166.753 37.2703 166.462L36.6406 162.102C36.5921 161.812 36.7859 161.521 37.125 161.472C37.4157 161.424 37.7064 161.618 37.7548 161.957L38.3846 166.317C38.433 166.608 38.2393 166.898 37.9001 166.947C37.8517 166.947 37.8517 166.947 37.8032 166.947Z" fill="#0EB80E"/>
<path d="M41.049 166.946C40.8068 166.946 40.613 166.801 40.5161 166.607L39.4987 164.04C39.4018 163.749 39.5472 163.41 39.8379 163.313C40.1285 163.216 40.4676 163.361 40.5645 163.652L41.5819 166.22C41.6788 166.51 41.5335 166.85 41.2428 166.946C41.1943 166.946 41.1459 166.946 41.049 166.946Z" fill="#0EB80E"/>
<path d="M42.066 159.244C41.8238 159.244 41.5816 159.099 41.5332 158.857L40.3705 155.078C40.2736 154.787 40.4674 154.448 40.758 154.4C41.0487 154.303 41.3878 154.496 41.4847 154.787L42.6474 158.566C42.7443 158.857 42.5505 159.196 42.2598 159.244C42.163 159.196 42.1145 159.244 42.066 159.244Z" fill="#0EB80E"/>
<path d="M45.9419 159.244C45.7481 159.244 45.5059 159.099 45.409 158.905L43.7618 155.126C43.6165 154.836 43.7618 154.496 44.0525 154.4C44.3432 154.254 44.6823 154.4 44.7792 154.69L46.4263 158.469C46.5716 158.76 46.4263 159.099 46.1356 159.196C46.0872 159.196 46.0387 159.244 45.9419 159.244Z" fill="#0EB80E"/>
<path d="M48.8003 158.711C48.6065 158.711 48.4128 158.614 48.3159 158.42L46.5234 155.174C46.378 154.884 46.4749 154.545 46.7656 154.399C47.0563 154.254 47.3954 154.351 47.5408 154.642L49.3332 157.887C49.4785 158.178 49.3817 158.517 49.091 158.663C48.9941 158.711 48.8972 158.711 48.8003 158.711Z" fill="#0EB80E"/>
</mask>
<g mask="url(#mask0_464_5288)">
<path d="M33.83 131.582C33.83 131.582 32.086 132.066 31.4077 132.309C30.6811 132.551 28.501 138.267 30.5842 140.544C32.6673 142.821 37.6572 144.807 42.308 144.807C51.2219 144.807 53.5958 139.866 53.5958 139.866L51.3188 131.437C51.2704 131.437 45.5538 137.977 33.83 131.582Z" fill="#0EB80E"/>
<path d="M33.1037 140.495C33.1037 140.495 29.1312 161.036 29.6641 162.296C30.1485 163.555 38.9171 164.282 40.0314 163.798C41.1941 163.313 37.8029 141.61 37.8029 141.61L33.1037 140.495Z" fill="#0EB80E"/>
<path d="M35.817 141.61C35.817 141.61 36.253 154.593 37.9971 155.32C39.7411 156.046 46.8141 156.579 47.8799 155.32C48.9457 154.06 41.9696 141.464 41.9696 141.464L35.817 141.61Z" fill="#0EB80E"/>
<path d="M30.5845 166.608C30.2938 166.608 30.0031 166.366 30.0031 166.027V161.037C30.0031 160.746 30.2453 160.456 30.5845 160.456C30.8751 160.456 31.1658 160.698 31.1658 161.037V166.027C31.1658 166.366 30.9236 166.608 30.5845 166.608Z" fill="#0EB80E"/>
<path d="M33.8306 166.947C33.54 166.947 33.2493 166.705 33.2493 166.366V162.006C33.2493 161.715 33.4915 161.424 33.8306 161.424C34.1213 161.424 34.412 161.667 34.412 162.006V166.366C34.412 166.705 34.1213 166.947 33.8306 166.947Z" fill="#0EB80E"/>
<path d="M37.8032 166.947C37.5126 166.947 37.2703 166.753 37.2703 166.462L36.6406 162.102C36.5921 161.812 36.7859 161.521 37.125 161.472C37.4157 161.424 37.7064 161.618 37.7548 161.957L38.3846 166.317C38.433 166.608 38.2393 166.898 37.9001 166.947C37.8517 166.947 37.8517 166.947 37.8032 166.947Z" fill="#0EB80E"/>
<path d="M41.049 166.946C40.8068 166.946 40.613 166.801 40.5161 166.607L39.4987 164.04C39.4018 163.749 39.5472 163.41 39.8379 163.313C40.1285 163.216 40.4676 163.361 40.5645 163.652L41.5819 166.22C41.6788 166.51 41.5335 166.85 41.2428 166.946C41.1943 166.946 41.1459 166.946 41.049 166.946Z" fill="#0EB80E"/>
<path d="M42.066 159.244C41.8238 159.244 41.5816 159.099 41.5332 158.857L40.3705 155.078C40.2736 154.787 40.4674 154.448 40.758 154.4C41.0487 154.303 41.3878 154.496 41.4847 154.787L42.6474 158.566C42.7443 158.857 42.5505 159.196 42.2598 159.244C42.163 159.196 42.1145 159.244 42.066 159.244Z" fill="#0EB80E"/>
<path d="M45.9419 159.244C45.7481 159.244 45.5059 159.099 45.409 158.905L43.7618 155.126C43.6165 154.836 43.7618 154.496 44.0525 154.4C44.3432 154.254 44.6823 154.4 44.7792 154.69L46.4263 158.469C46.5716 158.76 46.4263 159.099 46.1356 159.196C46.0872 159.196 46.0387 159.244 45.9419 159.244Z" fill="#0EB80E"/>
<path d="M48.8003 158.711C48.6065 158.711 48.4128 158.614 48.3159 158.42L46.5234 155.174C46.378 154.884 46.4749 154.545 46.7656 154.399C47.0563 154.254 47.3954 154.351 47.5408 154.642L49.3332 157.887C49.4785 158.178 49.3817 158.517 49.091 158.663C48.9941 158.711 48.8972 158.711 48.8003 158.711Z" fill="#0EB80E"/>
<path d="M29.5436 134.589L32.763 133.301L35.9824 134.589L39.2018 133.301L42.4212 134.589L45.6406 133.301L48.86 134.589L52.0794 133.301L55.2987 134.589" stroke="#F4FAFA" stroke-linecap="round" stroke-linejoin="round"/>
<path d="M29.5436 137.807L32.763 136.52L35.9824 137.807L39.2018 136.52L42.4212 137.807L45.6406 136.52L48.86 137.807L52.0794 136.52L55.2987 137.807" stroke="#F4FAFA" stroke-linecap="round" stroke-linejoin="round"/>
<path d="M29.5436 141.027L32.763 139.739L35.9824 141.027L39.2018 139.739L42.4212 141.027L45.6406 139.739L48.86 141.027L52.0794 139.739L55.2987 141.027" stroke="#F4FAFA" stroke-linecap="round" stroke-linejoin="round"/>
<path d="M29.5436 144.247L32.763 142.959L35.9824 144.247L39.2018 142.959L42.4212 144.247L45.6406 142.959L48.86 144.247L52.0794 142.959L55.2987 144.247" stroke="#F4FAFA" stroke-linecap="round" stroke-linejoin="round"/>
<path d="M29.5436 147.465L32.763 146.178L35.9824 147.465L39.2018 146.178L42.4212 147.465L45.6406 146.178L48.86 147.465L52.0794 146.178L55.2987 147.465" stroke="#F4FAFA" stroke-linecap="round" stroke-linejoin="round"/>
<path d="M29.5436 150.685L32.763 149.397L35.9824 150.685L39.2018 149.397L42.4212 150.685L45.6406 149.397L48.86 150.685L52.0794 149.397L55.2987 150.685" stroke="#F4FAFA" stroke-linecap="round" stroke-linejoin="round"/>
<path d="M29.5436 153.905L32.763 152.617L35.9824 153.905L39.2018 152.617L42.4212 153.905L45.6406 152.617L48.86 153.905L52.0794 152.617L55.2987 153.905" stroke="#F4FAFA" stroke-linecap="round" stroke-linejoin="round"/>
<path d="M29.5436 157.124L32.763 155.836L35.9824 157.124L39.2018 155.836L42.4212 157.124L45.6406 155.836L48.86 157.124L52.0794 155.836L55.2987 157.124" stroke="#F4FAFA" stroke-linecap="round" stroke-linejoin="round"/>
<path d="M29.5436 160.343L32.763 159.056L35.9824 160.343L39.2018 159.056L42.4212 160.343L45.6406 159.056L48.86 160.343L52.0794 159.056L55.2987 160.343" stroke="#F4FAFA" stroke-linecap="round" stroke-linejoin="round"/>
<path d="M29.5436 163.563L32.763 162.275L35.9824 163.563L39.2018 162.275L42.4212 163.563L45.6406 162.275L48.86 163.563L52.0794 162.275L55.2987 163.563" stroke="#F4FAFA" stroke-linecap="round" stroke-linejoin="round"/>
<path d="M29.5436 166.782L32.763 165.494L35.9824 166.782L39.2018 165.494L42.4212 166.782L45.6406 165.494L48.86 166.782L52.0794 165.494L55.2987 166.782" stroke="#F4FAFA" stroke-linecap="round" stroke-linejoin="round"/>
</g>
<path d="M33.3457 141.707C32.4737 141.174 31.6985 140.592 31.1656 140.011C29.0825 137.734 31.2625 132.018 31.9892 131.775C32.7159 131.533 34.4115 131.049 34.4115 131.049C46.1353 137.443 51.8518 130.903 51.8518 130.903L54.1288 139.333C54.1288 139.333 52.0456 143.741 44.2944 144.226C46.2806 148.053 49.1873 153.963 48.4607 154.787L49.8656 157.355C50.0109 157.645 49.914 157.984 49.6234 158.13C49.5265 158.178 49.4296 158.178 49.3327 158.178C49.1389 158.178 48.9451 158.081 48.8482 157.887L47.3949 155.271C46.9588 155.368 46.4744 155.417 45.9415 155.465L47.0073 157.887C47.1526 158.178 47.0073 158.517 46.7166 158.614C46.6197 158.663 46.5713 158.663 46.4744 158.663C46.2806 158.663 46.0384 158.517 45.9415 158.323L44.6819 155.514C43.9068 155.514 43.0832 155.465 42.3081 155.417L43.0832 157.936C43.1801 158.227 42.9863 158.566 42.6957 158.614C42.6472 158.614 42.5988 158.614 42.5503 158.614C42.3081 158.614 42.0659 158.469 42.0174 158.227L41.097 155.223C40.8063 155.174 40.5156 155.126 40.2249 155.126C40.6125 158.517 40.8547 161.521 40.7094 162.684C40.8547 162.732 41.0001 162.829 41.0485 163.023L42.0659 165.59C42.1628 165.881 42.0174 166.22 41.7268 166.317C41.6783 166.365 41.5814 166.365 41.533 166.365C41.2907 166.365 41.097 166.22 41.0001 166.026L39.9827 163.459C39.9827 163.41 39.9827 163.41 39.9827 163.362C39.5952 163.41 39.1107 163.41 38.4809 163.41L38.82 165.784C38.8685 166.075 38.6747 166.365 38.3356 166.414C38.2871 166.414 38.2871 166.414 38.2387 166.414C37.948 166.414 37.7058 166.22 37.7058 165.929L37.3182 163.362C36.5431 163.313 35.6711 163.216 34.8475 163.12V165.832C34.8475 166.123 34.6053 166.414 34.2662 166.414C33.9755 166.414 33.6848 166.172 33.6848 165.832V162.974C32.9097 162.829 32.183 162.684 31.5532 162.538V165.493C31.5532 165.784 31.311 166.075 30.9719 166.075C30.6812 166.075 30.3905 165.832 30.3905 165.493V162.102C30.1967 162.005 30.0998 161.86 30.0514 161.763C29.8092 160.746 32.4252 146.648 33.3457 141.707Z" stroke="black" stroke-miterlimit="10" stroke-linecap="round" stroke-linejoin="round"/>
<path d="M39.7404 145.196L40.467 153.432" stroke="black" stroke-miterlimit="10" stroke-linecap="round" stroke-linejoin="round"/>
<path d="M43.1316 144.275C39.7404 144.275 37.5119 143.645 34.4599 142.337" stroke="black" stroke-miterlimit="10" stroke-linecap="round" stroke-linejoin="round"/>
<path d="M35.2346 318.727L30.6807 323.28L41.6779 324.637" stroke="black" stroke-miterlimit="10" stroke-linecap="round" stroke-linejoin="round"/>
<path d="M69.873 318.679L65.6098 323.475L76.6554 324.153" stroke="black" stroke-miterlimit="10" stroke-linecap="round" stroke-linejoin="round"/>
<path d="M58.392 215.15L42.6472 220.915L41.4361 305.21" stroke="black" stroke-miterlimit="10" stroke-linecap="round" stroke-linejoin="round"/>
<path d="M20.5078 213.261V214.181C20.5078 218.154 17.262 221.4 13.2895 221.4" stroke="black" stroke-miterlimit="10" stroke-linecap="round" stroke-linejoin="round"/>
<path d="M49.4774 125.332C49.4774 125.332 46.0378 125.768 45.9893 126.543C45.8924 127.367 49.1867 127.464 49.1867 127.464L49.4774 125.332Z" stroke="black" stroke-miterlimit="10" stroke-linejoin="round"/>
<path d="M43.2766 114.917L43.6642 119.519" stroke="black" stroke-miterlimit="10" stroke-linecap="round" stroke-linejoin="round"/>
<path d="M50.6404 114.675L51.028 119.18" stroke="black" stroke-miterlimit="10" stroke-linecap="round" stroke-linejoin="round"/>
<path d="M29.8576 119.084L34.0239 123.929" stroke="black" stroke-miterlimit="10" stroke-linecap="round" stroke-linejoin="round"/>
<path d="M29.3254 122.33L32.4259 122.039" stroke="black" stroke-miterlimit="10" stroke-linecap="round" stroke-linejoin="round"/>
<path d="M52.1902 112.446C50.8822 111.09 49.5741 110.799 48.363 112.349" stroke="black" stroke-miterlimit="10" stroke-linecap="round" stroke-linejoin="round"/>
<path d="M44.7789 112.252C43.1318 111.816 41.8238 112.107 41.1455 113.609" stroke="black" stroke-miterlimit="10" stroke-linecap="round" stroke-linejoin="round"/>
<path d="M48.0244 117.049C49.6231 118.551 50.2528 120.295 49.2839 122.475" stroke="black" stroke-miterlimit="10" stroke-linecap="round" stroke-linejoin="round"/>
<path d="M63.6725 110.459L58.5373 115.643" stroke="black" stroke-miterlimit="10" stroke-linecap="round" stroke-linejoin="round"/>
<path d="M75.0574 111.187L64.4963 117.872" stroke="black" stroke-miterlimit="10" stroke-linecap="round" stroke-linejoin="round"/>
<path d="M61.4921 116.806L69.0496 111.187" stroke="black" stroke-miterlimit="10" stroke-linecap="round" stroke-linejoin="round"/>
<path d="M62.3817 172.899L63.594 188.353" stroke="black" stroke-miterlimit="10" stroke-linecap="round" stroke-linejoin="round"/>
<path d="M22.1526 195.493L32.4999 180.025L27.0077 176.711L16.5757 192.401L22.1526 195.493Z" fill="#0EB80E"/>
<path d="M32.4999 180.025L22.1526 195.493L16.5757 192.401L27.0077 176.711" stroke="black" stroke-miterlimit="10" stroke-linecap="round" stroke-linejoin="round"/>
<path d="M62.6064 150.379L77.576 142.337L80.2889 148.15L65.2709 156.047" fill="#0EB80E"/>
<path d="M62.6064 150.379L77.576 142.337L80.2889 148.15L65.2709 156.047" stroke="black" stroke-miterlimit="10" stroke-linecap="round" stroke-linejoin="round"/>
<mask id="mask1_464_5288" style="mask-type:alpha" maskUnits="userSpaceOnUse" x="161" y="47" width="154" height="111">
<path d="M222.877 51.7228C222.877 51.7228 218.485 52.3439 214.759 55.316C213.809 56.0828 212.91 56.9441 212.097 57.8C209.761 60.2619 208.15 62.6798 208.15 62.6798L202.693 84.3277C202.693 84.3277 201.554 105.855 200.636 124.967C199.914 140 199.329 153.539 199.544 153.929C200.032 154.816 207.75 157.744 208.992 157.744C209.754 157.771 210.182 135.826 210.379 118.735C210.503 107.968 210.535 99.128 210.501 98.9223C210.412 98.3899 206.819 88.8081 209.303 80.4683C210.781 75.5928 212.987 68.1854 215.841 61.9421C217.869 57.506 220.224 53.6576 222.877 51.7228Z" fill="#0EB80E"/>
<path d="M244.836 47.5078C242.928 47.2417 240.976 47.2417 239.113 47.6853C238.226 47.8627 237.472 48.1732 237.383 48.5281C237.073 49.504 243.86 156.723 244.658 157.344C245.457 157.965 259.12 158.364 268.169 154.949C277.219 151.533 280.413 147.718 280.856 146.653C281.255 145.589 265.774 64.5422 264.798 61.3039C263.822 58.1543 260.717 49.8589 244.836 47.5078Z" fill="#0EB80E"/>
<path d="M244.836 47.5091C244.836 47.5091 298.157 51.7677 312.397 76.4764C323.62 96.0394 288.087 131.528 288.087 131.528L270.52 111.432L244.836 47.5091Z" fill="#0EB80E"/>
<path d="M212.097 57.8C208.917 60.8994 203.437 66.7922 198.434 74.8782C190.76 87.2104 189.784 86.4119 187.877 87.654C185.969 88.8961 166.983 86.9886 164.809 87.654C162.636 88.3194 161.837 122.743 161.837 122.743C161.837 122.743 181.622 130.417 196.971 126.248C198.228 125.906 199.451 125.473 200.636 124.967C201.554 105.855 202.693 84.3277 202.693 84.3277L208.15 62.6798C208.15 62.6798 209.761 60.2619 212.097 57.8Z" fill="#0EB80E"/>
</mask>
<g mask="url(#mask1_464_5288)">
<path d="M222.877 51.7228C222.877 51.7228 218.486 52.3439 214.759 55.316C213.809 56.0828 212.91 56.9441 212.098 57.8C209.762 60.2619 208.15 62.6798 208.15 62.6798L202.693 84.3277C202.693 84.3277 201.554 105.855 200.636 124.967C199.914 140 199.329 153.539 199.544 153.929C200.032 154.816 207.75 157.744 208.992 157.744C209.754 157.771 210.183 135.826 210.379 118.735C210.503 107.968 210.535 99.128 210.501 98.9223C210.412 98.3899 206.819 88.8081 209.303 80.4683C210.781 75.5928 212.987 68.1854 215.841 61.9421C217.869 57.506 220.224 53.6576 222.877 51.7228Z" fill="#0EB80E"/>
<path d="M244.836 47.5078C242.928 47.2417 240.976 47.2417 239.113 47.6853C238.226 47.8627 237.472 48.1732 237.383 48.5281C237.073 49.504 243.86 156.723 244.658 157.344C245.457 157.965 259.12 158.364 268.169 154.949C277.219 151.533 280.413 147.718 280.856 146.653C281.256 145.589 265.774 64.5422 264.798 61.3039C263.822 58.1543 260.717 49.8589 244.836 47.5078Z" fill="#0EB80E"/>
<path d="M244.836 47.5091C244.836 47.5091 298.157 51.7677 312.397 76.4764C323.62 96.0394 288.087 131.528 288.087 131.528L270.52 111.432L244.836 47.5091Z" fill="#0EB80E"/>
<path d="M212.098 57.8C208.917 60.8994 203.437 66.7922 198.435 74.8782C190.76 87.2104 189.784 86.4119 187.877 87.654C185.969 88.8961 166.983 86.9886 164.809 87.654C162.636 88.3194 161.837 122.743 161.837 122.743C161.837 122.743 181.622 130.417 196.971 126.248C198.228 125.906 199.451 125.473 200.636 124.967C201.554 105.855 202.693 84.3277 202.693 84.3277L208.15 62.6798C208.15 62.6798 209.762 60.2619 212.098 57.8Z" fill="#0EB80E"/>
<path d="M165.696 77.3049L243.594 155.203M159.894 48.0216L267.075 155.203M185.766 48.0219L292.947 155.203M215.901 48.0219L323.082 155.203M242.341 48.0219L349.522 155.203M266.507 48.0219L373.688 155.203M138.004 77.3049L215.902 155.203M328.653 77.3048L250.755 155.203M334.455 48.0216L227.274 155.203M308.583 48.0218L201.402 155.203M278.448 48.0219L171.267 155.203M252.008 48.0219L144.827 155.203M227.842 48.0219L120.661 155.203M356.346 77.3049L278.447 155.203" stroke="#F4FAFA" stroke-width="2" stroke-linecap="round"/>
</g>
<path d="M282.719 130.507C282.541 132.725 282.541 135.386 283.162 138.403C283.828 141.73 284.537 145.456 287.421 148.695C289.062 150.558 290.792 151.489 290.482 152.199C290.127 153.086 286.977 152.82 285.558 152.243C281.21 150.425 281.21 150.425 281.21 150.425C281.21 150.425 290.349 155.925 284.005 156.369C277.617 156.813 275.399 152.243 275.399 152.243C275.399 152.243 278.637 154.994 277.928 156.502C277.706 156.99 277.085 157.167 276.774 157.301C275.665 157.7 274.689 157.345 273.935 157.079C272.383 156.502 271.362 155.482 270.786 154.772" stroke="black" stroke-miterlimit="10" stroke-linecap="round" stroke-linejoin="round"/>
<path d="M224.518 300.363C219.683 300.141 191.869 299.786 191.735 299.209C191.519 298.177 193.297 231.478 193.297 231.478C193.297 231.478 204.129 173.378 205.31 162.003C205.31 161.87 208.016 160.672 208.016 160.672" stroke="black" stroke-miterlimit="10" stroke-linecap="round" stroke-linejoin="round"/>
<path d="M272.694 157.566C273.093 161.825 273.315 166.305 273.182 170.83C272.738 191.28 266.661 222.377 267.592 224.684C267.947 225.571 270.298 235.286 273.004 246.82L282.453 287.321L275.843 289.228" stroke="black" stroke-miterlimit="10" stroke-linecap="round" stroke-linejoin="round"/>
<path d="M235.698 317.53C235.653 311.985 235.476 307.46 234.722 307.504C234.337 307.513 233.232 307.754 231.722 308.129L232.366 318.239L235.698 317.53Z" fill="#0EB80E"/>
<path fill-rule="evenodd" clip-rule="evenodd" d="M287.243 318.063C287.997 319.971 287.243 322.056 285.513 322.854L274.54 295.645C275.799 294.772 276.73 294.165 277.084 294.02C278.098 293.627 281.526 302.838 284.447 310.691C285.487 313.485 286.462 316.107 287.243 318.063Z" fill="#0EB80E"/>
<path d="M234.722 307.505C234.337 307.514 233.232 307.754 231.722 308.129C225.922 309.571 214.139 313.005 214.139 313.005C214.139 313.005 213.384 301.871 205.666 304C199.721 305.641 192.979 312.872 190.14 316.111C189.252 317.131 188.099 317.885 186.813 318.24C181.312 319.704 166.141 324.539 166.052 332.746C165.963 342.771 169.956 341.529 171.819 341.529C173.061 341.529 199.81 339.71 218.308 338.424" stroke="black" stroke-miterlimit="10" stroke-linecap="round" stroke-linejoin="round"/>
<path d="M285.512 322.854C273.713 328.31 231.925 347.563 230.417 348.139C228.687 348.849 225.36 351.422 221.9 342.017C219.061 334.343 231.526 324.451 236.139 321.079C237.204 320.325 238.002 319.216 238.49 317.93C239.954 313.849 243.725 304.71 248.693 301.073C255.126 296.326 259.783 306.485 259.783 306.485C259.783 306.485 269.639 299.044 274.54 295.644C275.799 294.771 276.73 294.165 277.084 294.02" stroke="black" stroke-miterlimit="10" stroke-linecap="round" stroke-linejoin="round"/>
<path d="M209.702 135.21C213.295 135.698 217.642 135.964 222.566 135.609C228.555 135.21 233.612 134.057 237.516 132.814" stroke="black" stroke-miterlimit="10" stroke-linecap="round" stroke-linejoin="round"/>
<path d="M196.749 149.45C196.66 152.156 196.66 153.797 196.704 153.93C197.192 154.817 204.911 157.745 206.153 157.745C206.907 157.745 207.351 135.787 207.528 118.663C207.661 107.928 207.706 99.1005 207.661 98.9231C207.572 98.3908 203.979 88.8089 206.463 80.4692C207.883 75.5895 210.101 68.1813 212.94 61.9709C214.981 57.5348 217.332 53.6755 219.993 51.7236C219.993 51.7236 215.602 52.3447 211.875 55.3168L211.831 55.3612L211.787 55.4055C211.787 55.4055 211.742 55.4499 211.698 55.4943C211.654 55.5386 211.654 55.5386 211.609 55.583C211.565 55.6273 211.521 55.6717 211.476 55.7161C210.855 56.2484 210.234 56.7807 209.657 57.4018L209.613 57.4461C206.508 60.4183 200.785 66.4956 195.506 74.9241C187.832 87.2563 186.856 86.4578 184.949 87.6999C182.997 88.942 164.055 87.0345 161.881 87.6999C161.438 87.833 161.038 89.3856 160.728 91.7367" stroke="black" stroke-miterlimit="10" stroke-linecap="round" stroke-linejoin="round"/>
<path d="M158.999 119.683C158.954 121.59 158.91 122.788 158.91 122.788C158.91 122.788 178.695 130.462 194.043 126.292C195.33 125.937 196.572 125.494 197.814 124.962C197.636 128.466 197.503 131.882 197.326 135.12" stroke="black" stroke-miterlimit="10" stroke-linecap="round" stroke-linejoin="round"/>
<path d="M218.396 50.1255L218.352 46.3105C215.557 46.0887 212.851 44.6248 211.077 40.6767C210.5 39.3459 210.101 37.8376 209.879 36.1963" stroke="black" stroke-miterlimit="10" stroke-linecap="round" stroke-linejoin="round"/>
<path d="M239.512 26.7021C240.976 28.5209 241.686 31.6262 240.089 34.7757C237.738 39.3005 233.124 38.4577 233.124 38.4577L234.145 46.132" stroke="black" stroke-miterlimit="10" stroke-linecap="round" stroke-linejoin="round"/>
<path d="M206.109 21.9564C206.02 29.542 211.077 33.6232 211.077 33.6232C210.988 28.9653 211.388 24.4849 212.275 20.182L215.291 12.6851C215.291 12.6851 215.336 15.5685 220.615 21.779C220.792 21.9564 220.925 22.1782 221.103 22.3556C226.825 28.9653 233.213 26.5699 233.213 26.5699C234.455 25.727 235.697 25.106 236.85 24.9285C237.782 24.7955 238.669 24.9285 239.556 25.4609C239.645 25.5052 239.734 25.5496 239.823 25.6383L239.867 25.5496C239.867 25.5496 239.911 25.106 239.956 24.3962C242.218 24.4849 244.702 24.0413 246.698 22.3113C250.203 19.2948 254.462 5.54305 244.392 1.41754C236.54 -1.82077 231.705 6.1641 229.975 9.80165C228.067 8.87008 222.034 6.34154 213.739 7.31747C203.669 8.60392 208.105 14.8587 208.105 14.8587C208.105 14.8587 206.153 16.855 206.109 21.9564Z" fill="#BDCCD4"/>
<path d="M246.698 22.3113C244.702 24.0413 242.218 24.4849 239.956 24.3962C239.683 16.2018 237.617 13.0594 229.975 9.80165C231.705 6.1641 236.54 -1.82077 244.392 1.41754C254.462 5.54305 250.203 19.2948 246.698 22.3113Z" fill="#ACBDC6"/>
<path d="M204.689 21.9564C204.601 29.542 209.658 33.6232 209.658 33.6232C209.569 28.9653 209.968 24.4849 210.855 20.182L213.872 12.6851C213.872 12.6851 213.916 15.5685 219.195 21.779C219.373 21.9564 219.506 22.1782 219.683 22.3556C225.406 28.9653 231.794 26.5699 231.794 26.5699C233.036 25.727 234.278 25.106 235.431 24.9285C236.363 24.7955 237.25 24.9285 238.137 25.4609C238.226 25.5052 238.314 25.5496 238.403 25.6383L238.448 25.5496C238.448 25.5496 238.492 25.106 238.536 24.3962C240.799 24.4849 243.283 24.0413 245.279 22.3113C248.784 19.2948 253.042 5.54305 242.972 1.41754C235.121 -1.82077 230.285 6.1641 228.555 9.80165C226.648 8.87008 220.615 6.34154 212.319 7.31747C202.161 8.5152 206.641 14.77 206.641 14.77C206.641 14.77 204.734 16.855 204.689 21.9564Z" stroke="black" stroke-miterlimit="10" stroke-linecap="round" stroke-linejoin="round"/>
<path d="M220.792 39.3896C219.842 40.132 218.293 40.3545 216.578 40.4099" stroke="black" stroke-miterlimit="10" stroke-linecap="round" stroke-linejoin="round"/>
<path d="M219.488 27.0605L221.307 28.5688L220.775 31.9845" stroke="black" stroke-miterlimit="10" stroke-linecap="round" stroke-linejoin="round"/>
<path d="M210.412 27.8154L211.831 28.9688L211.343 32.4733" stroke="black" stroke-miterlimit="10" stroke-linecap="round" stroke-linejoin="round"/>
<path d="M215.957 27.9014C214.449 30.8292 214.626 33.2246 215.602 35.3539" stroke="black" stroke-miterlimit="10" stroke-linecap="round" stroke-linejoin="round"/>
<path d="M210.412 23.3323C210.456 23.3323 210.501 23.3323 210.589 23.288L213.251 22.4008C213.517 22.312 213.65 22.0015 213.561 21.7354C213.473 21.4692 213.162 21.3361 212.896 21.4248L210.234 22.312C209.968 22.4008 209.835 22.7113 209.924 22.9774C210.013 23.1992 210.19 23.3323 210.412 23.3323Z" fill="#ACBDC6"/>
<path d="M222.034 23.3327C222.256 23.3327 222.433 23.1996 222.522 22.9778C222.611 22.7117 222.478 22.4012 222.211 22.3124L218.352 21.0703C218.086 20.9816 217.775 21.1147 217.687 21.3809C217.598 21.647 217.731 21.9575 217.997 22.0463L221.857 23.2884C221.945 23.3327 221.99 23.3327 222.034 23.3327Z" fill="#ACBDC6"/>
<path d="M209.391 35.7099C209.613 35.7099 209.879 35.7099 210.101 35.6655C212.63 35.2219 214.271 32.5603 213.783 29.6769C213.295 26.8378 210.811 24.8859 208.327 25.2852C205.798 25.7288 204.157 28.3904 204.645 31.2738C205.088 33.8467 207.129 35.7099 209.391 35.7099ZM208.992 26.2611C210.767 26.2611 212.364 27.7694 212.718 29.8543C213.118 32.161 211.831 34.2903 209.879 34.6452C207.927 35.0001 206.02 33.4031 205.621 31.0964C205.222 28.7897 206.508 26.6604 208.46 26.3055C208.637 26.2611 208.815 26.2611 208.992 26.2611Z" fill="#0EB80E"/>
<path d="M220.925 34.511C221.235 34.511 221.546 34.4667 221.812 34.4223C223.187 34.2005 224.385 33.402 225.228 32.293C226.026 31.1396 226.337 29.7645 226.115 28.3893C225.893 27.0141 225.095 25.8164 223.986 24.9735C222.832 24.175 221.457 23.8645 220.082 24.0863C217.243 24.5743 215.291 27.3246 215.823 30.1637C216.045 31.5389 216.844 32.7366 217.953 33.5794C218.796 34.1561 219.816 34.511 220.925 34.511ZM220.925 25.0179C221.768 25.0179 222.61 25.2841 223.365 25.772C224.296 26.4374 224.917 27.4134 225.095 28.5224C225.272 29.6314 225.05 30.7404 224.385 31.6719C223.72 32.6035 222.744 33.2246 221.635 33.402C220.526 33.5794 219.417 33.3576 218.485 32.6922C217.553 32.0268 216.932 31.0509 216.755 29.9419C216.577 28.8329 216.799 27.7239 217.465 26.7923C218.13 25.8607 219.106 25.2397 220.215 25.0622C220.437 25.0179 220.703 25.0179 220.925 25.0179Z" fill="#0EB80E"/>
<path d="M213.517 29.898C213.65 29.898 213.783 29.8537 213.872 29.765C214.36 29.277 215.691 29.3657 216.09 29.4544C216.356 29.4988 216.622 29.3213 216.666 29.0108C216.711 28.7447 216.533 28.4785 216.223 28.4341C216.001 28.3898 214.049 28.1236 213.118 29.0552C212.896 29.2326 212.896 29.5875 213.118 29.765C213.251 29.8537 213.384 29.898 213.517 29.898Z" fill="#0EB80E"/>
<path d="M225.583 28.9659C225.76 28.9659 225.938 28.8771 226.026 28.6997C227.047 26.8366 232.414 25.905 234.366 25.6832C234.632 25.6388 234.854 25.417 234.81 25.1065C234.765 24.8403 234.499 24.6185 234.233 24.6629C233.435 24.7516 226.559 25.5501 225.095 28.2117C224.962 28.4779 225.05 28.7884 225.317 28.9215C225.405 28.9215 225.494 28.9659 225.583 28.9659Z" fill="#0EB80E"/>
<path d="M234.455 48.4839C234.936 46.559 242.86 46.1406 243.931 46.1406C271.316 46.1407 302.613 64.4818 309.468 76.4309C320.692 95.9939 285.159 131.482 285.159 131.482L272.738 117.242C275.71 133.079 278.061 146.165 277.884 146.565C277.485 147.629 274.246 151.444 265.197 154.86C256.147 158.276 242.529 157.877 241.686 157.256C240.932 156.679 234.145 49.4598 234.455 48.4839Z" stroke="black" stroke-miterlimit="10" stroke-linecap="round" stroke-linejoin="round"/>
<path d="M267.636 224.683C267.636 224.683 258.986 216.742 254.728 219.936C250.469 223.086 267.636 224.683 267.636 224.683Z" stroke="black" stroke-miterlimit="10" stroke-linecap="round" stroke-linejoin="round"/>
<path d="M213.428 153.041L228.023 162.978L222.123 233.378L235.564 296.369" stroke="black" stroke-miterlimit="10" stroke-linecap="round" stroke-linejoin="round"/>
<path fill-rule="evenodd" clip-rule="evenodd" d="M161.548 130.072C161.548 123.432 156.166 118.05 149.526 118.05C142.887 118.05 137.504 123.432 137.504 130.072V341.328C137.504 343.106 138.946 344.547 140.724 344.547C142.502 344.547 143.943 343.106 143.943 341.328V130.072C143.943 126.988 146.443 124.489 149.526 124.489C152.609 124.489 155.109 126.988 155.109 130.072V137.164C155.109 138.942 156.55 140.383 158.328 140.383C160.106 140.383 161.548 138.942 161.548 137.164V130.072Z" fill="#0EB80E"/>
<path d="M137.873 121.711C136.426 123.695 135.573 126.14 135.573 128.784V340.04C135.573 341.818 137.014 343.26 138.792 343.26C140.57 343.26 142.012 341.818 142.012 340.04V128.784C142.012 126.998 142.85 125.408 144.154 124.386M151.881 117.549C156.404 119.275 159.616 123.654 159.616 128.784V135.876C159.616 137.654 158.175 139.095 156.397 139.095C154.619 139.095 153.177 137.654 153.177 135.876V128.784C153.177 126.297 151.552 124.19 149.305 123.468" stroke="black" stroke-miterlimit="10" stroke-linecap="round" stroke-linejoin="round"/>
<path d="M161.548 95.9932C158.443 95.6826 149.559 95.5375 144.502 98.4653C141.308 100.328 138.037 103.623 136.573 106.906C135.065 110.277 134.577 114.003 135.376 117.597C135.597 118.617 135.864 119.46 136.218 119.77C137.327 120.658 138.525 119.726 138.525 119.726C138.525 119.726 139.709 123.088 141.568 122.427C143.951 121.58 141.568 117.537 147.436 111.18C147.436 111.18 141.772 120.248 144.991 123.405C148.161 126.514 147.436 116.07 152.815 116.07C152.815 116.07 159.02 115.955 160.528 114.891" stroke="black" stroke-miterlimit="10" stroke-linecap="round" stroke-linejoin="round"/>
<path d="M138.481 119.638C138.693 114.085 139.584 111.886 142.546 108.734" stroke="black" stroke-miterlimit="10" stroke-linecap="round" stroke-linejoin="round"/>
<path d="M265.907 98.2567L279.481 76.2539" stroke="black" stroke-miterlimit="10" stroke-linecap="round" stroke-linejoin="round"/>
<path d="M272.561 76.475C269.145 75.8539 272.783 87.1214 272.783 87.1214C272.783 87.1214 275.977 77.1404 272.561 76.475Z" stroke="black" stroke-miterlimit="10" stroke-linecap="round" stroke-linejoin="round"/>
<path d="M185.481 87.3877C185.481 87.3877 192.18 96.7034 188.187 97.9455C184.195 99.1876 185.481 87.3877 185.481 87.3877Z" stroke="black" stroke-miterlimit="10" stroke-linecap="round" stroke-linejoin="round"/>
<path d="M281.255 150.38C280.457 149.847 279.791 149.226 279.259 148.517" stroke="black" stroke-miterlimit="10" stroke-linecap="round" stroke-linejoin="round"/>
<path d="M237.339 27.7676L233.257 33.6675" stroke="black" stroke-miterlimit="10" stroke-linecap="round" stroke-linejoin="round"/>
<path d="M238.314 31.3613H234.854" stroke="black" stroke-miterlimit="10" stroke-linecap="round" stroke-linejoin="round"/>
<path d="M218.352 46.3106C220.038 46.3549 223.542 46.1775 227.091 44.0482C228.732 43.0722 229.93 41.9189 230.728 40.9873" stroke="black" stroke-miterlimit="10" stroke-linecap="round" stroke-linejoin="round"/>
</svg>
