<svg width="586" height="559" viewBox="0 0 586 559" fill="none" xmlns="http://www.w3.org/2000/svg">
<path d="M511.171 309.789C511.171 307.513 513.016 305.668 515.292 305.668H540.049C542.326 305.668 544.171 307.513 544.171 309.789H511.171Z" fill="#0EB80E"/>
<path d="M465.569 320.608C465.568 342.499 465.569 364.389 465.569 386.28C465.569 390.051 465.569 391.937 466.741 393.109C467.912 394.28 469.798 394.28 473.569 394.28H576.5M511.308 315.954H544.262M511.308 315.954V309.789V309.789C511.308 307.627 513.061 305.874 515.223 305.874H536.262C540.034 305.874 541.919 305.874 543.091 307.046C544.262 308.217 544.262 310.103 544.262 313.874V315.954M511.308 315.954H468.171M544.262 315.954H566.171M584.59 379.855C584.59 361.221 584.59 342.588 584.59 323.954C584.59 320.183 584.59 318.298 583.419 317.126C582.247 315.954 580.362 315.954 576.59 315.954H569.171" stroke="black" stroke-linecap="round" stroke-linejoin="round"/>
<path d="M544.785 356.505C544.785 354.628 544.785 353.689 544.203 353.104C543.621 352.519 542.682 352.514 540.805 352.505L536.881 352.484C534.996 352.475 534.054 352.47 533.471 351.882C532.888 351.293 532.893 350.351 532.901 348.466L532.923 343.655C532.932 341.762 532.937 340.815 532.35 340.226C531.764 339.637 530.817 339.637 528.924 339.637H525.85C523.973 339.637 523.034 339.637 522.449 340.219C521.864 340.802 521.859 341.741 521.851 343.618L521.828 348.482C521.819 350.36 521.815 351.299 521.23 351.881C520.645 352.464 519.706 352.464 517.828 352.464H513.967C512.081 352.464 511.138 352.464 510.553 353.05C509.967 353.636 509.967 354.578 509.967 356.464V358.909C509.967 360.795 509.967 361.737 510.553 362.323C511.138 362.909 512.081 362.909 513.967 362.909H517.81C519.695 362.909 520.638 362.909 521.224 363.495C521.81 364.081 521.81 365.023 521.81 366.909V371.736C521.81 373.622 521.81 374.565 522.395 375.15C522.981 375.736 523.924 375.736 525.81 375.736H528.883C530.768 375.736 531.711 375.736 532.297 375.15C532.883 374.565 532.883 373.622 532.883 371.736V366.909C532.883 365.023 532.883 364.081 533.469 363.495C534.054 362.909 534.997 362.909 536.883 362.909H540.785C542.671 362.909 543.613 362.909 544.199 362.323C544.785 361.737 544.785 360.795 544.785 358.909V356.505Z" fill="#0EB80E"/>
<path d="M519.839 343.99L519.851 341.558C519.859 339.68 519.864 338.741 520.449 338.159C521.034 337.576 521.973 337.576 523.85 337.576H526.924C528.817 337.576 529.764 337.576 530.35 338.165C530.937 338.754 530.932 339.701 530.923 341.595L530.901 346.405C530.893 348.29 530.888 349.233 531.471 349.821C532.054 350.409 532.996 350.414 534.881 350.424L538.805 350.444C540.682 350.454 541.621 350.458 542.203 351.044C542.785 351.629 542.785 352.567 542.785 354.444V356.848C542.785 358.734 542.785 359.677 542.199 360.263C541.613 360.848 540.671 360.848 538.785 360.848H534.883C532.997 360.848 532.054 360.848 531.469 361.434C530.883 362.02 530.883 362.963 530.883 364.848V369.676C530.883 371.561 530.883 372.504 530.297 373.09C529.711 373.676 528.768 373.676 526.883 373.676H523.81C521.924 373.676 520.981 373.676 520.395 373.09C519.81 372.504 519.81 371.561 519.81 369.676V364.848C519.81 362.963 519.81 362.02 519.224 361.434C518.638 360.848 517.695 360.848 515.81 360.848H511.967C510.081 360.848 509.138 360.848 508.553 360.263C507.967 359.677 507.967 358.734 507.967 356.848V354.403C507.967 352.518 507.967 351.575 508.553 350.989C509.138 350.403 510.081 350.403 511.967 350.403H515.5" stroke="#333333" stroke-linecap="round" stroke-linejoin="round"/>
<path d="M62.7389 509.584C62.7389 509.584 62.137 504.467 62.2875 502.141C62.4186 500.116 91.4189 500.383 98.9104 500.486C100.049 500.502 101.137 500.911 102.011 501.64L125.684 521.372C126.802 522.304 128.269 522.702 129.719 522.57C132.537 522.313 137.629 522.096 143.02 523.073C147.309 523.848 150.017 529.275 151.372 534.392" stroke="black" stroke-miterlimit="10" stroke-linecap="round" stroke-linejoin="round"/>
<path d="M151.899 543.307C149.867 544.237 63.3413 548.424 61.2346 545.168C60.6326 544.16 60.106 540.826 59.7298 536.562C76.2073 537.415 116.762 538.888 151.297 534.159C152.651 538.656 152.802 542.92 151.899 543.307Z" fill="#0EB80E"/>
<path d="M103.971 488.576L118.191 487.103L98.7795 331.664C75.6056 336.626 46.6382 336.238 16.768 334.998C16.768 334.998 9.46969 379.652 7.81441 394.615C5.25625 417.795 1.1933 487.723 1.1933 487.723L28.7311 488.421" stroke="black" stroke-miterlimit="10" stroke-linecap="round" stroke-linejoin="round"/>
<path d="M87.3429 224.833C88.923 226.073 90.3525 227.546 91.6316 229.252C93.1364 231.267 94.4155 233.748 95.5441 236.539L118.041 222.274C118.041 222.274 148.964 279.876 128.499 299.955C118.793 309.491 105.175 308.328 99.3813 307.242L100.585 322.902C100.585 322.902 99.2308 323.755 96.2212 324.841" stroke="black" stroke-miterlimit="10" stroke-linecap="round" stroke-linejoin="round"/>
<path d="M40.5 315.969C-22 286.603 4.11832 225.672 39.2637 218.708" stroke="black" stroke-miterlimit="10" stroke-linecap="round" stroke-linejoin="round"/>
<path d="M67.0283 332.208C41.7477 334.612 18.5738 329.882 18.5738 329.882C19.2427 323.162 20.5178 309.787 20.5178 309.787" stroke="black" stroke-miterlimit="10" stroke-linecap="round" stroke-linejoin="round"/>
<path d="M52.4998 299.483C57.9998 302.575 67.0002 305.666 76.4998 306.696C78.5619 306.92 80.7077 308.631 80 310.818C79.1664 313.393 74.9998 313.393 74.9998 313.393M74.9998 313.393C74.9998 313.393 78.4998 314.424 77.9998 317C77.4998 319.576 73.9997 319.643 73.9997 319.643M74.9998 313.393C70 312.878 61.4999 310.818 58.4998 308.757M73.9997 319.643C73.9997 319.643 76.1351 320.774 76.4998 322.152C77.9998 327.819 52.4999 324.976 44.4998 314.424M73.9997 319.643C68.8728 319.155 60.9998 317.515 56.4998 315.454" stroke="black" stroke-miterlimit="10" stroke-linecap="round" stroke-linejoin="round"/>
<path d="M36.9072 248.995C28.7752 255.647 29.2554 271.242 37.7696 277.005" stroke="black" stroke-miterlimit="10" stroke-linecap="round" stroke-linejoin="round"/>
<path d="M80.0441 174.21C81.248 178.086 83.0537 184.443 83.8813 190.8" stroke="black" stroke-miterlimit="10" stroke-linecap="round" stroke-linejoin="round"/>
<path d="M81.0981 208.4C79.2924 210.958 77.0352 212.276 74.5523 212.741V212.819C74.4018 212.896 74.2513 212.896 74.0256 212.974C69.8874 214.292 63.191 214.757 53.5603 209.408L53.6356 204.291C53.6356 204.291 47.6164 206.152 43.8544 200.26C42.8763 198.709 42.3495 197.159 42.1238 195.686" stroke="black" stroke-miterlimit="10" stroke-linecap="round" stroke-linejoin="round"/>
<path d="M57.8486 208.243C61.9116 215.608 71.3165 217.779 75.229 218.244L74.5519 212.662C74.4766 212.662 68.3069 214.988 57.8486 208.243Z" fill="black"/>
<path d="M53.7104 187.932C53.7104 187.932 54.4628 192.971 57.2467 191.265C60.0305 189.56 54.0866 180.102 54.0866 180.102C54.0866 180.102 61.4601 183.125 66.5012 177.001C71.467 170.876 69.4355 166.767 69.4355 166.767L79.6681 172.969C79.6681 172.969 82.452 160.255 78.8405 157.697C75.229 155.061 68.9088 157.232 68.9088 157.232C68.9088 157.232 69.5108 151.727 58.9772 152.58C48.4436 153.433 48.2179 164.596 48.2179 164.596C48.2179 164.596 41.371 163.976 38.7376 170.178C36.1042 176.458 40.1672 181.575 40.1672 181.575C40.1672 181.575 35.2014 182.505 37.3081 187.001C39.3396 191.498 42.1987 193.668 42.1987 193.668C42.1987 193.668 43.9292 184.52 53.7104 187.932Z" stroke="black" stroke-miterlimit="10" stroke-linecap="round" stroke-linejoin="round"/>
<path d="M51.2275 188.318C51.2275 188.318 51.9799 193.357 54.7638 191.652C57.5477 189.946 51.6037 180.488 51.6037 180.488C51.6037 180.488 58.9772 183.512 64.0183 177.387C68.9841 171.263 66.9526 167.154 66.9526 167.154L77.1853 173.356C77.1853 173.356 79.9691 160.642 76.3576 158.083C72.7461 155.448 66.426 157.618 66.426 157.618C66.426 157.618 67.0279 152.114 56.4943 152.967C45.9607 153.819 45.735 164.983 45.735 164.983C45.735 164.983 38.8881 164.363 36.2547 170.565C33.6213 176.845 37.6843 181.961 37.6843 181.961C37.6843 181.961 32.7185 182.892 34.8252 187.388C36.8567 191.884 39.7158 194.055 39.7158 194.055C39.7158 194.055 41.4463 184.83 51.2275 188.318Z" fill="black"/>
<path d="M4.65412 530.438C4.65412 522.382 7.49117 511.897 8.6292 508.015C8.92851 506.994 9.06714 505.941 9.04099 504.877C8.99916 503.176 8.97535 500.533 9.16852 499.041C9.41652 497.124 35.3635 498.998 44.4869 499.717C46.524 499.877 48.4232 500.738 49.9046 502.145L70.79 521.988" stroke="black" stroke-miterlimit="10" stroke-linecap="round" stroke-linejoin="round"/>
<path d="M72.9719 524.004C72.9719 524.004 80.4959 523.229 88.4713 525.244C92.6848 526.252 95.0924 531.912 96.0706 537.106C96.9734 541.757 96.7477 545.944 95.7696 546.254" stroke="black" stroke-miterlimit="10" stroke-linecap="round" stroke-linejoin="round"/>
<path d="M95.3937 546.1C93.287 546.875 6.6858 545.324 4.8048 541.913C4.20288 540.905 3.97717 537.494 3.82669 533.23C20.229 535.169 60.6328 539.355 95.3937 536.952C96.4471 541.448 96.3718 545.712 95.3937 546.1Z" fill="#0EB80E"/>
<path d="M97.35 232.431C96.1462 230.415 94.1899 227.392 92.1584 225.221C88.3965 221.267 85.8383 216.306 84.8602 210.879C84.6345 209.716 84.484 208.553 84.3335 207.39C83.5059 200.956 83.7316 195.606 85.0859 194.443C85.6878 193.901 86.2898 193.746 86.8164 193.746C89.4498 193.978 91.406 199.328 91.406 199.328M91.406 199.328C91.406 199.328 87.945 193.591 90.0517 190.955C92.1585 188.319 95.77 195.839 95.77 195.839M91.406 199.328C93.2612 205.417 94.5078 208.773 97.4073 214.499M95.77 195.839C95.77 195.839 95.1681 189.404 98.4034 191.342C99.1558 191.808 99.6824 192.505 100.059 193.281C101.864 197.312 109.539 213.592 113.978 221.422M95.77 195.839C97.8947 202.665 99.2322 206.436 102.384 212.79" stroke="black" stroke-miterlimit="10" stroke-linecap="round" stroke-linejoin="round"/>
<mask id="mask0_283_688" style="mask-type:alpha" maskUnits="userSpaceOnUse" x="46" y="209" width="38" height="58">
<path d="M52.6568 210.182C52.6568 210.182 49.9482 210.957 48.8948 211.345C47.7662 211.732 44.3805 220.88 47.6158 224.524C50.8511 228.168 58.6008 231.346 65.8238 231.346C79.668 231.346 83.3548 223.439 83.3548 223.439L79.8185 209.949C79.7432 209.949 70.8649 220.415 52.6568 210.182Z" fill="#0EB80E"/>
<path d="M51.5288 224.446C51.5288 224.446 45.3591 257.317 46.1868 259.332C46.9392 261.348 60.5576 262.511 62.2881 261.736C64.0939 260.96 58.8271 226.229 58.8271 226.229L51.5288 224.446Z" fill="#0EB80E"/>
<path d="M55.7428 226.229C55.7428 226.229 56.42 247.006 59.1286 248.168C61.8373 249.331 72.8223 250.184 74.4776 248.168C76.1328 246.153 65.2983 225.996 65.2983 225.996L55.7428 226.229Z" fill="#0EB80E"/>
<path d="M47.6162 266.233C47.1648 266.233 46.7133 265.845 46.7133 265.303V257.318C46.7133 256.852 47.0895 256.387 47.6162 256.387C48.0676 256.387 48.519 256.775 48.519 257.318V265.303C48.519 265.845 48.1429 266.233 47.6162 266.233Z" fill="#0EB80E"/>
<path d="M52.6578 266.775C52.2064 266.775 51.755 266.388 51.755 265.845V258.868C51.755 258.403 52.1311 257.938 52.6578 257.938C53.1092 257.938 53.5607 258.325 53.5607 258.868V265.845C53.5607 266.388 53.1092 266.775 52.6578 266.775Z" fill="#0EB80E"/>
<path d="M58.8276 266.775C58.3762 266.775 58 266.465 58 266L57.0219 259.023C56.9466 258.557 57.2476 258.092 57.7743 258.015C58.2257 257.937 58.6771 258.247 58.7524 258.79L59.7305 265.767C59.8057 266.232 59.5048 266.698 58.9781 266.775C58.9028 266.775 58.9028 266.775 58.8276 266.775Z" fill="#0EB80E"/>
<path d="M63.8685 266.774C63.4923 266.774 63.1914 266.542 63.0409 266.232L61.4608 262.123C61.3104 261.658 61.5361 261.115 61.9875 260.96C62.439 260.805 62.9657 261.038 63.1161 261.503L64.6962 265.612C64.8466 266.077 64.621 266.619 64.1695 266.774C64.0943 266.774 64.019 266.774 63.8685 266.774Z" fill="#0EB80E"/>
<path d="M65.4481 254.449C65.0719 254.449 64.6957 254.216 64.6205 253.828L62.8147 247.781C62.6642 247.316 62.9652 246.774 63.4167 246.696C63.8681 246.541 64.3948 246.851 64.5453 247.316L66.351 253.363C66.5015 253.828 66.2005 254.371 65.7491 254.449C65.5986 254.371 65.5234 254.449 65.4481 254.449Z" fill="#0EB80E"/>
<path d="M71.4676 254.449C71.1666 254.449 70.7904 254.216 70.64 253.906L68.0818 247.859C67.8561 247.394 68.0818 246.851 68.5332 246.696C68.9847 246.463 69.5114 246.696 69.6618 247.161L72.22 253.208C72.4457 253.673 72.22 254.216 71.7686 254.371C71.6933 254.371 71.6181 254.449 71.4676 254.449Z" fill="#0EB80E"/>
<path d="M75.907 253.595C75.6061 253.595 75.3051 253.44 75.1546 253.13L72.3707 247.936C72.145 247.471 72.2955 246.928 72.7469 246.696C73.1984 246.463 73.7251 246.618 73.9508 247.083L76.7346 252.278C76.9604 252.743 76.8099 253.285 76.3584 253.518C76.208 253.595 76.0575 253.595 75.907 253.595Z" fill="#0EB80E"/>
</mask>
<g mask="url(#mask0_283_688)">
<path d="M52.6568 210.182C52.6568 210.182 49.9482 210.957 48.8948 211.345C47.7662 211.732 44.3805 220.88 47.6158 224.524C50.8511 228.168 58.6008 231.346 65.8238 231.346C79.668 231.346 83.3548 223.439 83.3548 223.439L79.8185 209.949C79.7432 209.949 70.8649 220.415 52.6568 210.182Z" fill="#0EB80E"/>
<path d="M51.5288 224.446C51.5288 224.446 45.3591 257.317 46.1868 259.332C46.9392 261.348 60.5576 262.511 62.2881 261.736C64.0939 260.96 58.8271 226.229 58.8271 226.229L51.5288 224.446Z" fill="#0EB80E"/>
<path d="M55.7428 226.229C55.7428 226.229 56.42 247.006 59.1286 248.168C61.8373 249.331 72.8223 250.184 74.4776 248.168C76.1328 246.153 65.2983 225.996 65.2983 225.996L55.7428 226.229Z" fill="#0EB80E"/>
<path d="M47.6162 266.233C47.1648 266.233 46.7133 265.845 46.7133 265.303V257.318C46.7133 256.852 47.0895 256.387 47.6162 256.387C48.0676 256.387 48.519 256.775 48.519 257.318V265.303C48.519 265.845 48.1429 266.233 47.6162 266.233Z" fill="#0EB80E"/>
<path d="M52.6578 266.775C52.2064 266.775 51.755 266.388 51.755 265.845V258.868C51.755 258.403 52.1311 257.938 52.6578 257.938C53.1092 257.938 53.5607 258.325 53.5607 258.868V265.845C53.5607 266.388 53.1092 266.775 52.6578 266.775Z" fill="#0EB80E"/>
<path d="M58.8276 266.775C58.3762 266.775 58 266.465 58 266L57.0219 259.023C56.9466 258.557 57.2476 258.092 57.7743 258.015C58.2257 257.937 58.6771 258.247 58.7524 258.79L59.7305 265.767C59.8057 266.232 59.5048 266.698 58.9781 266.775C58.9028 266.775 58.9028 266.775 58.8276 266.775Z" fill="#0EB80E"/>
<path d="M63.8685 266.774C63.4923 266.774 63.1914 266.542 63.0409 266.232L61.4608 262.123C61.3104 261.658 61.5361 261.115 61.9875 260.96C62.439 260.805 62.9657 261.038 63.1161 261.503L64.6962 265.612C64.8466 266.077 64.621 266.619 64.1695 266.774C64.0943 266.774 64.019 266.774 63.8685 266.774Z" fill="#0EB80E"/>
<path d="M65.4481 254.449C65.0719 254.449 64.6957 254.216 64.6205 253.828L62.8147 247.781C62.6642 247.316 62.9652 246.774 63.4167 246.696C63.8681 246.541 64.3948 246.851 64.5453 247.316L66.351 253.363C66.5015 253.828 66.2005 254.371 65.7491 254.449C65.5986 254.371 65.5234 254.449 65.4481 254.449Z" fill="#0EB80E"/>
<path d="M71.4676 254.449C71.1666 254.449 70.7904 254.216 70.64 253.906L68.0818 247.859C67.8561 247.394 68.0818 246.851 68.5332 246.696C68.9847 246.463 69.5114 246.696 69.6618 247.161L72.22 253.208C72.4457 253.673 72.22 254.216 71.7686 254.371C71.6933 254.371 71.6181 254.449 71.4676 254.449Z" fill="#0EB80E"/>
<path d="M75.907 253.595C75.6061 253.595 75.3051 253.44 75.1546 253.13L72.3707 247.936C72.145 247.471 72.2955 246.928 72.7469 246.696C73.1984 246.463 73.7251 246.618 73.9508 247.083L76.7346 252.278C76.9604 252.743 76.8099 253.285 76.3584 253.518C76.208 253.595 76.0575 253.595 75.907 253.595Z" fill="#0EB80E"/>
<path d="M46 214.992L51 212.932L56 214.992L61 212.932L66 214.992L71 212.932L76 214.992L81 212.932L86 214.992" stroke="#F4FAFA" stroke-linecap="round" stroke-linejoin="round"/>
<path d="M46 220.144L51 218.083L56 220.144L61 218.083L66 220.144L71 218.083L76 220.144L81 218.083L86 220.144" stroke="#F4FAFA" stroke-linecap="round" stroke-linejoin="round"/>
<path d="M46 225.296L51 223.235L56 225.296L61 223.235L66 225.296L71 223.235L76 225.296L81 223.235L86 225.296" stroke="#F4FAFA" stroke-linecap="round" stroke-linejoin="round"/>
<path d="M46 230.448L51 228.388L56 230.448L61 228.388L66 230.448L71 228.388L76 230.448L81 228.388L86 230.448" stroke="#F4FAFA" stroke-linecap="round" stroke-linejoin="round"/>
<path d="M46 235.6L51 233.539L56 235.6L61 233.539L66 235.6L71 233.539L76 235.6L81 233.539L86 235.6" stroke="#F4FAFA" stroke-linecap="round" stroke-linejoin="round"/>
<path d="M46 240.752L51 238.691L56 240.752L61 238.691L66 240.752L71 238.691L76 240.752L81 238.691L86 240.752" stroke="#F4FAFA" stroke-linecap="round" stroke-linejoin="round"/>
<path d="M46 245.904L51 243.843L56 245.904L61 243.843L66 245.904L71 243.843L76 245.904L81 243.843L86 245.904" stroke="#F4FAFA" stroke-linecap="round" stroke-linejoin="round"/>
<path d="M46 251.055L51 248.994L56 251.055L61 248.994L66 251.055L71 248.994L76 251.055L81 248.994L86 251.055" stroke="#F4FAFA" stroke-linecap="round" stroke-linejoin="round"/>
<path d="M46 256.207L51 254.146L56 256.207L61 254.146L66 256.207L71 254.146L76 256.207L81 254.146L86 256.207" stroke="#F4FAFA" stroke-linecap="round" stroke-linejoin="round"/>
<path d="M46 261.36L51 259.299L56 261.36L61 259.299L66 261.36L71 259.299L76 261.36L81 259.299L86 261.36" stroke="#F4FAFA" stroke-linecap="round" stroke-linejoin="round"/>
<path d="M46 266.511L51 264.45L56 266.511L61 264.45L66 266.511L71 264.45L76 266.511L81 264.45L86 266.511" stroke="#F4FAFA" stroke-linecap="round" stroke-linejoin="round"/>
</g>
<path d="M51.9047 226.384C50.5503 225.531 49.3465 224.601 48.5189 223.67C45.2836 220.027 48.6694 210.879 49.798 210.491C50.9266 210.104 53.56 209.328 53.56 209.328C71.768 219.562 80.6463 209.096 80.6463 209.096L84.1826 222.585C84.1826 222.585 80.9473 229.64 68.9089 230.415C71.9938 236.54 76.5081 245.998 75.3795 247.316L77.5615 251.425C77.7872 251.89 77.6368 252.432 77.1853 252.665C77.0348 252.743 76.8843 252.743 76.7338 252.743C76.4329 252.743 76.1319 252.587 75.9814 252.277L73.7242 248.091C73.0471 248.246 72.2947 248.324 71.4671 248.401L73.1223 252.277C73.3481 252.743 73.1224 253.285 72.6709 253.44C72.5204 253.518 72.4452 253.518 72.2947 253.518C71.9938 253.518 71.6175 253.285 71.4671 252.975L69.5108 248.479C68.307 248.479 67.0279 248.401 65.8241 248.324L67.0279 252.355C67.1784 252.82 66.8775 253.363 66.426 253.44C66.3508 253.44 66.2755 253.44 66.2003 253.44C65.8241 253.44 65.4479 253.208 65.3726 252.82L63.9431 248.013C63.4916 247.936 63.0402 247.858 62.5887 247.858C63.1907 253.285 63.5669 258.092 63.3411 259.952C63.5669 260.03 63.7926 260.185 63.8678 260.495L65.4479 264.604C65.5983 265.069 65.3727 265.612 64.9212 265.767C64.846 265.844 64.6955 265.844 64.6202 265.844C64.244 265.844 63.9431 265.612 63.7926 265.302L62.2125 261.193C62.2125 261.115 62.2125 261.115 62.2125 261.038C61.6106 261.115 60.8582 261.115 59.8801 261.115L60.4068 264.914C60.4821 265.379 60.1811 265.844 59.6544 265.922C59.5792 265.922 59.5792 265.922 59.5039 265.922C59.0525 265.922 58.6763 265.612 58.6763 265.147L58.0744 261.038C56.8705 260.96 55.5162 260.805 54.2371 260.65V264.992C54.2371 265.457 53.8609 265.922 53.3342 265.922C52.8828 265.922 52.4314 265.534 52.4314 264.992V260.418C51.2275 260.185 50.0989 259.952 49.1208 259.72V264.449C49.1208 264.914 48.7446 265.379 48.2179 265.379C47.7665 265.379 47.3151 264.992 47.3151 264.449V259.022C47.0141 258.867 46.8636 258.634 46.7884 258.479C46.4122 256.851 50.4751 234.291 51.9047 226.384Z" stroke="black" stroke-miterlimit="10" stroke-linecap="round" stroke-linejoin="round"/>
<path d="M61.8362 231.967L62.9648 245.146" stroke="black" stroke-miterlimit="10" stroke-linecap="round" stroke-linejoin="round"/>
<path d="M67.103 230.493C61.8362 230.493 58.3752 229.485 53.6351 227.392" stroke="black" stroke-miterlimit="10" stroke-linecap="round" stroke-linejoin="round"/>
<path d="M54.8383 509.662L47.7657 516.95L64.8452 519.12" stroke="black" stroke-miterlimit="10" stroke-linecap="round" stroke-linejoin="round"/>
<path d="M108.635 509.586L102.014 517.261L119.168 518.346" stroke="black" stroke-miterlimit="10" stroke-linecap="round" stroke-linejoin="round"/>
<path d="M90.8037 343.912L66.3507 353.138L64.4697 488.032" stroke="black" stroke-miterlimit="10" stroke-linecap="round" stroke-linejoin="round"/>
<path d="M31.9663 340.89V342.363C31.9663 348.72 26.9253 353.914 20.7556 353.914" stroke="black" stroke-miterlimit="10" stroke-linecap="round" stroke-linejoin="round"/>
<path d="M76.9585 200.181C76.9585 200.181 71.6165 200.878 71.5412 202.119C71.3907 203.437 76.507 203.592 76.507 203.592L76.9585 200.181Z" stroke="black" stroke-miterlimit="10" stroke-linejoin="round"/>
<path d="M67.3282 183.512L67.9302 190.877" stroke="black" stroke-miterlimit="10" stroke-linecap="round" stroke-linejoin="round"/>
<path d="M78.7648 183.125L79.3667 190.335" stroke="black" stroke-miterlimit="10" stroke-linecap="round" stroke-linejoin="round"/>
<path d="M46.4874 190.181L52.958 197.933" stroke="black" stroke-miterlimit="10" stroke-linecap="round" stroke-linejoin="round"/>
<path d="M45.6607 195.375L50.4761 194.91" stroke="black" stroke-miterlimit="10" stroke-linecap="round" stroke-linejoin="round"/>
<path d="M81.1719 179.557C79.1404 177.386 77.1089 176.921 75.2279 179.402" stroke="black" stroke-miterlimit="10" stroke-linecap="round" stroke-linejoin="round"/>
<path d="M69.6616 179.249C67.1035 178.551 65.072 179.016 64.0186 181.42" stroke="black" stroke-miterlimit="10" stroke-linecap="round" stroke-linejoin="round"/>
<path d="M74.7019 186.925C77.1848 189.328 78.1629 192.119 76.6581 195.608" stroke="black" stroke-miterlimit="10" stroke-linecap="round" stroke-linejoin="round"/>
<path d="M99.0049 176.38L91.0294 184.675" stroke="black" stroke-miterlimit="10" stroke-linecap="round" stroke-linejoin="round"/>
<path d="M116.687 177.544L100.284 188.242" stroke="black" stroke-miterlimit="10" stroke-linecap="round" stroke-linejoin="round"/>
<path d="M95.6185 186.537L107.356 177.544" stroke="black" stroke-miterlimit="10" stroke-linecap="round" stroke-linejoin="round"/>
<path d="M97 276.3L98.8828 301.029" stroke="black" stroke-miterlimit="10" stroke-linecap="round" stroke-linejoin="round"/>
<path d="M34.5209 312.456L50.591 287.704L42.0612 282.4L25.8594 307.508L34.5209 312.456Z" fill="#0EB80E"/>
<path d="M50.591 287.704L34.5209 312.456L25.8594 307.508L42.0612 282.4" stroke="black" stroke-miterlimit="10" stroke-linecap="round" stroke-linejoin="round"/>
<path d="M97.3489 240.261L120.598 227.392L124.812 236.695L101.487 249.331" fill="#0EB80E"/>
<path d="M97.3489 240.261L120.598 227.392L124.812 236.695L101.487 249.331" stroke="black" stroke-miterlimit="10" stroke-linecap="round" stroke-linejoin="round"/>
<mask id="mask1_283_688" style="mask-type:alpha" maskUnits="userSpaceOnUse" x="251" y="75" width="238" height="178">
<path d="M346.264 82.3854C346.264 82.3854 339.443 83.3792 333.656 88.1354C332.181 89.3625 330.783 90.7408 329.522 92.1106C325.894 96.0502 323.39 99.9195 323.39 99.9195L314.916 134.562C314.916 134.562 313.146 169.011 311.721 199.595C310.599 223.652 309.691 245.317 310.025 245.943C310.783 247.362 322.77 252.048 324.699 252.048C325.883 252.091 326.548 216.973 326.853 189.623C327.046 172.393 327.095 158.246 327.042 157.917C326.904 157.065 321.324 141.732 325.182 128.386C327.478 120.584 330.904 108.73 335.336 98.7389C338.485 91.64 342.143 85.4816 346.264 82.3854Z" fill="#0EB80E"/>
<path d="M380.367 75.6403C377.405 75.2144 374.373 75.2144 371.48 75.9242C370.102 76.2082 368.93 76.7051 368.793 77.273C368.31 78.8348 378.851 250.414 380.092 251.407C381.332 252.401 402.551 253.04 416.606 247.574C430.661 242.108 435.621 236.003 436.31 234.299C436.93 232.595 412.886 102.9 411.37 97.7177C409.854 92.6775 405.032 79.4027 380.367 75.6403Z" fill="#0EB80E"/>
<path d="M380.367 75.6423C380.367 75.6423 463.18 82.4572 485.295 121.998C502.726 153.304 447.54 210.094 447.54 210.094L420.258 177.937L380.367 75.6423Z" fill="#0EB80E"/>
<path d="M329.522 92.1106C324.582 97.0703 316.072 106.5 308.302 119.44C296.383 139.175 294.868 137.897 291.905 139.885C288.943 141.872 259.455 138.82 256.079 139.885C252.703 140.95 251.463 196.037 251.463 196.037C251.463 196.037 282.191 208.318 306.029 201.645C307.982 201.098 309.88 200.406 311.721 199.595C313.146 169.011 314.916 134.562 314.916 134.562L323.39 99.9195C323.39 99.9195 325.894 96.0502 329.522 92.1106Z" fill="#0EB80E"/>
</mask>
<g mask="url(#mask1_283_688)">
<path d="M346.264 82.3854C346.264 82.3854 339.443 83.3792 333.656 88.1354C332.181 89.3625 330.783 90.7408 329.522 92.1106C325.894 96.0502 323.39 99.9195 323.39 99.9195L314.916 134.562C314.916 134.562 313.146 169.011 311.721 199.595C310.599 223.652 309.691 245.317 310.025 245.943C310.783 247.362 322.77 252.048 324.699 252.048C325.883 252.091 326.548 216.973 326.853 189.623C327.046 172.393 327.095 158.246 327.042 157.917C326.904 157.065 321.324 141.732 325.182 128.386C327.478 120.584 330.904 108.73 335.336 98.7389C338.485 91.64 342.143 85.4816 346.264 82.3854Z" fill="#0EB80E"/>
<path d="M380.367 75.6403C377.405 75.2144 374.373 75.2144 371.48 75.9242C370.102 76.2082 368.93 76.7051 368.793 77.273C368.31 78.8348 378.851 250.414 380.092 251.407C381.332 252.401 402.551 253.04 416.606 247.574C430.661 242.108 435.621 236.003 436.31 234.299C436.93 232.595 412.886 102.9 411.37 97.7177C409.854 92.6775 405.032 79.4027 380.367 75.6403Z" fill="#0EB80E"/>
<path d="M380.367 75.6423C380.367 75.6423 463.18 82.4572 485.295 121.998C502.726 153.304 447.54 210.094 447.54 210.094L420.258 177.937L380.367 75.6423Z" fill="#0EB80E"/>
<path d="M329.522 92.1106C324.582 97.0703 316.072 106.5 308.302 119.44C296.383 139.175 294.868 137.897 291.905 139.885C288.943 141.872 259.455 138.82 256.079 139.885C252.703 140.95 251.463 196.037 251.463 196.037C251.463 196.037 282.191 208.318 306.029 201.645C307.982 201.098 309.88 200.406 311.721 199.595C313.146 169.011 314.916 134.562 314.916 134.562L323.39 99.9195C323.39 99.9195 325.894 96.0502 329.522 92.1106Z" fill="#0EB80E"/>
<path d="M257.456 123.323L378.439 247.98M248.445 76.4617L414.907 247.98M288.626 76.4622L455.088 247.98M335.429 76.4622L501.891 247.98M376.493 76.4622L542.955 247.98M414.024 76.4622L580.486 247.98M214.448 123.323L335.43 247.98M510.543 123.323L389.56 247.98M519.553 76.4616L353.092 247.98M479.373 76.4621L312.911 247.98M432.57 76.4621L266.108 247.98M391.506 76.4621L225.044 247.98M353.975 76.4621L187.513 247.98M553.551 123.323L432.569 247.98" stroke="#F4FAFA" stroke-width="2" stroke-linecap="round"/>
</g>
<path d="M439.202 208.46C438.927 212.009 438.927 216.269 439.891 221.096C440.925 226.42 442.027 232.383 446.505 237.565C449.054 240.547 451.741 242.037 451.259 243.173C450.708 244.593 445.816 244.167 443.611 243.244C436.86 240.334 436.86 240.334 436.86 240.334C436.86 240.334 451.052 249.136 441.2 249.846C431.279 250.556 427.834 243.244 427.834 243.244C427.834 243.244 432.864 247.646 431.761 250.059C431.417 250.84 430.452 251.124 429.97 251.337C428.248 251.976 426.732 251.408 425.561 250.982C423.149 250.059 421.565 248.426 420.669 247.291" stroke="black" stroke-miterlimit="10" stroke-linecap="round" stroke-linejoin="round"/>
<path d="M348.812 480.275C341.302 479.92 298.104 479.352 297.898 478.429C297.562 476.777 300.323 370.042 300.323 370.042C300.323 370.042 317.147 277.066 318.98 258.862C318.98 258.649 323.182 256.732 323.182 256.732" stroke="black" stroke-miterlimit="10" stroke-linecap="round" stroke-linejoin="round"/>
<path d="M423.633 251.763C424.253 258.578 424.598 265.747 424.391 272.988C423.702 305.714 414.263 355.477 415.71 359.168C416.261 360.588 419.913 376.134 424.115 394.591L438.79 459.404L428.525 462.456" stroke="black" stroke-miterlimit="10" stroke-linecap="round" stroke-linejoin="round"/>
<path d="M366.175 507.748C366.106 498.874 365.83 491.634 364.659 491.705C364.061 491.719 362.346 492.104 360 492.704L361 508.884L366.175 507.748Z" fill="#0EB80E"/>
<path fill-rule="evenodd" clip-rule="evenodd" d="M446.229 508.602C447.4 511.654 446.229 514.99 443.542 516.268L426.5 472.726C428.455 471.329 429.902 470.358 430.451 470.126C432.027 469.498 437.349 484.238 441.887 496.803C443.502 501.275 445.017 505.471 446.229 508.602Z" fill="#0EB80E"/>
<path d="M364.659 491.704C364.061 491.719 362.346 492.103 360 492.704C350.993 495.011 332.692 500.507 332.692 500.507C332.692 500.507 331.52 482.689 319.533 486.096C310.301 488.723 299.829 500.294 295.419 505.476C294.041 507.109 292.25 508.316 290.252 508.883C281.709 511.226 258.147 518.964 258.009 532.097C257.871 548.14 264.072 546.152 266.965 546.152C268.894 546.152 310.438 543.242 339.168 541.183" stroke="black" stroke-miterlimit="10" stroke-linecap="round" stroke-linejoin="round"/>
<path d="M443.542 516.267C425.215 524.999 360.316 555.808 357.973 556.731C355.286 557.867 350.119 561.984 344.745 546.934C340.336 534.653 359.696 518.823 366.861 513.428C368.514 512.221 369.754 510.446 370.512 508.388C372.786 501.857 378.642 487.233 386.358 481.412C396.348 473.816 403.582 490.073 403.582 490.073C403.582 490.073 418.889 478.165 426.5 472.725C428.455 471.328 429.902 470.357 430.451 470.125" stroke="black" stroke-miterlimit="10" stroke-linecap="round" stroke-linejoin="round"/>
<path d="M325.801 215.987C331.381 216.768 338.133 217.193 345.78 216.626C355.081 215.987 362.935 214.141 368.998 212.153" stroke="black" stroke-miterlimit="10" stroke-linecap="round" stroke-linejoin="round"/>
<path d="M305.683 238.774C305.546 243.104 305.546 245.731 305.615 245.944C306.372 247.364 318.36 252.049 320.289 252.049C321.46 252.049 322.149 216.91 322.425 189.508C322.632 172.329 322.701 158.202 322.632 157.918C322.494 157.066 316.913 141.733 320.772 128.387C322.976 120.578 326.421 108.723 330.83 98.785C333.999 91.6862 337.651 85.5102 341.785 82.3867C341.785 82.3867 334.964 83.3806 329.177 88.1368L329.108 88.2078L329.039 88.2787C329.039 88.2787 328.97 88.3497 328.901 88.4207C328.832 88.4917 328.832 88.4917 328.763 88.5627C328.695 88.6337 328.626 88.7047 328.557 88.7757C327.592 89.6275 326.628 90.4794 325.732 91.4732L325.663 91.5442C320.84 96.3004 311.953 106.026 303.754 119.514C291.835 139.248 290.32 137.971 287.357 139.958C284.326 141.946 254.907 138.893 251.532 139.958C250.843 140.171 250.223 142.656 249.74 146.418" stroke="black" stroke-miterlimit="10" stroke-linecap="round" stroke-linejoin="round"/>
<path d="M247.054 191.14C246.985 194.192 246.917 196.109 246.917 196.109C246.917 196.109 277.644 208.39 301.482 201.717C303.48 201.149 305.409 200.439 307.338 199.587C307.062 205.195 306.856 210.661 306.58 215.844" stroke="black" stroke-miterlimit="10" stroke-linecap="round" stroke-linejoin="round"/>
<path d="M339.304 79.8304L339.235 73.7254C334.894 73.3704 330.692 71.0278 327.936 64.7099C327.04 62.5802 326.42 60.1666 326.076 57.54" stroke="black" stroke-miterlimit="10" stroke-linecap="round" stroke-linejoin="round"/>
<path d="M372.099 42.3467C374.373 45.2572 375.475 50.2264 372.995 55.2666C369.343 62.5074 362.178 61.1586 362.178 61.1586L363.763 73.4396" stroke="black" stroke-miterlimit="10" stroke-linecap="round" stroke-linejoin="round"/>
<path d="M320.221 34.7519C320.083 46.8909 327.937 53.4218 327.937 53.4218C327.799 45.968 328.419 38.7982 329.797 31.9123L334.482 19.9153C334.482 19.9153 334.551 24.5296 342.75 34.4679C343.025 34.7519 343.232 35.1068 343.508 35.3908C352.395 45.968 362.316 42.1347 362.316 42.1347C364.245 40.7859 366.174 39.792 367.965 39.5081C369.412 39.2951 370.79 39.5081 372.168 40.3599C372.306 40.4309 372.444 40.5019 372.581 40.6439L372.65 40.5019C372.65 40.5019 372.719 39.792 372.788 38.6562C376.302 38.7982 380.16 38.0883 383.26 35.3198C388.703 30.4926 395.317 8.48619 379.678 1.88427C367.483 -3.29788 359.974 9.48002 357.287 15.3011C354.324 13.8103 344.954 9.76398 332.071 11.3257C316.432 13.3844 323.321 23.3937 323.321 23.3937C323.321 23.3937 320.29 26.5882 320.221 34.7519Z" fill="#BDCCD4"/>
<path d="M383.26 35.3198C380.16 38.0883 376.302 38.7982 372.788 38.6562C372.365 25.543 369.155 20.5143 357.287 15.3011C359.974 9.48003 367.483 -3.29788 379.678 1.88427C395.317 8.48619 388.703 30.4926 383.26 35.3198Z" fill="#ACBDC6"/>
<path d="M318.016 34.7519C317.878 46.8909 325.733 53.4218 325.733 53.4218C325.595 45.968 326.215 38.7982 327.593 31.9123L332.278 19.9153C332.278 19.9153 332.347 24.5295 340.545 34.4679C340.821 34.7519 341.027 35.1068 341.303 35.3908C350.19 45.968 360.111 42.1347 360.111 42.1347C362.04 40.7859 363.97 39.792 365.761 39.5081C367.208 39.2951 368.586 39.5081 369.963 40.3599C370.101 40.4309 370.239 40.5019 370.377 40.6439L370.446 40.5019C370.446 40.5019 370.515 39.792 370.584 38.6562C374.097 38.7982 377.955 38.0883 381.056 35.3198C386.498 30.4926 393.112 8.48619 377.473 1.88427C365.279 -3.29788 357.769 9.48002 355.082 15.3011C352.12 13.8103 342.75 9.76398 329.866 11.3257C314.089 13.2424 321.048 23.2518 321.048 23.2518C321.048 23.2518 318.085 26.5882 318.016 34.7519Z" stroke="black" stroke-miterlimit="10" stroke-linecap="round" stroke-linejoin="round"/>
<path d="M343.025 62.6494C341.549 63.8374 339.144 64.1934 336.48 64.2821" stroke="black" stroke-miterlimit="10" stroke-linecap="round" stroke-linejoin="round"/>
<path d="M341 42.9189L343.825 45.3325L342.998 50.7986" stroke="black" stroke-miterlimit="10" stroke-linecap="round" stroke-linejoin="round"/>
<path d="M326.903 44.126L329.108 45.9717L328.35 51.5798" stroke="black" stroke-miterlimit="10" stroke-linecap="round" stroke-linejoin="round"/>
<path d="M335.516 44.2656C333.173 48.9509 333.449 52.7842 334.964 56.1917" stroke="black" stroke-miterlimit="10" stroke-linecap="round" stroke-linejoin="round"/>
<path d="M326.904 36.9527C326.973 36.9527 327.042 36.9527 327.179 36.8818L331.313 35.462C331.726 35.32 331.933 34.8231 331.795 34.3972C331.658 33.9712 331.175 33.7583 330.762 33.9002L326.628 35.32C326.215 35.462 326.008 35.9589 326.146 36.3848C326.284 36.7398 326.559 36.9527 326.904 36.9527Z" fill="#ACBDC6"/>
<path d="M344.954 36.9542C345.299 36.9542 345.574 36.7413 345.712 36.3863C345.85 35.9604 345.643 35.4635 345.23 35.3215L339.236 33.3338C338.822 33.1919 338.34 33.4048 338.202 33.8308C338.064 34.2567 338.271 34.7536 338.685 34.8956L344.678 36.8833C344.816 36.9542 344.885 36.9542 344.954 36.9542Z" fill="#ACBDC6"/>
<path d="M325.319 56.7602C325.663 56.7602 326.077 56.7602 326.421 56.6892C330.348 55.9794 332.897 51.7201 332.14 47.1058C331.382 42.5626 327.524 39.4391 323.665 40.078C319.738 40.7879 317.189 45.0472 317.947 49.6614C318.636 53.7787 321.805 56.7602 325.319 56.7602ZM324.699 41.6397C327.455 41.6397 329.935 44.0533 330.486 47.3898C331.106 51.0812 329.108 54.4886 326.077 55.0565C323.045 55.6244 320.083 53.0688 319.463 49.3775C318.843 45.6861 320.841 42.2786 323.872 41.7107C324.148 41.6397 324.423 41.6397 324.699 41.6397Z" fill="#0EB80E"/>
<path d="M343.231 54.8407C343.714 54.8407 344.196 54.7697 344.609 54.6987C346.745 54.3438 348.605 53.066 349.914 51.2913C351.154 49.4456 351.637 47.245 351.292 45.0443C350.948 42.8437 349.708 40.927 347.985 39.5782C346.194 38.3004 344.058 37.8035 341.922 38.1584C337.513 38.9393 334.482 43.3406 335.308 47.8838C335.653 50.0845 336.893 52.0012 338.615 53.3499C339.924 54.2728 341.509 54.8407 343.231 54.8407ZM343.231 39.6492C344.54 39.6492 345.849 40.0751 347.021 40.856C348.467 41.9208 349.432 43.4826 349.708 45.2573C349.983 47.032 349.639 48.8067 348.605 50.2974C347.572 51.7882 346.056 52.782 344.334 53.066C342.611 53.3499 340.889 52.995 339.442 51.9302C337.995 50.8654 337.031 49.3036 336.755 47.5289C336.48 45.7542 336.824 43.9795 337.857 42.4887C338.891 40.998 340.407 40.0041 342.129 39.7202C342.473 39.6492 342.887 39.6492 343.231 39.6492Z" fill="#0EB80E"/>
<path d="M331.726 47.4587C331.933 47.4587 332.14 47.3878 332.278 47.2458C333.035 46.4649 335.102 46.6069 335.722 46.7489C336.136 46.8198 336.549 46.5359 336.618 46.039C336.687 45.613 336.411 45.1871 335.929 45.1161C335.585 45.0451 332.553 44.6192 331.106 46.11C330.762 46.3939 330.762 46.9618 331.106 47.2458C331.313 47.3878 331.52 47.4587 331.726 47.4587Z" fill="#0EB80E"/>
<path d="M350.466 45.9682C350.741 45.9682 351.017 45.8262 351.155 45.5423C352.739 42.5608 361.076 41.07 364.107 40.7151C364.52 40.6441 364.865 40.2891 364.796 39.7922C364.727 39.3663 364.314 39.0113 363.9 39.0823C362.66 39.2243 351.981 40.5021 349.708 44.7614C349.501 45.1873 349.639 45.6842 350.052 45.8972C350.19 45.8972 350.328 45.9682 350.466 45.9682Z" fill="#0EB80E"/>
<path d="M364.245 77.202C364.992 74.1217 377.299 73.4521 378.962 73.4521C421.493 73.4523 470.1 102.803 480.747 121.925C498.178 153.231 442.992 210.021 442.992 210.021L423.702 187.234C428.318 212.577 431.969 233.518 431.693 234.157C431.073 235.861 426.044 241.966 411.989 247.432C397.935 252.898 376.784 252.259 375.475 251.265C374.303 250.342 363.762 78.7637 364.245 77.202Z" stroke="black" stroke-miterlimit="10" stroke-linecap="round" stroke-linejoin="round"/>
<path d="M415.778 359.168C415.778 359.168 402.344 346.461 395.73 351.572C389.116 356.613 415.778 359.168 415.778 359.168Z" stroke="black" stroke-miterlimit="10" stroke-linecap="round" stroke-linejoin="round"/>
<path d="M331.588 244.521L354.255 260.423L345.091 373.081L365.967 473.885" stroke="black" stroke-miterlimit="10" stroke-linecap="round" stroke-linejoin="round"/>
<path fill-rule="evenodd" clip-rule="evenodd" d="M251.014 207.764C251.014 197.139 242.654 188.526 232.343 188.526C222.031 188.526 213.672 197.139 213.672 207.764V545.83C213.672 548.675 215.911 550.982 218.672 550.982C221.433 550.982 223.672 548.675 223.672 545.83V207.764C223.672 202.83 227.554 198.83 232.343 198.83C237.132 198.83 241.014 202.83 241.014 207.764V219.114C241.014 221.959 243.252 224.266 246.014 224.266C248.775 224.266 251.014 221.959 251.014 219.114V207.764Z" fill="#0EB80E"/>
<path d="M214.244 194.385C211.998 197.561 210.672 201.473 210.672 205.704V543.77C210.672 546.615 212.911 548.921 215.672 548.921C218.433 548.921 220.672 546.615 220.672 543.77V205.704C220.672 202.846 221.974 200.302 224 198.667M236 187.725C243.024 190.488 248.014 197.495 248.014 205.704V217.053C248.014 219.898 245.775 222.205 243.014 222.205C240.252 222.205 238.014 219.898 238.014 217.053V205.704C238.014 201.725 235.489 198.353 232 197.197" stroke="black" stroke-miterlimit="10" stroke-linecap="round" stroke-linejoin="round"/>
<path d="M251.014 153.23C246.191 152.733 232.394 152.501 224.54 157.186C219.579 160.167 214.5 165.44 212.226 170.693C209.884 176.088 209.126 182.051 210.366 187.801C210.71 189.434 211.124 190.783 211.675 191.279C213.397 192.699 215.257 191.208 215.257 191.208C215.257 191.208 217.097 196.589 219.983 195.531C223.684 194.175 219.983 187.706 229.097 177.532C229.097 177.532 220.3 192.045 225.299 197.096C230.222 202.071 229.097 185.358 237.451 185.358C237.451 185.358 247.087 185.174 249.43 183.471" stroke="black" stroke-miterlimit="10" stroke-linecap="round" stroke-linejoin="round"/>
<path d="M215.189 191.068C215.518 182.181 216.902 178.662 221.502 173.619" stroke="black" stroke-miterlimit="10" stroke-linecap="round" stroke-linejoin="round"/>
<path d="M413.092 156.851L434.174 121.641" stroke="black" stroke-miterlimit="10" stroke-linecap="round" stroke-linejoin="round"/>
<path d="M423.426 121.996C418.121 121.002 423.771 139.033 423.771 139.033C423.771 139.033 428.731 123.061 423.426 121.996Z" stroke="black" stroke-miterlimit="10" stroke-linecap="round" stroke-linejoin="round"/>
<path d="M288.184 139.459C288.184 139.459 298.587 154.367 292.387 156.354C286.186 158.342 288.184 139.459 288.184 139.459Z" stroke="black" stroke-miterlimit="10" stroke-linecap="round" stroke-linejoin="round"/>
<path d="M436.93 240.263C435.69 239.411 434.656 238.417 433.829 237.281" stroke="black" stroke-miterlimit="10" stroke-linecap="round" stroke-linejoin="round"/>
<path d="M368.723 44.0508L362.385 53.4922" stroke="black" stroke-miterlimit="10" stroke-linecap="round" stroke-linejoin="round"/>
<path d="M370.238 49.8018H364.864" stroke="black" stroke-miterlimit="10" stroke-linecap="round" stroke-linejoin="round"/>
<path d="M339.235 73.7247C341.853 73.7956 347.296 73.5117 352.808 70.1043C355.357 68.5425 357.217 66.6968 358.457 65.2061" stroke="black" stroke-miterlimit="10" stroke-linecap="round" stroke-linejoin="round"/>
</svg>
