<svg width="134" height="43" viewBox="0 0 134 43" fill="none" xmlns="http://www.w3.org/2000/svg">
<path d="M42.8922 16.48V25H42.0642V21.016H37.0122V25H36.1722V16.48H37.0122V20.272H42.0642V16.48H42.8922ZM48.4636 25.06C47.8636 25.06 47.3196 24.94 46.8316 24.7C46.3436 24.46 45.9236 24.136 45.5716 23.728C45.2196 23.312 44.9476 22.848 44.7556 22.336C44.5636 21.816 44.4676 21.284 44.4676 20.74C44.4676 20.172 44.5676 19.632 44.7676 19.12C44.9676 18.6 45.2476 18.14 45.6076 17.74C45.9756 17.332 46.4036 17.012 46.8916 16.78C47.3796 16.54 47.9076 16.42 48.4756 16.42C49.0756 16.42 49.6196 16.544 50.1076 16.792C50.5956 17.04 51.0116 17.372 51.3556 17.788C51.7076 18.204 51.9796 18.668 52.1716 19.18C52.3636 19.692 52.4596 20.216 52.4596 20.752C52.4596 21.32 52.3596 21.864 52.1596 22.384C51.9596 22.896 51.6796 23.356 51.3196 23.764C50.9596 24.164 50.5356 24.48 50.0476 24.712C49.5596 24.944 49.0316 25.06 48.4636 25.06ZM45.3076 20.74C45.3076 21.204 45.3836 21.652 45.5356 22.084C45.6876 22.508 45.9036 22.888 46.1836 23.224C46.4636 23.552 46.7956 23.816 47.1796 24.016C47.5716 24.208 47.9996 24.304 48.4636 24.304C48.9516 24.304 49.3876 24.204 49.7716 24.004C50.1636 23.796 50.4956 23.524 50.7676 23.188C51.0476 22.844 51.2596 22.46 51.4036 22.036C51.5476 21.612 51.6196 21.18 51.6196 20.74C51.6196 20.276 51.5436 19.832 51.3916 19.408C51.2396 18.984 51.0196 18.604 50.7316 18.268C50.4516 17.932 50.1196 17.668 49.7356 17.476C49.3516 17.284 48.9276 17.188 48.4636 17.188C47.9836 17.188 47.5476 17.288 47.1556 17.488C46.7716 17.688 46.4396 17.96 46.1596 18.304C45.8876 18.64 45.6756 19.02 45.5236 19.444C45.3796 19.868 45.3076 20.3 45.3076 20.74ZM60.4513 22.804C60.4513 23.228 60.3433 23.608 60.1273 23.944C59.9113 24.272 59.6193 24.532 59.2513 24.724C58.8913 24.908 58.4953 25 58.0633 25H54.0433V16.48H58.1473C58.5473 16.48 58.8913 16.588 59.1793 16.804C59.4753 17.012 59.6993 17.284 59.8513 17.62C60.0113 17.948 60.0913 18.292 60.0913 18.652C60.0913 19.076 59.9833 19.468 59.7673 19.828C59.5513 20.188 59.2513 20.456 58.8673 20.632C59.3553 20.776 59.7393 21.044 60.0193 21.436C60.3073 21.828 60.4513 22.284 60.4513 22.804ZM59.6113 22.66C59.6113 22.372 59.5473 22.108 59.4193 21.868C59.2913 21.62 59.1153 21.42 58.8913 21.268C58.6753 21.116 58.4273 21.04 58.1473 21.04H54.8833V24.268H58.0633C58.3513 24.268 58.6113 24.192 58.8433 24.04C59.0753 23.888 59.2593 23.692 59.3953 23.452C59.5393 23.204 59.6113 22.94 59.6113 22.66ZM54.8833 17.212V20.356H57.8113C58.0913 20.356 58.3393 20.284 58.5553 20.14C58.7713 19.988 58.9433 19.792 59.0713 19.552C59.1993 19.312 59.2633 19.056 59.2633 18.784C59.2633 18.496 59.2033 18.236 59.0833 18.004C58.9633 17.764 58.7993 17.572 58.5913 17.428C58.3833 17.284 58.1473 17.212 57.8833 17.212H54.8833ZM62.0355 25V16.48H62.8755V19.792H65.0355C65.6515 19.792 66.1635 19.9 66.5715 20.116C66.9795 20.332 67.2835 20.636 67.4835 21.028C67.6915 21.42 67.7955 21.876 67.7955 22.396C67.7955 22.868 67.6955 23.304 67.4955 23.704C67.2955 24.104 66.9955 24.42 66.5955 24.652C66.1955 24.884 65.6955 25 65.0955 25H62.0355ZM62.8755 24.292H64.9875C65.4595 24.292 65.8395 24.204 66.1275 24.028C66.4155 23.844 66.6235 23.608 66.7515 23.32C66.8875 23.024 66.9555 22.716 66.9555 22.396C66.9555 22.06 66.8955 21.748 66.7755 21.46C66.6555 21.172 66.4515 20.94 66.1635 20.764C65.8755 20.588 65.4795 20.5 64.9755 20.5H62.8755V24.292ZM69.2835 25V16.492H70.1115V25H69.2835ZM77.9666 24.256V25H72.2426V16.48H77.8586V17.224H73.0826V20.296H77.2466V21.004H73.0826V24.256H77.9666ZM42.5802 37.804C42.5802 38.228 42.4722 38.608 42.2562 38.944C42.0402 39.272 41.7482 39.532 41.3802 39.724C41.0202 39.908 40.6242 40 40.1922 40H36.1722V31.48H40.2762C40.6762 31.48 41.0202 31.588 41.3082 31.804C41.6042 32.012 41.8282 32.284 41.9802 32.62C42.1402 32.948 42.2202 33.292 42.2202 33.652C42.2202 34.076 42.1122 34.468 41.8962 34.828C41.6802 35.188 41.3802 35.456 40.9962 35.632C41.4842 35.776 41.8682 36.044 42.1482 36.436C42.4362 36.828 42.5802 37.284 42.5802 37.804ZM41.7402 37.66C41.7402 37.372 41.6762 37.108 41.5482 36.868C41.4202 36.62 41.2442 36.42 41.0202 36.268C40.8042 36.116 40.5562 36.04 40.2762 36.04H37.0122V39.268H40.1922C40.4802 39.268 40.7402 39.192 40.9722 39.04C41.2042 38.888 41.3882 38.692 41.5242 38.452C41.6682 38.204 41.7402 37.94 41.7402 37.66ZM37.0122 32.212V35.356H39.9402C40.2202 35.356 40.4682 35.284 40.6842 35.14C40.9002 34.988 41.0722 34.792 41.2002 34.552C41.3282 34.312 41.3922 34.056 41.3922 33.784C41.3922 33.496 41.3322 33.236 41.2122 33.004C41.0922 32.764 40.9282 32.572 40.7202 32.428C40.5122 32.284 40.2762 32.212 40.0122 32.212H37.0122ZM47.5964 40.06C46.9964 40.06 46.4524 39.94 45.9644 39.7C45.4764 39.46 45.0564 39.136 44.7044 38.728C44.3524 38.312 44.0804 37.848 43.8884 37.336C43.6964 36.816 43.6004 36.284 43.6004 35.74C43.6004 35.172 43.7004 34.632 43.9004 34.12C44.1004 33.6 44.3804 33.14 44.7404 32.74C45.1084 32.332 45.5364 32.012 46.0244 31.78C46.5124 31.54 47.0404 31.42 47.6084 31.42C48.2084 31.42 48.7524 31.544 49.2404 31.792C49.7284 32.04 50.1444 32.372 50.4884 32.788C50.8404 33.204 51.1124 33.668 51.3044 34.18C51.4964 34.692 51.5924 35.216 51.5924 35.752C51.5924 36.32 51.4924 36.864 51.2924 37.384C51.0924 37.896 50.8124 38.356 50.4524 38.764C50.0924 39.164 49.6684 39.48 49.1804 39.712C48.6924 39.944 48.1644 40.06 47.5964 40.06ZM44.4404 35.74C44.4404 36.204 44.5164 36.652 44.6684 37.084C44.8204 37.508 45.0364 37.888 45.3164 38.224C45.5964 38.552 45.9284 38.816 46.3124 39.016C46.7044 39.208 47.1324 39.304 47.5964 39.304C48.0844 39.304 48.5204 39.204 48.9044 39.004C49.2964 38.796 49.6284 38.524 49.9004 38.188C50.1804 37.844 50.3924 37.46 50.5364 37.036C50.6804 36.612 50.7524 36.18 50.7524 35.74C50.7524 35.276 50.6764 34.832 50.5244 34.408C50.3724 33.984 50.1524 33.604 49.8644 33.268C49.5844 32.932 49.2524 32.668 48.8684 32.476C48.4844 32.284 48.0604 32.188 47.5964 32.188C47.1164 32.188 46.6804 32.288 46.2884 32.488C45.9044 32.688 45.5724 32.96 45.2924 33.304C45.0204 33.64 44.8084 34.02 44.6564 34.444C44.5124 34.868 44.4404 35.3 44.4404 35.74ZM55.3122 40.108C54.7282 40.108 54.2042 39.984 53.7402 39.736C53.2762 39.48 52.9122 39.128 52.6482 38.68L53.2962 38.284C53.4962 38.636 53.7682 38.908 54.1122 39.1C54.4562 39.292 54.8522 39.388 55.3002 39.388C55.9082 39.388 56.3882 39.232 56.7402 38.92C57.1002 38.6 57.2802 38.176 57.2802 37.648C57.2802 37.312 57.2042 37.016 57.0522 36.76C56.9082 36.496 56.7002 36.292 56.4282 36.148C56.1562 36.004 55.8282 35.932 55.4442 35.932H54.6282V35.26H55.4562C55.7522 35.26 56.0122 35.192 56.2362 35.056C56.4602 34.912 56.6362 34.724 56.7642 34.492C56.8922 34.26 56.9562 34 56.9562 33.712C56.9562 33.4 56.8842 33.128 56.7402 32.896C56.6042 32.664 56.4082 32.48 56.1522 32.344C55.9042 32.208 55.6122 32.14 55.2762 32.14C54.8682 32.14 54.5082 32.232 54.1962 32.416C53.8842 32.6 53.6362 32.856 53.4522 33.184L52.8402 32.776C53.0882 32.336 53.4162 31.992 53.8242 31.744C54.2402 31.496 54.7362 31.372 55.3122 31.372C55.8002 31.372 56.2242 31.468 56.5842 31.66C56.9522 31.844 57.2402 32.104 57.4482 32.44C57.6642 32.768 57.7722 33.156 57.7722 33.604C57.7722 34.036 57.6642 34.428 57.4482 34.78C57.2402 35.124 56.9362 35.384 56.5362 35.56C57.0402 35.696 57.4282 35.96 57.7002 36.352C57.9802 36.744 58.1202 37.2 58.1202 37.72C58.1202 38.216 58.0002 38.644 57.7602 39.004C57.5202 39.356 57.1882 39.628 56.7642 39.82C56.3482 40.012 55.8642 40.108 55.3122 40.108ZM67.2632 40V33.064L64.1792 38.452H63.6512L60.5552 33.064V40H59.7152V31.48H60.5792L63.9032 37.312L67.2512 31.48H68.1032V40H67.2632ZM73.6707 40.06C73.0707 40.06 72.5267 39.94 72.0387 39.7C71.5507 39.46 71.1307 39.136 70.7787 38.728C70.4267 38.312 70.1547 37.848 69.9627 37.336C69.7707 36.816 69.6747 36.284 69.6747 35.74C69.6747 35.172 69.7747 34.632 69.9747 34.12C70.1747 33.6 70.4547 33.14 70.8147 32.74C71.1827 32.332 71.6107 32.012 72.0987 31.78C72.5867 31.54 73.1147 31.42 73.6827 31.42C74.2827 31.42 74.8267 31.544 75.3147 31.792C75.8027 32.04 76.2187 32.372 76.5627 32.788C76.9147 33.204 77.1867 33.668 77.3787 34.18C77.5707 34.692 77.6667 35.216 77.6667 35.752C77.6667 36.32 77.5667 36.864 77.3667 37.384C77.1667 37.896 76.8867 38.356 76.5267 38.764C76.1667 39.164 75.7427 39.48 75.2547 39.712C74.7667 39.944 74.2387 40.06 73.6707 40.06ZM70.5147 35.74C70.5147 36.204 70.5907 36.652 70.7427 37.084C70.8947 37.508 71.1107 37.888 71.3907 38.224C71.6707 38.552 72.0027 38.816 72.3867 39.016C72.7787 39.208 73.2067 39.304 73.6707 39.304C74.1587 39.304 74.5947 39.204 74.9787 39.004C75.3707 38.796 75.7027 38.524 75.9747 38.188C76.2547 37.844 76.4667 37.46 76.6107 37.036C76.7547 36.612 76.8267 36.18 76.8267 35.74C76.8267 35.276 76.7507 34.832 76.5987 34.408C76.4467 33.984 76.2267 33.604 75.9387 33.268C75.6587 32.932 75.3267 32.668 74.9427 32.476C74.5587 32.284 74.1347 32.188 73.6707 32.188C73.1907 32.188 72.7547 32.288 72.3627 32.488C71.9787 32.688 71.6467 32.96 71.3667 33.304C71.0947 33.64 70.8827 34.02 70.7307 34.444C70.5867 34.868 70.5147 35.3 70.5147 35.74ZM78.4944 40L81.8064 35.608L78.6984 31.48H79.6824L82.5144 35.272H83.6784V31.48H84.5064V35.272H85.6584L88.5024 31.48H89.4864L86.3664 35.608L89.6784 40H88.7064L85.6824 36.04H84.5064V40H83.6784V36.04H82.4904L79.4664 40H78.4944ZM97.7946 31.48V40H96.9666V36.016H91.9146V40H91.0746V31.48H91.9146V35.272H96.9666V31.48H97.7946ZM103.366 40.06C102.766 40.06 102.222 39.94 101.734 39.7C101.246 39.46 100.826 39.136 100.474 38.728C100.122 38.312 99.85 37.848 99.658 37.336C99.466 36.816 99.37 36.284 99.37 35.74C99.37 35.172 99.47 34.632 99.67 34.12C99.87 33.6 100.15 33.14 100.51 32.74C100.878 32.332 101.306 32.012 101.794 31.78C102.282 31.54 102.81 31.42 103.378 31.42C103.978 31.42 104.522 31.544 105.01 31.792C105.498 32.04 105.914 32.372 106.258 32.788C106.61 33.204 106.882 33.668 107.074 34.18C107.266 34.692 107.362 35.216 107.362 35.752C107.362 36.32 107.262 36.864 107.062 37.384C106.862 37.896 106.582 38.356 106.222 38.764C105.862 39.164 105.438 39.48 104.95 39.712C104.462 39.944 103.934 40.06 103.366 40.06ZM100.21 35.74C100.21 36.204 100.286 36.652 100.438 37.084C100.59 37.508 100.806 37.888 101.086 38.224C101.366 38.552 101.698 38.816 102.082 39.016C102.474 39.208 102.902 39.304 103.366 39.304C103.854 39.304 104.29 39.204 104.674 39.004C105.066 38.796 105.398 38.524 105.67 38.188C105.95 37.844 106.162 37.46 106.306 37.036C106.45 36.612 106.522 36.18 106.522 35.74C106.522 35.276 106.446 34.832 106.294 34.408C106.142 33.984 105.922 33.604 105.634 33.268C105.354 32.932 105.022 32.668 104.638 32.476C104.254 32.284 103.83 32.188 103.366 32.188C102.886 32.188 102.45 32.288 102.058 32.488C101.674 32.688 101.342 32.96 101.062 33.304C100.79 33.64 100.578 34.02 100.426 34.444C100.282 34.868 100.21 35.3 100.21 35.74ZM108.382 35.68C108.382 35.16 108.47 34.652 108.646 34.156C108.83 33.652 109.094 33.196 109.438 32.788C109.782 32.372 110.206 32.044 110.71 31.804C111.214 31.556 111.786 31.432 112.426 31.432C113.186 31.432 113.834 31.608 114.37 31.96C114.914 32.304 115.314 32.748 115.57 33.292L114.91 33.7C114.726 33.324 114.494 33.028 114.214 32.812C113.934 32.588 113.634 32.428 113.314 32.332C113.002 32.236 112.69 32.188 112.378 32.188C111.866 32.188 111.414 32.292 111.022 32.5C110.63 32.7 110.298 32.972 110.026 33.316C109.762 33.652 109.562 34.032 109.426 34.456C109.29 34.872 109.222 35.296 109.222 35.728C109.222 36.2 109.302 36.652 109.462 37.084C109.622 37.516 109.846 37.9 110.134 38.236C110.422 38.564 110.758 38.828 111.142 39.028C111.534 39.22 111.958 39.316 112.414 39.316C112.734 39.316 113.062 39.26 113.398 39.148C113.734 39.036 114.046 38.864 114.334 38.632C114.63 38.4 114.866 38.1 115.042 37.732L115.738 38.092C115.562 38.516 115.29 38.876 114.922 39.172C114.554 39.468 114.142 39.692 113.686 39.844C113.238 39.996 112.798 40.072 112.366 40.072C111.782 40.072 111.246 39.948 110.758 39.7C110.27 39.444 109.846 39.108 109.486 38.692C109.134 38.268 108.862 37.796 108.67 37.276C108.478 36.748 108.382 36.216 108.382 35.68ZM123.197 32.224H120.161V40H119.321V32.224H116.285V31.48H123.197V32.224ZM124.521 40V31.48H125.349V38.848L130.629 31.48H131.409V40H130.581V32.764L125.361 40H124.521Z" fill="#0EB80E"/>
<path d="M41.0802 10.964C41.0002 10.924 40.9402 10.884 40.9002 10.844C40.8602 10.796 40.7922 10.744 40.6962 10.688C40.6642 10.576 40.6282 10.464 40.5882 10.352C40.5562 10.232 40.5442 10.116 40.5522 10.004C40.5602 9.94 40.5482 9.872 40.5162 9.8C40.4922 9.72 40.4962 9.652 40.5282 9.596C40.5122 9.468 40.5162 9.304 40.5402 9.104C40.5642 8.896 40.5962 8.7 40.6362 8.516C40.6762 8.324 40.7042 8.188 40.7202 8.108C40.6962 8.076 40.6722 8.056 40.6482 8.048C40.6322 8.04 40.6082 8.052 40.5762 8.084C40.4962 8.164 40.4202 8.244 40.3482 8.324C40.2762 8.404 40.2002 8.488 40.1202 8.576C40.0882 8.608 40.0522 8.64 40.0122 8.672C39.9722 8.696 39.9522 8.736 39.9522 8.792L39.5202 9.368C39.4882 9.432 39.4282 9.516 39.3402 9.62C39.2602 9.716 39.1962 9.832 39.1482 9.968C39.1322 10.024 39.1042 10.072 39.0642 10.112C39.0242 10.144 38.9842 10.176 38.9442 10.208C38.8402 10.168 38.7722 10.14 38.7402 10.124C38.7082 10.108 38.6482 10.06 38.5602 9.98C38.4802 9.9 38.4242 9.828 38.3922 9.764C38.3602 9.692 38.3522 9.62 38.3682 9.548C38.3682 9.428 38.3682 9.26 38.3682 9.044C38.3762 8.82 38.3762 8.608 38.3682 8.408C38.3682 8.2 38.3522 8.056 38.3202 7.976C38.2322 7.984 38.1722 7.996 38.1402 8.012C38.1082 8.028 38.0682 8.076 38.0202 8.156C38.0282 8.148 37.9922 8.204 37.9122 8.324C37.8402 8.436 37.7402 8.584 37.6122 8.768C37.4922 8.944 37.3722 9.124 37.2522 9.308C37.1322 9.484 37.0322 9.636 36.9522 9.764C36.8802 9.884 36.8482 9.94 36.8562 9.932C36.8002 9.996 36.7522 10.064 36.7122 10.136C36.6802 10.208 36.6482 10.284 36.6162 10.364C36.5762 10.46 36.5322 10.524 36.4842 10.556C36.4362 10.58 36.3922 10.572 36.3522 10.532C36.2882 10.492 36.2202 10.452 36.1482 10.412C36.0842 10.372 36.0282 10.336 35.9802 10.304C35.9482 10.248 35.9202 10.192 35.8962 10.136C35.8802 10.072 35.8682 10 35.8602 9.92C35.9242 9.88 35.9682 9.856 35.9922 9.848C36.0162 9.832 36.0362 9.804 36.0522 9.764C36.2282 9.5 36.3802 9.276 36.5082 9.092C36.6362 8.9 36.7442 8.744 36.8322 8.624C36.9202 8.504 36.9882 8.412 37.0362 8.348C37.0842 8.276 37.1122 8.228 37.1202 8.204C37.1602 8.124 37.2082 8.048 37.2642 7.976C37.3282 7.904 37.3882 7.828 37.4442 7.748C37.4522 7.724 37.4922 7.668 37.5642 7.58C37.6362 7.484 37.7122 7.388 37.7922 7.292C37.8722 7.196 37.9282 7.14 37.9602 7.124C38.0002 7.1 38.0282 7.068 38.0442 7.028C38.0682 6.98 38.0922 6.932 38.1162 6.884C38.1322 6.812 38.1682 6.76 38.2242 6.728C38.2802 6.696 38.3642 6.688 38.4762 6.704C38.5402 6.76 38.6122 6.82 38.6922 6.884C38.7722 6.94 38.8562 7 38.9442 7.064C38.9362 7.144 38.9322 7.228 38.9322 7.316C38.9402 7.404 38.9722 7.54 39.0282 7.724C39.0042 7.82 39.0082 7.92 39.0402 8.024C39.0722 8.128 39.0722 8.224 39.0402 8.312C39.0402 8.416 39.0642 8.492 39.1122 8.54C39.1682 8.58 39.2522 8.54 39.3642 8.42C39.4922 8.26 39.6442 8.088 39.8202 7.904C39.9962 7.712 40.1682 7.532 40.3362 7.364C40.5122 7.188 40.6602 7.04 40.7802 6.92C40.9082 6.792 40.9842 6.712 41.0082 6.68C41.0242 6.64 41.0522 6.62 41.0922 6.62C41.1402 6.612 41.1842 6.62 41.2242 6.644C41.3602 6.716 41.4522 6.768 41.5002 6.8C41.5482 6.832 41.6162 6.892 41.7042 6.98C41.7842 7.092 41.7962 7.192 41.7402 7.28C41.7082 7.36 41.6642 7.492 41.6082 7.676C41.5602 7.852 41.5082 8.048 41.4522 8.264C41.4042 8.48 41.3602 8.684 41.3202 8.876C41.2882 9.06 41.2682 9.204 41.2602 9.308C41.2522 9.468 41.2442 9.636 41.2362 9.812C41.2282 9.98 41.2402 10.156 41.2722 10.34C41.3362 10.588 41.3522 10.748 41.3202 10.82C41.2962 10.884 41.2162 10.932 41.0802 10.964ZM45.0458 10.58C44.8778 10.724 44.6818 10.808 44.4578 10.832C44.2418 10.856 44.0298 10.824 43.8218 10.736C43.6138 10.64 43.4418 10.496 43.3058 10.304C43.1698 10.128 43.0818 9.928 43.0418 9.704C43.0018 9.472 42.9978 9.172 43.0298 8.804C43.0538 8.492 43.1538 8.18 43.3298 7.868C43.5058 7.548 43.7178 7.264 43.9658 7.016C44.2218 6.768 44.4738 6.596 44.7218 6.5C44.8418 6.42 44.9418 6.384 45.0218 6.392C45.1098 6.392 45.2418 6.4 45.4178 6.416C45.6018 6.44 45.7378 6.476 45.8258 6.524C45.9218 6.572 45.9978 6.636 46.0538 6.716C46.1738 6.836 46.2538 6.956 46.2938 7.076C46.3338 7.188 46.3538 7.3 46.3538 7.412C46.3218 7.588 46.2018 7.804 45.9938 8.06C45.7938 8.308 45.5298 8.512 45.2018 8.672C45.0258 8.728 44.8338 8.752 44.6258 8.744C44.4178 8.736 44.2458 8.684 44.1098 8.588C43.9578 8.524 43.8578 8.536 43.8098 8.624C43.7618 8.704 43.7178 8.904 43.6778 9.224C43.6458 9.528 43.6698 9.752 43.7498 9.896C43.8298 10.032 43.9378 10.112 44.0738 10.136C44.2338 10.168 44.3578 10.192 44.4458 10.208C44.5418 10.216 44.6578 10.18 44.7938 10.1C44.9218 10.02 45.0018 9.976 45.0338 9.968C45.0658 9.952 45.0898 9.936 45.1058 9.92C45.1298 9.896 45.1818 9.844 45.2618 9.764C45.3178 9.708 45.3618 9.668 45.3938 9.644C45.4258 9.612 45.4618 9.596 45.5018 9.596C45.5418 9.596 45.5778 9.616 45.6098 9.656C45.6418 9.688 45.6738 9.712 45.7058 9.728C45.7858 9.728 45.8018 9.776 45.7538 9.872C45.7138 9.968 45.6298 10.084 45.5018 10.22C45.3738 10.348 45.2218 10.468 45.0458 10.58ZM45.0338 8.036C45.1218 7.996 45.2138 7.94 45.3098 7.868C45.4058 7.788 45.4858 7.704 45.5498 7.616C45.6218 7.52 45.6578 7.44 45.6578 7.376C45.6578 7.264 45.6058 7.172 45.5018 7.1C45.3978 7.02 45.2418 7.008 45.0338 7.064C44.9458 7.088 44.8458 7.148 44.7338 7.244C44.6218 7.332 44.5138 7.432 44.4098 7.544C44.3138 7.656 44.2338 7.756 44.1698 7.844C44.1138 7.932 44.0938 7.984 44.1098 8C44.1338 8.04 44.2018 8.072 44.3138 8.096C44.4258 8.112 44.5498 8.116 44.6858 8.108C44.8298 8.1 44.9458 8.076 45.0338 8.036ZM47.2201 10.088C47.2121 10.048 47.2041 9.968 47.1961 9.848C47.1881 9.72 47.1641 9.64 47.1241 9.608C47.1481 9.424 47.1681 9.256 47.1841 9.104C47.2001 8.952 47.2321 8.804 47.2801 8.66C47.3041 8.58 47.3441 8.476 47.4001 8.348C47.4641 8.22 47.5321 8.096 47.6041 7.976C47.6761 7.848 47.7401 7.76 47.7961 7.712C47.8521 7.664 47.9001 7.608 47.9401 7.544C47.9881 7.48 48.0401 7.432 48.0961 7.4C48.1441 7.36 48.1721 7.316 48.1801 7.268C48.1961 7.22 48.2281 7.184 48.2761 7.16C48.3961 7.08 48.4921 7.008 48.5641 6.944C48.6361 6.88 48.7121 6.824 48.7921 6.776C48.8801 6.728 48.9961 6.684 49.1401 6.644C49.3001 6.596 49.4161 6.564 49.4881 6.548C49.5681 6.524 49.6441 6.516 49.7161 6.524C49.7881 6.532 49.8961 6.556 50.0401 6.596C50.0401 6.548 50.0361 6.492 50.0281 6.428C50.0201 6.356 50.0161 6.28 50.0161 6.2C50.0321 6.088 50.0281 5.98 50.0041 5.876C49.9881 5.764 49.9721 5.684 49.9561 5.636C49.9081 5.58 49.8801 5.492 49.8721 5.372C49.8641 5.244 49.8281 5.144 49.7641 5.072C49.7881 4.92 49.7321 4.776 49.5961 4.64C49.4681 4.496 49.3121 4.384 49.1281 4.304C48.9441 4.216 48.7721 4.184 48.6121 4.208C48.5241 4.216 48.4321 4.228 48.3361 4.244C48.2401 4.26 48.1521 4.3 48.0721 4.364C47.9681 4.372 47.8841 4.376 47.8201 4.376C47.7561 4.376 47.6961 4.356 47.6401 4.316C47.5521 4.188 47.4921 4.096 47.4601 4.04C47.4361 3.984 47.4401 3.94 47.4721 3.908C47.5041 3.868 47.5601 3.832 47.6401 3.8C47.7281 3.76 47.8361 3.696 47.9641 3.608C48.0521 3.64 48.1161 3.636 48.1561 3.596C48.1961 3.556 48.2601 3.552 48.3481 3.584C48.4121 3.544 48.5161 3.532 48.6601 3.548C48.8041 3.564 48.8921 3.58 48.9241 3.596C48.9481 3.612 48.9721 3.624 48.9961 3.632C49.0201 3.632 49.0441 3.636 49.0681 3.644C49.3481 3.7 49.5921 3.812 49.8001 3.98C50.0161 4.148 50.1881 4.364 50.3161 4.628C50.3641 4.732 50.4121 4.836 50.4601 4.94C50.5081 5.044 50.5561 5.144 50.6041 5.24C50.6201 5.288 50.6361 5.388 50.6521 5.54C50.6761 5.684 50.6961 5.824 50.7121 5.96C50.7361 6.088 50.7481 6.164 50.7481 6.188C50.7641 6.268 50.7721 6.344 50.7721 6.416C50.7721 6.488 50.7641 6.564 50.7481 6.644C50.6521 7.276 50.5081 7.856 50.3161 8.384C50.1241 8.912 49.8641 9.448 49.5361 9.992C49.4721 10.096 49.3841 10.2 49.2721 10.304C49.1601 10.408 49.0521 10.504 48.9481 10.592C48.8201 10.704 48.6801 10.784 48.5281 10.832C48.3761 10.872 48.2081 10.896 48.0241 10.904C47.8001 10.728 47.6361 10.6 47.5321 10.52C47.4281 10.44 47.3601 10.372 47.3281 10.316C47.2961 10.26 47.2601 10.184 47.2201 10.088ZM48.1441 10.316C48.1921 10.276 48.2441 10.252 48.3001 10.244C48.3641 10.228 48.4121 10.184 48.4441 10.112C48.5481 10.032 48.6641 9.904 48.7921 9.728C48.9281 9.552 49.0561 9.364 49.1761 9.164C49.2961 8.956 49.3881 8.776 49.4521 8.624C49.4841 8.536 49.5121 8.452 49.5361 8.372C49.5681 8.284 49.6081 8.204 49.6561 8.132C49.7361 7.98 49.8001 7.8 49.8481 7.592C49.8961 7.376 49.8921 7.212 49.8361 7.1C49.4281 7.236 49.0921 7.42 48.8281 7.652C48.5641 7.876 48.3241 8.196 48.1081 8.612C48.0841 8.78 48.0361 8.94 47.9641 9.092C47.9001 9.236 47.8601 9.392 47.8441 9.56C47.8041 9.64 47.7841 9.728 47.7841 9.824C47.7921 9.912 47.8121 10.016 47.8441 10.136C47.9481 10.216 48.0041 10.26 48.0121 10.268C48.0281 10.268 48.0721 10.284 48.1441 10.316ZM54.7364 10.856C54.4724 10.76 54.2684 10.58 54.1244 10.316C53.9804 10.044 53.8884 9.78 53.8484 9.524C53.8404 9.524 53.8164 9.54 53.7764 9.572C53.7444 9.596 53.7044 9.636 53.6564 9.692C53.5444 9.804 53.4044 9.944 53.2364 10.112C53.0684 10.272 52.8924 10.416 52.7084 10.544C52.5324 10.664 52.3644 10.716 52.2044 10.7C52.1404 10.66 52.0724 10.616 52.0004 10.568C51.9364 10.512 51.8724 10.456 51.8084 10.4C51.7764 10.368 51.7484 10.336 51.7244 10.304C51.7084 10.272 51.6924 10.236 51.6764 10.196C51.5884 9.956 51.5404 9.744 51.5324 9.56C51.5244 9.368 51.5444 9.18 51.5924 8.996C51.6484 8.804 51.7124 8.592 51.7844 8.36C51.7924 8.336 51.8204 8.236 51.8684 8.06C51.9244 7.884 51.9884 7.684 52.0604 7.46C52.1324 7.236 52.2004 7.036 52.2644 6.86C52.3364 6.684 52.3884 6.58 52.4204 6.548C52.4444 6.548 52.4684 6.548 52.4924 6.548C52.5244 6.54 52.5524 6.536 52.5764 6.536C52.6564 6.536 52.7164 6.564 52.7564 6.62C52.7884 6.668 52.8284 6.704 52.8764 6.728C52.9324 6.752 52.9724 6.784 52.9964 6.824C53.0364 6.904 53.0084 7.076 52.9124 7.34C52.8164 7.596 52.7124 7.888 52.6004 8.216C52.4964 8.512 52.4084 8.812 52.3364 9.116C52.2644 9.412 52.2604 9.66 52.3244 9.86C52.3804 9.86 52.4564 9.812 52.5524 9.716C52.6564 9.612 52.7364 9.54 52.7924 9.5C52.8724 9.452 52.9764 9.36 53.1044 9.224C53.2404 9.08 53.3724 8.936 53.5004 8.792C53.6284 8.64 53.7164 8.524 53.7644 8.444C53.7964 8.396 53.8444 8.308 53.9084 8.18C53.9724 8.044 54.0364 7.9 54.1004 7.748C54.1724 7.588 54.2284 7.44 54.2684 7.304C54.3164 7.168 54.3364 7.072 54.3284 7.016C54.3204 6.936 54.3284 6.876 54.3524 6.836C54.3844 6.788 54.4324 6.744 54.4964 6.704C54.5364 6.704 54.5804 6.704 54.6284 6.704C54.6764 6.704 54.7204 6.708 54.7604 6.716C54.8084 6.772 54.8604 6.824 54.9164 6.872C54.9724 6.92 55.0284 6.972 55.0844 7.028C55.1244 7.18 55.1004 7.384 55.0124 7.64C54.9244 7.896 54.8364 8.172 54.7484 8.468C54.6604 8.764 54.6044 9.064 54.5804 9.368C54.5564 9.664 54.6364 9.924 54.8204 10.148C54.9884 10.076 55.1164 10.008 55.2044 9.944C55.3004 9.872 55.3924 9.8 55.4804 9.728C55.5684 9.648 55.6804 9.568 55.8164 9.488C55.8964 9.536 55.9564 9.632 55.9964 9.776C56.0364 9.92 56.0564 10.036 56.0564 10.124C56.0244 10.148 55.9924 10.172 55.9604 10.196C55.9364 10.212 55.9164 10.236 55.9004 10.268C55.8524 10.372 55.7564 10.476 55.6124 10.58C55.4684 10.684 55.3164 10.768 55.1564 10.832C54.9964 10.888 54.8564 10.896 54.7364 10.856ZM60.7285 9.68C60.7765 9.736 60.8325 9.78 60.8965 9.812C60.9685 9.844 61.0205 9.892 61.0525 9.956C61.0765 10.012 61.0925 10.068 61.1005 10.124C61.1165 10.172 61.1165 10.224 61.1005 10.28C61.0685 10.448 61.0245 10.644 60.9685 10.868C60.9125 11.084 60.8445 11.292 60.7645 11.492C60.6925 11.7 60.6045 11.872 60.5005 12.008C60.4445 12.088 60.3765 12.108 60.2965 12.068C60.2245 12.028 60.1565 11.992 60.0925 11.96C60.0445 11.936 60.0085 11.912 59.9845 11.888C59.9685 11.872 59.9565 11.848 59.9485 11.816C59.9405 11.784 59.9285 11.744 59.9125 11.696C59.9045 11.688 59.9005 11.68 59.9005 11.672C59.9005 11.664 59.8965 11.656 59.8885 11.648C59.9285 11.536 59.9645 11.428 59.9965 11.324C60.0285 11.22 60.0605 11.112 60.0925 11C60.1325 10.896 60.1685 10.792 60.2005 10.688C60.2245 10.608 60.2325 10.556 60.2245 10.532C60.2245 10.5 60.2085 10.444 60.1765 10.364C59.9765 10.42 59.7365 10.488 59.4565 10.568C59.1845 10.648 58.9445 10.688 58.7365 10.688C58.5685 10.688 58.3965 10.692 58.2205 10.7C58.0525 10.7 57.8845 10.696 57.7165 10.688C57.6365 10.68 57.5605 10.668 57.4885 10.652C57.4165 10.628 57.3525 10.584 57.2965 10.52C57.2165 10.408 57.1325 10.332 57.0445 10.292C56.9645 10.252 56.9205 10.148 56.9125 9.98C56.9125 9.86 56.9325 9.708 56.9725 9.524C57.0125 9.34 57.0645 9.148 57.1285 8.948C57.2005 8.74 57.2685 8.548 57.3325 8.372C57.3965 8.188 57.4525 8.036 57.5005 7.916C57.5325 7.836 57.5685 7.76 57.6085 7.688C57.6565 7.608 57.6765 7.528 57.6685 7.448C57.8365 7.28 57.9325 7.104 57.9565 6.92C57.9805 6.736 58.0205 6.572 58.0765 6.428C58.1165 6.404 58.1485 6.38 58.1725 6.356C58.1965 6.324 58.2245 6.296 58.2565 6.272L58.3285 6.308C58.4165 6.324 58.5045 6.356 58.5925 6.404C58.6805 6.444 58.7205 6.512 58.7125 6.608C58.7285 6.664 58.7285 6.728 58.7125 6.8C58.7045 6.872 58.6925 6.94 58.6765 7.004C58.6525 7.124 58.6005 7.264 58.5205 7.424C58.4405 7.584 58.3565 7.748 58.2685 7.916C58.1885 8.076 58.1285 8.224 58.0885 8.36C58.0405 8.544 57.9925 8.712 57.9445 8.864C57.8965 9.008 57.8365 9.168 57.7645 9.344C57.7325 9.432 57.6965 9.528 57.6565 9.632C57.6245 9.736 57.6085 9.84 57.6085 9.944C57.6085 10.016 57.6405 10.06 57.7045 10.076C57.7765 10.092 57.8565 10.092 57.9445 10.076C58.0325 10.06 58.0965 10.052 58.1365 10.052C58.2725 10.036 58.4325 10.02 58.6165 10.004C58.8005 9.988 58.9565 9.944 59.0845 9.872C59.1005 9.808 59.1085 9.744 59.1085 9.68C59.1085 9.608 59.1245 9.54 59.1565 9.476C59.1805 9.428 59.1925 9.372 59.1925 9.308C59.1925 9.244 59.2045 9.184 59.2285 9.128C59.2685 9.04 59.3125 8.9 59.3605 8.708C59.4165 8.516 59.4765 8.304 59.5405 8.072C59.6125 7.84 59.6805 7.616 59.7445 7.4C59.8165 7.176 59.8805 6.988 59.9365 6.836C60.0005 6.676 60.0565 6.58 60.1045 6.548C60.2245 6.588 60.3365 6.636 60.4405 6.692C60.5525 6.748 60.6485 6.832 60.7285 6.944C60.6885 7.088 60.6445 7.232 60.5965 7.376C60.5485 7.52 60.4925 7.664 60.4285 7.808C60.4285 7.88 60.4045 7.996 60.3565 8.156C60.3085 8.316 60.2525 8.492 60.1885 8.684C60.1245 8.868 60.0645 9.048 60.0085 9.224C59.9605 9.392 59.9245 9.524 59.9005 9.62C59.9405 9.668 59.9805 9.688 60.0205 9.68C60.0685 9.664 60.1125 9.672 60.1525 9.704C60.2165 9.736 60.2565 9.74 60.2725 9.716C60.2965 9.692 60.3285 9.68 60.3685 9.68C60.4325 9.68 60.4925 9.68 60.5485 9.68C60.6125 9.68 60.6725 9.68 60.7285 9.68ZM65.2929 11.012C65.2129 11.052 65.1209 11.028 65.0169 10.94C64.9129 10.852 64.8409 10.78 64.8009 10.724C64.7289 10.628 64.6769 10.496 64.6449 10.328C64.6129 10.16 64.5969 10.02 64.5969 9.908C64.5969 9.7 64.5809 9.58 64.5489 9.548C64.5249 9.516 64.4729 9.544 64.3929 9.632C64.3209 9.712 64.2129 9.824 64.0689 9.968C64.0049 10.032 63.9009 10.116 63.7569 10.22C63.6129 10.324 63.4649 10.412 63.3129 10.484C63.1609 10.556 63.0329 10.592 62.9289 10.592C62.8569 10.584 62.7849 10.544 62.7129 10.472C62.6409 10.4 62.5769 10.32 62.5209 10.232C62.4729 10.136 62.4369 10.056 62.4129 9.992C62.3729 9.872 62.3689 9.676 62.4009 9.404C62.4409 9.124 62.5049 8.816 62.5929 8.48C62.6889 8.136 62.7969 7.808 62.9169 7.496C63.0449 7.176 63.1729 6.916 63.3009 6.716C63.4369 6.508 63.5689 6.404 63.6969 6.404C63.7849 6.404 63.8529 6.456 63.9009 6.56C63.9569 6.656 64.0009 6.736 64.0329 6.8C64.0729 6.88 64.0849 6.932 64.0689 6.956C64.0609 6.98 64.0289 7.024 63.9729 7.088C63.9089 7.168 63.8329 7.304 63.7449 7.496C63.6569 7.68 63.5649 7.884 63.4689 8.108C63.3809 8.324 63.3009 8.532 63.2289 8.732C63.1569 8.932 63.1049 9.084 63.0729 9.188C63.0569 9.252 63.0329 9.34 63.0009 9.452C62.9769 9.564 62.9689 9.652 62.9769 9.716C62.9769 9.724 62.9809 9.744 62.9889 9.776C62.9969 9.8 63.0289 9.812 63.0849 9.812C63.2609 9.812 63.4369 9.74 63.6129 9.596C63.7969 9.444 63.9769 9.248 64.1529 9.008C64.3369 8.768 64.5089 8.516 64.6689 8.252C64.8289 7.988 64.9769 7.736 65.1129 7.496C65.2569 7.256 65.3809 7.06 65.4849 6.908C65.5889 6.748 65.6729 6.664 65.7369 6.656C65.7929 6.648 65.8569 6.656 65.9289 6.68C66.0089 6.696 66.0769 6.724 66.1329 6.764C66.1889 6.804 66.2129 6.86 66.2049 6.932C66.1089 7.228 65.9929 7.524 65.8569 7.82C65.7209 8.108 65.5929 8.4 65.4729 8.696C65.3609 8.992 65.2809 9.296 65.2329 9.608C65.2009 9.8 65.2129 9.988 65.2689 10.172C65.3329 10.356 65.4329 10.52 65.5689 10.664C65.6489 10.744 65.6409 10.82 65.5449 10.892C65.4489 10.964 65.3649 11.004 65.2929 11.012ZM70.4465 6.74C70.5585 6.676 70.6745 6.656 70.7945 6.68C70.9145 6.696 71.0065 6.748 71.0705 6.836C71.1425 6.916 71.1545 7.02 71.1065 7.148C71.1225 7.1 71.1025 7.132 71.0465 7.244C70.9985 7.348 70.9345 7.484 70.8545 7.652C70.7825 7.82 70.7145 7.98 70.6505 8.132C70.5945 8.276 70.5585 8.36 70.5425 8.384V8.42C70.6705 8.42 70.7465 8.46 70.7705 8.54C70.8025 8.612 70.8145 8.696 70.8065 8.792C70.7105 8.808 70.6425 8.836 70.6025 8.876C70.5625 8.908 70.5105 8.928 70.4465 8.936C70.4225 8.936 70.3945 8.948 70.3625 8.972C70.3305 8.996 70.3105 9.024 70.3025 9.056C70.2945 9.08 70.2705 9.176 70.2305 9.344C70.1985 9.504 70.1585 9.68 70.1105 9.872C70.0705 10.056 70.0345 10.196 70.0025 10.292C69.9865 10.356 69.9545 10.408 69.9065 10.448C69.8585 10.48 69.8265 10.5 69.8105 10.508C69.6505 10.444 69.5425 10.404 69.4865 10.388C69.4385 10.364 69.3905 10.332 69.3425 10.292C69.3345 10.244 69.3345 10.188 69.3425 10.124C69.3505 10.052 69.3705 9.968 69.4025 9.872C69.4425 9.752 69.4745 9.64 69.4985 9.536C69.5305 9.424 69.5625 9.268 69.5945 9.068C69.5625 9.052 69.4945 9.052 69.3905 9.068C69.2945 9.076 69.1905 9.088 69.0785 9.104C68.9665 9.12 68.8705 9.136 68.7905 9.152C68.7185 9.168 68.6865 9.172 68.6945 9.164C68.6545 9.18 68.5785 9.192 68.4665 9.2C68.3625 9.2 68.2545 9.196 68.1425 9.188C68.0385 9.172 67.9625 9.156 67.9145 9.14L67.8425 9.176C67.8345 9.256 67.7985 9.376 67.7345 9.536C67.6705 9.688 67.6385 9.832 67.6385 9.968C67.6305 10.072 67.6145 10.176 67.5905 10.28C67.5665 10.384 67.5505 10.492 67.5425 10.604C67.5345 10.78 67.4865 10.888 67.3985 10.928C67.3185 10.968 67.1945 10.94 67.0265 10.844C66.9865 10.82 66.9465 10.792 66.9065 10.76C66.8745 10.728 66.8385 10.692 66.7985 10.652L66.9905 9.728C67.0225 9.616 67.0505 9.512 67.0745 9.416C67.0985 9.312 67.1265 9.212 67.1585 9.116C67.2225 8.94 67.2825 8.76 67.3385 8.576C67.4025 8.392 67.4745 8.22 67.5545 8.06C67.5545 8.06 67.5665 8.02 67.5905 7.94C67.6225 7.852 67.6585 7.756 67.6985 7.652C67.7385 7.54 67.7705 7.452 67.7945 7.388C67.8185 7.324 67.8225 7.312 67.8065 7.352C67.8305 7.304 67.8665 7.212 67.9145 7.076C67.9625 6.932 68.0065 6.796 68.0465 6.668C68.0945 6.532 68.1185 6.46 68.1185 6.452C68.1345 6.404 68.1585 6.372 68.1905 6.356C68.2225 6.332 68.2625 6.32 68.3105 6.32C68.4465 6.312 68.5585 6.344 68.6465 6.416C68.7345 6.48 68.7825 6.56 68.7905 6.656C68.7825 6.704 68.7785 6.748 68.7785 6.788C68.7785 6.828 68.7705 6.86 68.7545 6.884L68.1305 8.408V8.504C68.2105 8.552 68.3265 8.56 68.4785 8.528C68.6385 8.488 68.7585 8.468 68.8385 8.468C68.8785 8.46 68.9705 8.452 69.1145 8.444C69.2665 8.436 69.4105 8.432 69.5465 8.432C69.6905 8.432 69.7665 8.436 69.7745 8.444C69.8625 8.204 69.9425 7.98 70.0145 7.772C70.0865 7.556 70.1865 7.336 70.3145 7.112C70.3225 7.096 70.3385 7.044 70.3625 6.956C70.3945 6.868 70.4225 6.796 70.4465 6.74ZM73.4358 10.724C73.2598 10.724 73.1278 10.716 73.0398 10.7C72.9518 10.684 72.8838 10.66 72.8358 10.628C72.7878 10.596 72.7318 10.552 72.6678 10.496C72.6358 10.432 72.5958 10.364 72.5478 10.292C72.4998 10.22 72.4598 10.168 72.4278 10.136C72.3958 10.016 72.3798 9.86 72.3798 9.668C72.3878 9.476 72.4118 9.268 72.4518 9.044C72.4998 8.82 72.5638 8.612 72.6438 8.42C72.6758 8.356 72.7038 8.292 72.7278 8.228C72.7518 8.164 72.7638 8.132 72.7638 8.132C72.7638 8.092 72.8118 7.996 72.9078 7.844C73.0118 7.692 73.1238 7.532 73.2438 7.364C73.3718 7.196 73.4758 7.076 73.5558 7.004C73.6118 6.94 73.6958 6.872 73.8078 6.8C73.9278 6.728 74.0318 6.676 74.1198 6.644C74.2078 6.612 74.2958 6.584 74.3838 6.56C74.4798 6.536 74.5878 6.524 74.7078 6.524C74.8198 6.524 74.9238 6.548 75.0198 6.596C75.1158 6.644 75.2078 6.728 75.2958 6.848C75.4398 6.992 75.5198 7.136 75.5358 7.28C75.5598 7.416 75.5558 7.556 75.5238 7.7C75.4838 7.86 75.4318 7.984 75.3678 8.072C75.3038 8.152 75.2318 8.188 75.1518 8.18C75.0718 8.172 74.9798 8.112 74.8758 8C74.8438 7.936 74.8278 7.884 74.8278 7.844C74.8278 7.796 74.8438 7.728 74.8758 7.64C74.9078 7.528 74.9078 7.412 74.8758 7.292C74.8438 7.172 74.7918 7.112 74.7198 7.112C74.6158 7.112 74.4998 7.16 74.3718 7.256C74.2518 7.344 74.1278 7.456 73.9998 7.592C73.9438 7.656 73.8638 7.756 73.7598 7.892C73.6638 8.02 73.5678 8.164 73.4718 8.324C73.3758 8.476 73.2958 8.624 73.2318 8.768C73.1438 9.032 73.0718 9.244 73.0158 9.404C72.9678 9.564 72.9438 9.644 72.9438 9.644C72.9438 9.676 72.9518 9.708 72.9678 9.74C72.9918 9.764 73.0038 9.792 73.0038 9.824C73.0038 9.92 73.0598 9.996 73.1718 10.052C73.2598 10.108 73.3638 10.14 73.4838 10.148C73.6038 10.148 73.7518 10.108 73.9278 10.028C74.0558 9.964 74.1758 9.88 74.2878 9.776C74.4078 9.672 74.5318 9.58 74.6598 9.5C74.7478 9.444 74.8158 9.396 74.8638 9.356C74.9198 9.316 74.9478 9.312 74.9478 9.344C74.9478 9.376 74.9598 9.392 74.9838 9.392C75.0078 9.392 75.0358 9.376 75.0678 9.344C75.1158 9.28 75.1678 9.24 75.2238 9.224C75.2798 9.2 75.3278 9.192 75.3678 9.2C75.4158 9.2 75.4398 9.212 75.4398 9.236C75.4238 9.308 75.4398 9.368 75.4878 9.416C75.4878 9.448 75.4758 9.492 75.4518 9.548C75.4358 9.596 75.4118 9.636 75.3798 9.668C75.3398 9.724 75.2798 9.788 75.1998 9.86C75.1278 9.932 75.0598 9.996 74.9958 10.052C74.9318 10.1 74.8998 10.124 74.8998 10.124C74.8678 10.116 74.8358 10.124 74.8038 10.148C74.7798 10.172 74.7518 10.2 74.7198 10.232C74.6558 10.288 74.5958 10.332 74.5398 10.364C74.4838 10.388 74.4398 10.4 74.4078 10.4C74.3518 10.432 74.3078 10.452 74.2758 10.46C74.2518 10.468 74.2398 10.488 74.2398 10.52C74.1598 10.6 74.0598 10.656 73.9398 10.688C73.8278 10.712 73.6598 10.724 73.4358 10.724ZM76.8268 10.736C76.7468 10.68 76.6868 10.628 76.6468 10.58C76.6068 10.532 76.5908 10.464 76.5988 10.376C76.6148 10.256 76.6388 10.132 76.6708 10.004C76.7028 9.868 76.7428 9.736 76.7908 9.608C76.8148 9.464 76.8428 9.32 76.8748 9.176C76.9148 9.032 76.9788 8.896 77.0668 8.768C77.2028 8.384 77.3268 8.012 77.4388 7.652C77.5588 7.284 77.7188 6.852 77.9188 6.356C77.9588 6.268 77.9948 6.204 78.0268 6.164C78.0668 6.116 78.1028 6.068 78.1348 6.02C78.1428 5.988 78.1668 5.972 78.2068 5.972C78.2548 5.964 78.3068 5.972 78.3628 5.996C78.4188 6.012 78.4628 6.04 78.4948 6.08C78.5268 6.072 78.5708 6.124 78.6268 6.236C78.6908 6.348 78.7148 6.436 78.6988 6.5C78.6988 6.532 78.6908 6.576 78.6748 6.632C78.6588 6.688 78.6348 6.74 78.6028 6.788C78.5708 6.82 78.5388 6.868 78.5068 6.932C78.4748 6.988 78.4268 7.064 78.3628 7.16C78.2828 7.384 78.2148 7.572 78.1588 7.724C78.1028 7.876 78.0348 8.048 77.9548 8.24C77.8988 8.32 77.8548 8.428 77.8228 8.564C77.7908 8.7 77.7588 8.832 77.7268 8.96C77.6708 9.104 77.6188 9.236 77.5708 9.356C77.5308 9.476 77.5108 9.552 77.5108 9.584C77.4548 9.76 77.4108 9.936 77.3788 10.112C77.3468 10.28 77.2948 10.428 77.2228 10.556C77.2148 10.676 77.1788 10.756 77.1148 10.796C77.0588 10.836 76.9628 10.816 76.8268 10.736ZM79.6948 10.928C79.5668 10.912 79.4708 10.888 79.4068 10.856C79.3428 10.816 79.2228 10.732 79.0468 10.604C78.9508 10.508 78.8188 10.36 78.6508 10.16C78.4828 9.96 78.3148 9.748 78.1468 9.524C77.9788 9.292 77.8388 9.096 77.7268 8.936L78.2188 8.276C78.3228 8.404 78.4068 8.524 78.4708 8.636C78.5348 8.748 78.5868 8.824 78.6268 8.864C78.8108 9.136 78.9548 9.356 79.0588 9.524C79.1708 9.692 79.2708 9.828 79.3588 9.932C79.4468 10.036 79.5388 10.128 79.6348 10.208C79.7388 10.288 79.8668 10.372 80.0188 10.46C80.0428 10.476 80.0668 10.5 80.0908 10.532C80.1148 10.564 80.1228 10.612 80.1148 10.676C80.0828 10.764 80.0468 10.82 80.0068 10.844C79.9748 10.86 79.8708 10.888 79.6948 10.928ZM77.6908 8.804C77.6428 8.668 77.6588 8.532 77.7388 8.396C77.8268 8.252 77.9228 8.152 78.0268 8.096C78.0588 8.04 78.0908 8.004 78.1228 7.988C78.1628 7.964 78.1868 7.936 78.1948 7.904C78.2108 7.872 78.2508 7.828 78.3148 7.772C78.3868 7.716 78.4508 7.664 78.5068 7.616C78.6348 7.536 78.7788 7.44 78.9388 7.328C79.1068 7.208 79.2668 7.088 79.4188 6.968C79.5708 6.848 79.6988 6.744 79.8028 6.656C79.9148 6.568 79.9828 6.512 80.0068 6.488C80.0308 6.456 80.0628 6.436 80.1028 6.428C80.1508 6.412 80.2108 6.42 80.2828 6.452C80.3788 6.476 80.4428 6.516 80.4748 6.572C80.5068 6.62 80.5228 6.716 80.5228 6.86C80.5468 6.948 80.5108 7.044 80.4148 7.148C80.3268 7.244 80.1908 7.352 80.0068 7.472C79.9428 7.512 79.8548 7.572 79.7428 7.652C79.6388 7.732 79.5468 7.808 79.4668 7.88C79.4108 7.912 79.3268 7.968 79.2148 8.048C79.1108 8.12 79.0188 8.192 78.9388 8.264C78.8748 8.304 78.7908 8.376 78.6868 8.48C78.5828 8.576 78.4788 8.648 78.3748 8.696C78.1188 8.936 77.9508 9.064 77.8708 9.08C77.7908 9.096 77.7308 9.004 77.6908 8.804ZM84.3537 10.976C84.2737 10.896 84.1937 10.788 84.1137 10.652C84.0337 10.508 83.9697 10.344 83.9217 10.16C83.9057 10.096 83.8977 10.008 83.8977 9.896C83.9057 9.784 83.9057 9.704 83.8977 9.656C83.8737 9.712 83.8337 9.772 83.7777 9.836C83.7297 9.892 83.6817 9.94 83.6337 9.98C83.6017 10.012 83.5297 10.076 83.4177 10.172C83.3057 10.26 83.1937 10.332 83.0817 10.388C82.8177 10.556 82.5977 10.648 82.4217 10.664C82.2537 10.68 82.0937 10.592 81.9417 10.4C81.8137 10.296 81.7217 10.18 81.6657 10.052C81.6177 9.924 81.6177 9.748 81.6657 9.524C81.6817 9.244 81.7217 8.972 81.7857 8.708C81.8497 8.436 81.9817 8.076 82.1817 7.628C82.3497 7.3 82.4777 7.06 82.5657 6.908C82.6537 6.748 82.7097 6.652 82.7337 6.62C82.8537 6.58 82.9537 6.584 83.0337 6.632C83.1137 6.672 83.1617 6.748 83.1777 6.86C83.2257 6.94 83.2177 7.076 83.1537 7.268C83.0977 7.46 82.9977 7.696 82.8537 7.976C82.7417 8.248 82.6377 8.52 82.5417 8.792C82.4537 9.064 82.4017 9.296 82.3857 9.488C82.3697 9.68 82.4177 9.796 82.5297 9.836C82.6017 9.876 82.7257 9.864 82.9017 9.8C83.0857 9.736 83.2897 9.576 83.5137 9.32C83.7457 9.064 83.9697 8.676 84.1857 8.156C84.2497 7.996 84.2977 7.856 84.3297 7.736C84.3617 7.608 84.3817 7.468 84.3897 7.316C84.3737 7.22 84.3777 7.136 84.4017 7.064C84.4337 6.984 84.4977 6.916 84.5937 6.86C84.6257 6.82 84.6697 6.784 84.7257 6.752C84.7817 6.712 84.8177 6.712 84.8337 6.752L85.0257 6.74C85.0577 6.732 85.0777 6.752 85.0857 6.8C85.1017 6.84 85.1297 6.876 85.1697 6.908C85.2577 6.98 85.2817 7.136 85.2417 7.376C85.2017 7.616 85.0897 7.952 84.9057 8.384C84.7537 8.712 84.6497 8.96 84.5937 9.128C84.5457 9.296 84.5177 9.46 84.5097 9.62C84.5097 9.764 84.5377 9.9 84.5937 10.028C84.6497 10.156 84.7377 10.272 84.8577 10.376C84.9457 10.432 84.9937 10.496 85.0017 10.568C85.0177 10.64 85.0217 10.724 85.0137 10.82C84.9977 10.892 84.9497 10.952 84.8697 11C84.7977 11.04 84.7137 11.06 84.6177 11.06C84.5217 11.06 84.4337 11.032 84.3537 10.976ZM89.1551 10.976C89.0991 11.008 89.0231 10.996 88.9271 10.94C88.8391 10.884 88.7511 10.8 88.6631 10.688C88.6071 10.592 88.5671 10.488 88.5431 10.376C88.5271 10.264 88.5191 10.108 88.5191 9.908C88.5271 9.748 88.5191 9.644 88.4951 9.596C88.4791 9.548 88.4351 9.556 88.3631 9.62C88.2911 9.676 88.1671 9.792 87.9911 9.968C87.7911 10.168 87.5991 10.324 87.4151 10.436C87.2391 10.548 87.0951 10.6 86.9831 10.592C86.9271 10.592 86.8631 10.564 86.7911 10.508C86.7271 10.444 86.6671 10.368 86.6111 10.28C86.5551 10.184 86.5071 10.088 86.4671 9.992C86.4191 9.816 86.4111 9.592 86.4431 9.32C86.4831 9.04 86.5471 8.748 86.6351 8.444C86.7231 8.14 86.8231 7.852 86.9351 7.58C87.0551 7.308 87.1751 7.088 87.2951 6.92C87.4231 6.752 87.5351 6.668 87.6311 6.668C87.6951 6.668 87.7511 6.7 87.7991 6.764C87.8551 6.828 87.9111 6.928 87.9671 7.064C87.9991 7.12 88.0111 7.168 88.0031 7.208C88.0031 7.248 87.9711 7.296 87.9071 7.352C87.8351 7.448 87.7511 7.592 87.6551 7.784C87.5671 7.976 87.4791 8.184 87.3911 8.408C87.3111 8.632 87.2391 8.848 87.1751 9.056C87.1111 9.264 87.0671 9.436 87.0431 9.572C87.0191 9.7 87.0231 9.764 87.0551 9.764C87.1671 9.764 87.2991 9.72 87.4511 9.632C87.6111 9.536 87.7631 9.42 87.9071 9.284C88.0751 9.116 88.2231 8.932 88.3511 8.732C88.4871 8.532 88.6231 8.32 88.7591 8.096C88.8631 7.936 88.9711 7.76 89.0831 7.568C89.2031 7.376 89.2791 7.24 89.3111 7.16C89.4231 6.952 89.5071 6.812 89.5631 6.74C89.6191 6.66 89.6871 6.608 89.7671 6.584C89.8071 6.584 89.8431 6.584 89.8751 6.584C89.9151 6.584 89.9351 6.584 89.9351 6.584C89.9831 6.592 90.0391 6.628 90.1031 6.692C90.1671 6.724 90.2031 6.756 90.2111 6.788C90.2191 6.812 90.2231 6.844 90.2231 6.884C90.1911 6.964 90.1391 7.084 90.0671 7.244C90.0031 7.396 89.9551 7.508 89.9231 7.58C89.7711 7.924 89.6191 8.264 89.4671 8.6C89.3231 8.928 89.2191 9.264 89.1551 9.608C89.1391 9.72 89.1351 9.852 89.1431 10.004C89.1591 10.148 89.1831 10.252 89.2151 10.316C89.2391 10.364 89.2671 10.42 89.2991 10.484C89.3391 10.54 89.3831 10.588 89.4311 10.628C89.5031 10.676 89.5151 10.728 89.4671 10.784C89.4271 10.84 89.3711 10.888 89.2991 10.928C89.2271 10.96 89.1791 10.976 89.1551 10.976ZM88.9991 5.996C88.7511 6.028 88.5431 5.956 88.3751 5.78C88.2071 5.604 88.0791 5.344 87.9911 5C87.9751 4.936 87.9671 4.88 87.9671 4.832C87.9751 4.776 87.9911 4.728 88.0151 4.688C88.0311 4.656 88.0631 4.632 88.1111 4.616C88.1591 4.592 88.1991 4.588 88.2311 4.604C88.3431 4.644 88.4231 4.696 88.4711 4.76C88.5271 4.816 88.5631 4.888 88.5791 4.976C88.5951 5.016 88.6031 5.056 88.6031 5.096C88.6111 5.136 88.6151 5.152 88.6151 5.144C88.6551 5.272 88.7071 5.36 88.7711 5.408C88.8351 5.456 88.9311 5.452 89.0591 5.396C89.1951 5.34 89.3271 5.276 89.4551 5.204C89.5911 5.132 89.7111 5.044 89.8151 4.94C89.9031 4.852 89.9871 4.772 90.0671 4.7C90.1551 4.628 90.2391 4.552 90.3191 4.472L90.3311 4.46C90.3631 4.436 90.4031 4.428 90.4511 4.436C90.4991 4.444 90.5271 4.456 90.5351 4.472C90.5911 4.528 90.6191 4.584 90.6191 4.64C90.6191 4.696 90.6191 4.756 90.6191 4.82L90.6071 4.844C90.6231 4.892 90.5831 4.984 90.4871 5.12C90.3991 5.256 90.2911 5.372 90.1631 5.468C90.0511 5.556 89.9311 5.636 89.8031 5.708C89.6751 5.78 89.5431 5.848 89.4071 5.912C89.3511 5.944 89.2911 5.964 89.2271 5.972C89.1711 5.972 89.0951 5.98 88.9991 5.996ZM94.7252 9.896C94.7332 9.824 94.7572 9.732 94.7972 9.62C94.8372 9.508 94.8772 9.4 94.9172 9.296C94.9572 9.192 94.9852 9.124 95.0012 9.092C95.0972 8.908 95.1852 8.72 95.2652 8.528C95.3532 8.328 95.4252 8.128 95.4812 7.928C95.4972 7.88 95.5252 7.796 95.5652 7.676C95.6132 7.556 95.6572 7.436 95.6972 7.316C95.7452 7.188 95.7692 7.096 95.7692 7.04C95.7852 6.928 95.8252 6.828 95.8892 6.74C95.9612 6.652 96.0492 6.592 96.1532 6.56C96.2412 6.576 96.3172 6.604 96.3812 6.644C96.4452 6.684 96.5052 6.724 96.5612 6.764C96.6092 6.812 96.6252 6.888 96.6092 6.992C96.5932 7.096 96.5612 7.228 96.5132 7.388C96.4812 7.5 96.4252 7.644 96.3452 7.82C96.2732 7.996 96.1972 8.172 96.1172 8.348C96.0452 8.516 95.9892 8.652 95.9492 8.756C95.8692 8.964 95.7812 9.204 95.6852 9.476C95.5972 9.748 95.5252 9.956 95.4692 10.1C95.4372 10.196 95.4772 10.276 95.5892 10.34C95.7252 10.388 95.8772 10.404 96.0452 10.388C96.2132 10.364 96.3732 10.328 96.5252 10.28C96.6852 10.224 96.8172 10.168 96.9212 10.112C97.0252 10.056 97.0772 10.02 97.0772 10.004C97.0852 9.948 97.0972 9.88 97.1132 9.8C97.1372 9.72 97.1812 9.588 97.2452 9.404C97.3172 9.22 97.4172 8.944 97.5452 8.576C97.5452 8.576 97.5612 8.528 97.5932 8.432C97.6252 8.336 97.6652 8.228 97.7132 8.108C97.7612 7.98 97.8012 7.868 97.8332 7.772C97.8652 7.668 97.8812 7.616 97.8812 7.616C97.8812 7.408 97.9252 7.224 98.0132 7.064C98.1012 6.896 98.2012 6.788 98.3132 6.74C98.3772 6.732 98.4372 6.732 98.4932 6.74C98.5492 6.748 98.5972 6.772 98.6372 6.812C98.7012 6.868 98.7612 6.924 98.8172 6.98C98.8732 7.036 98.9052 7.116 98.9132 7.22C98.8812 7.276 98.8572 7.344 98.8412 7.424C98.8252 7.496 98.7932 7.564 98.7452 7.628C98.7052 7.692 98.6652 7.764 98.6252 7.844C98.5932 7.916 98.5812 7.984 98.5892 8.048L98.2772 8.828C98.2212 8.98 98.1532 9.156 98.0732 9.356C98.0012 9.556 97.9532 9.688 97.9292 9.752L98.3252 9.704C98.4292 9.704 98.5292 9.708 98.6252 9.716C98.7212 9.716 98.8292 9.756 98.9492 9.836C98.9732 9.836 98.9932 9.864 99.0092 9.92C99.0332 9.968 99.0532 10.028 99.0692 10.1C99.0932 10.172 99.1132 10.236 99.1292 10.292C99.1052 10.404 99.0492 10.556 98.9612 10.748C98.8732 10.94 98.7812 11.132 98.6852 11.324C98.5892 11.516 98.5092 11.668 98.4452 11.78C98.4132 11.836 98.3772 11.888 98.3372 11.936C98.2972 11.992 98.2572 12.048 98.2172 12.104C98.1292 12.248 98.0292 12.316 97.9172 12.308C97.8052 12.3 97.7052 12.224 97.6172 12.08C97.6172 11.992 97.6372 11.868 97.6772 11.708C97.7252 11.556 97.7572 11.452 97.7732 11.396C97.7812 11.372 97.8172 11.292 97.8812 11.156C97.9452 11.028 98.0092 10.896 98.0732 10.76C98.1372 10.624 98.1692 10.532 98.1692 10.484C98.1772 10.444 98.1692 10.412 98.1452 10.388C98.1212 10.364 98.0932 10.36 98.0612 10.376C98.0372 10.376 97.9692 10.4 97.8572 10.448C97.7532 10.496 97.6492 10.544 97.5452 10.592C97.4412 10.632 97.3692 10.652 97.3292 10.652C97.1372 10.748 96.9812 10.816 96.8612 10.856C96.7492 10.888 96.5892 10.936 96.3812 11C95.9652 11.008 95.6732 11 95.5052 10.976C95.3372 10.944 95.1972 10.888 95.0852 10.808C94.9492 10.704 94.8532 10.588 94.7972 10.46C94.7492 10.332 94.7252 10.216 94.7252 10.112C94.7252 10 94.7252 9.928 94.7252 9.896ZM102.37 10.58C102.202 10.724 102.006 10.808 101.782 10.832C101.566 10.856 101.354 10.824 101.146 10.736C100.938 10.64 100.766 10.496 100.63 10.304C100.494 10.128 100.406 9.928 100.366 9.704C100.326 9.472 100.322 9.172 100.354 8.804C100.378 8.492 100.478 8.18 100.654 7.868C100.83 7.548 101.042 7.264 101.29 7.016C101.546 6.768 101.798 6.596 102.046 6.5C102.166 6.42 102.266 6.384 102.346 6.392C102.434 6.392 102.566 6.4 102.742 6.416C102.926 6.44 103.062 6.476 103.15 6.524C103.246 6.572 103.322 6.636 103.378 6.716C103.498 6.836 103.578 6.956 103.618 7.076C103.658 7.188 103.678 7.3 103.678 7.412C103.646 7.588 103.526 7.804 103.318 8.06C103.118 8.308 102.854 8.512 102.526 8.672C102.35 8.728 102.158 8.752 101.95 8.744C101.742 8.736 101.57 8.684 101.434 8.588C101.282 8.524 101.182 8.536 101.134 8.624C101.086 8.704 101.042 8.904 101.002 9.224C100.97 9.528 100.994 9.752 101.074 9.896C101.154 10.032 101.262 10.112 101.398 10.136C101.558 10.168 101.682 10.192 101.77 10.208C101.866 10.216 101.982 10.18 102.118 10.1C102.246 10.02 102.326 9.976 102.358 9.968C102.39 9.952 102.414 9.936 102.43 9.92C102.454 9.896 102.506 9.844 102.586 9.764C102.642 9.708 102.686 9.668 102.718 9.644C102.75 9.612 102.786 9.596 102.826 9.596C102.866 9.596 102.902 9.616 102.934 9.656C102.966 9.688 102.998 9.712 103.03 9.728C103.11 9.728 103.126 9.776 103.078 9.872C103.038 9.968 102.954 10.084 102.826 10.22C102.698 10.348 102.546 10.468 102.37 10.58ZM102.358 8.036C102.446 7.996 102.538 7.94 102.634 7.868C102.73 7.788 102.81 7.704 102.874 7.616C102.946 7.52 102.982 7.44 102.982 7.376C102.982 7.264 102.93 7.172 102.826 7.1C102.722 7.02 102.566 7.008 102.358 7.064C102.27 7.088 102.17 7.148 102.058 7.244C101.946 7.332 101.838 7.432 101.734 7.544C101.638 7.656 101.558 7.756 101.494 7.844C101.438 7.932 101.418 7.984 101.434 8C101.458 8.04 101.526 8.072 101.638 8.096C101.75 8.112 101.874 8.116 102.01 8.108C102.154 8.1 102.27 8.076 102.358 8.036ZM107.448 10.868C107.4 10.852 107.352 10.84 107.304 10.832C107.256 10.816 107.208 10.8 107.16 10.784C107.12 10.768 107.072 10.756 107.016 10.748C106.936 10.636 106.904 10.5 106.92 10.34C106.936 10.172 106.972 10 107.028 9.824C107.092 9.648 107.152 9.476 107.208 9.308C107.272 9.14 107.308 8.996 107.316 8.876C107.308 8.844 107.296 8.836 107.28 8.852C107.264 8.86 107.256 8.872 107.256 8.888C107.2 8.952 107.12 8.996 107.016 9.02C106.912 9.044 106.816 9.064 106.728 9.08C106.576 9.104 106.424 9.132 106.272 9.164C106.12 9.196 105.972 9.232 105.828 9.272C105.804 9.256 105.776 9.236 105.744 9.212C105.72 9.188 105.696 9.168 105.672 9.152C105.616 9.152 105.568 9.204 105.528 9.308C105.488 9.412 105.452 9.54 105.42 9.692C105.388 9.836 105.356 9.976 105.324 10.112C105.3 10.24 105.276 10.332 105.252 10.388C105.124 10.404 105.032 10.408 104.976 10.4C104.928 10.392 104.836 10.368 104.7 10.328C104.636 10.24 104.6 10.156 104.592 10.076C104.592 9.996 104.604 9.908 104.628 9.812C104.668 9.628 104.7 9.48 104.724 9.368C104.756 9.256 104.808 9.112 104.88 8.936C104.92 8.848 104.956 8.764 104.988 8.684C105.028 8.596 105.048 8.5 105.048 8.396C105.112 8.316 105.156 8.228 105.18 8.132C105.204 8.036 105.232 7.94 105.264 7.844C105.392 7.516 105.492 7.264 105.564 7.088C105.644 6.904 105.7 6.76 105.732 6.656C105.764 6.552 105.784 6.456 105.792 6.368C105.8 6.256 105.868 6.2 105.996 6.2C106.076 6.2 106.16 6.232 106.248 6.296C106.336 6.352 106.404 6.424 106.452 6.512C106.5 6.6 106.504 6.692 106.464 6.788C106.44 6.852 106.4 6.956 106.344 7.1C106.296 7.236 106.24 7.388 106.176 7.556C106.12 7.716 106.064 7.868 106.008 8.012C105.96 8.148 105.92 8.248 105.888 8.312C105.88 8.344 105.864 8.372 105.84 8.396C105.816 8.412 105.804 8.44 105.804 8.48C105.86 8.52 105.952 8.536 106.08 8.528C106.216 8.512 106.312 8.488 106.368 8.456C106.488 8.456 106.604 8.456 106.716 8.456C106.836 8.456 106.956 8.456 107.076 8.456C107.196 8.528 107.288 8.636 107.352 8.78C107.408 8.628 107.484 8.428 107.58 8.18C107.676 7.924 107.768 7.672 107.856 7.424C107.944 7.176 107.996 6.988 108.012 6.86C108.028 6.788 108.06 6.724 108.108 6.668C108.156 6.612 108.208 6.568 108.264 6.536C108.376 6.592 108.484 6.64 108.588 6.68C108.7 6.712 108.772 6.804 108.804 6.956C108.796 7.028 108.78 7.1 108.756 7.172C108.732 7.236 108.708 7.3 108.684 7.364C108.604 7.596 108.504 7.852 108.384 8.132C108.264 8.404 108.152 8.684 108.048 8.972C107.952 9.252 107.884 9.516 107.844 9.764C107.844 9.788 107.824 9.868 107.784 10.004C107.752 10.14 107.716 10.272 107.676 10.4C107.644 10.528 107.624 10.596 107.616 10.604C107.616 10.66 107.6 10.712 107.568 10.76C107.536 10.8 107.496 10.836 107.448 10.868ZM110.26 10.412C110.172 10.356 110.092 10.284 110.02 10.196C109.948 10.1 109.912 9.98 109.912 9.836C109.912 9.756 109.928 9.62 109.96 9.428C109.992 9.236 110.036 9.02 110.092 8.78C110.148 8.54 110.204 8.316 110.26 8.108C110.34 7.964 110.408 7.82 110.464 7.676C110.52 7.532 110.548 7.444 110.548 7.412C110.564 7.316 110.584 7.204 110.608 7.076C110.64 6.948 110.672 6.832 110.704 6.728C110.736 6.624 110.76 6.564 110.776 6.548C110.816 6.508 110.864 6.484 110.92 6.476C110.976 6.46 111.032 6.468 111.088 6.5C111.152 6.524 111.2 6.576 111.232 6.656C111.32 6.752 111.364 6.868 111.364 7.004C111.364 7.132 111.32 7.324 111.232 7.58C111.16 7.74 111.088 7.928 111.016 8.144C110.944 8.36 110.88 8.56 110.824 8.744C110.776 8.92 110.748 9.04 110.74 9.104L110.5 9.176C110.636 9.048 110.764 8.916 110.884 8.78C111.004 8.636 111.092 8.524 111.148 8.444C111.284 8.26 111.4 8.108 111.496 7.988C111.6 7.86 111.732 7.708 111.892 7.532C112.052 7.348 112.208 7.236 112.36 7.196C112.52 7.148 112.644 7.124 112.732 7.124C112.908 7.156 113.048 7.248 113.152 7.4C113.264 7.544 113.336 7.76 113.368 8.048C113.368 8.16 113.356 8.292 113.332 8.444C113.316 8.596 113.308 8.672 113.308 8.672C113.308 8.672 113.372 8.588 113.5 8.42C113.636 8.252 113.816 8.068 114.04 7.868C114.192 7.756 114.34 7.692 114.484 7.676C114.628 7.652 114.756 7.7 114.868 7.82C115.076 7.932 115.212 8.104 115.276 8.336C115.34 8.56 115.356 8.848 115.324 9.2C115.3 9.408 115.296 9.564 115.312 9.668C115.328 9.764 115.352 9.86 115.384 9.956C115.448 9.988 115.46 10.056 115.42 10.16C115.38 10.256 115.332 10.304 115.276 10.304C115.196 10.304 115.104 10.288 115 10.256C114.904 10.224 114.816 10.172 114.736 10.1C114.664 10.02 114.628 9.912 114.628 9.776V9.032C114.628 8.856 114.62 8.712 114.604 8.6C114.596 8.488 114.576 8.42 114.544 8.396C114.456 8.348 114.328 8.4 114.16 8.552C113.992 8.704 113.812 8.908 113.62 9.164C113.428 9.42 113.248 9.684 113.08 9.956C112.928 10.204 112.832 10.348 112.792 10.388C112.76 10.42 112.7 10.408 112.612 10.352C112.436 10.296 112.324 10.22 112.276 10.124C112.236 10.02 112.232 9.904 112.264 9.776C112.304 9.64 112.352 9.456 112.408 9.224C112.472 8.992 112.532 8.768 112.588 8.552C112.644 8.328 112.68 8.168 112.696 8.072C112.664 8.008 112.608 7.988 112.528 8.012C112.456 8.028 112.38 8.064 112.3 8.12C112.204 8.184 112.088 8.304 111.952 8.48C111.816 8.656 111.676 8.86 111.532 9.092C111.436 9.244 111.336 9.396 111.232 9.548C111.128 9.692 111.032 9.82 110.944 9.932C110.856 10.044 110.78 10.128 110.716 10.184C110.604 10.36 110.528 10.456 110.488 10.472C110.448 10.488 110.372 10.468 110.26 10.412ZM116.303 13.688C116.271 13.688 116.231 13.688 116.183 13.688C116.135 13.696 116.091 13.664 116.051 13.592C116.019 13.552 115.999 13.492 115.991 13.412C115.991 13.332 116.011 13.188 116.051 12.98C116.091 12.844 116.123 12.708 116.147 12.572C116.171 12.444 116.183 12.348 116.183 12.284C116.183 12.252 116.191 12.188 116.207 12.092C116.231 12.004 116.243 11.94 116.243 11.9C116.283 11.836 116.315 11.748 116.339 11.636C116.363 11.524 116.375 11.424 116.375 11.336C116.375 11.24 116.423 11.152 116.519 11.072C116.519 11.008 116.531 10.928 116.555 10.832C116.587 10.736 116.603 10.672 116.603 10.64C116.627 10.528 116.679 10.332 116.759 10.052C116.847 9.764 116.951 9.44 117.071 9.08C117.199 8.72 117.323 8.368 117.443 8.024C117.563 7.68 117.671 7.388 117.767 7.148C117.863 6.924 117.927 6.732 117.959 6.572C117.999 6.404 118.019 6.28 118.019 6.2C118.019 6.168 118.027 6.144 118.043 6.128C118.059 6.104 118.095 6.06 118.151 5.996C118.231 5.916 118.299 5.892 118.355 5.924C118.419 5.956 118.495 6.004 118.583 6.068C118.647 6.172 118.691 6.26 118.715 6.332C118.747 6.404 118.747 6.528 118.715 6.704C118.715 6.824 118.695 6.928 118.655 7.016C118.615 7.104 118.579 7.172 118.547 7.22C118.515 7.26 118.507 7.276 118.523 7.268C118.851 7.116 119.139 7.036 119.387 7.028C119.643 7.012 119.855 7.056 120.023 7.16C120.199 7.256 120.331 7.392 120.419 7.568C120.507 7.744 120.551 7.948 120.551 8.18C120.551 8.276 120.531 8.392 120.491 8.528C120.451 8.656 120.399 8.776 120.335 8.888C120.279 8.992 120.227 9.068 120.179 9.116C120.147 9.116 120.115 9.144 120.083 9.2C120.051 9.248 120.019 9.304 119.987 9.368C119.923 9.448 119.819 9.54 119.675 9.644C119.539 9.74 119.403 9.82 119.267 9.884C119.131 9.94 119.031 9.956 118.967 9.932C118.967 9.932 118.955 9.936 118.931 9.944C118.915 9.944 118.907 9.964 118.907 10.004C118.907 10.02 118.843 10.056 118.715 10.112C118.587 10.16 118.439 10.208 118.271 10.256C118.103 10.296 117.955 10.316 117.827 10.316C117.659 10.316 117.539 10.284 117.467 10.22C117.451 10.236 117.431 10.26 117.407 10.292C117.391 10.324 117.383 10.352 117.383 10.376C117.383 10.424 117.363 10.516 117.323 10.652C117.291 10.78 117.251 10.904 117.203 11.024C117.155 11.144 117.111 11.204 117.071 11.204C117.071 11.204 117.063 11.216 117.047 11.24C117.031 11.264 117.039 11.296 117.071 11.336C117.071 11.336 117.067 11.38 117.059 11.468C117.059 11.564 117.039 11.644 116.999 11.708C116.999 11.772 116.987 11.868 116.963 11.996C116.939 12.124 116.911 12.22 116.879 12.284C116.879 12.38 116.863 12.472 116.831 12.56C116.807 12.656 116.779 12.704 116.747 12.704C116.715 12.712 116.695 12.76 116.687 12.848C116.679 12.944 116.675 13.012 116.675 13.052C116.667 13.252 116.627 13.408 116.555 13.52C116.483 13.632 116.399 13.688 116.303 13.688ZM117.755 9.68C117.819 9.68 117.951 9.652 118.151 9.596C118.351 9.54 118.555 9.472 118.763 9.392C118.979 9.304 119.139 9.216 119.243 9.128C119.451 8.944 119.611 8.736 119.723 8.504C119.843 8.264 119.835 8.036 119.699 7.82C119.635 7.708 119.519 7.664 119.351 7.688C119.183 7.704 118.999 7.768 118.799 7.88C118.599 7.992 118.411 8.132 118.235 8.3C118.139 8.404 118.051 8.532 117.971 8.684C117.891 8.836 117.823 8.988 117.767 9.14C117.719 9.292 117.691 9.42 117.683 9.524C117.675 9.628 117.699 9.68 117.755 9.68Z" fill="#0EB80E"/>
<mask id="mask0_464_4492" style="mask-type:alpha" maskUnits="userSpaceOnUse" x="0" y="7" width="36" height="30">
<path d="M35.1042 14.4685L31.2067 36.0822C31.2067 36.0822 19.4222 36.6793 14.4157 36.6793C6.45656 36.6793 0 30.2294 0 22.2636C0 14.2979 6.45656 7.85449 14.4157 7.85449C22.3749 7.85449 35.1042 14.4685 35.1042 14.4685Z" fill="#24D124"/>
</mask>
<g mask="url(#mask0_464_4492)">
<path fill-rule="evenodd" clip-rule="evenodd" d="M9.73744 17.9794C11.0207 17.9794 11.1638 17.127 11.5694 14.7109C11.6096 14.471 11.6525 14.2156 11.6993 13.9441C11.9076 12.7187 12.5533 10.655 13.0249 9.14763C13.3261 8.18517 13.5563 7.44954 13.5563 7.30379C13.5563 6.36549 4.23231 9.6397 4.23231 9.6397L-0.866008 17.3954C-0.866008 17.3954 2.18511 17.3364 5.01969 17.4611C6.54105 17.4611 7.48393 17.6424 8.2543 17.7906C8.78639 17.8929 9.23618 17.9794 9.73744 17.9794ZM9.56624 28.2356C14.1987 28.2356 16.2918 25.7226 16.2918 24.9942C16.2918 24.4883 16.0161 23.9983 15.644 23.3372C14.8725 21.9663 13.6869 19.8596 13.6869 15.3488C13.6869 11.1297 14.5237 7.92681 14.7599 7.92681C15.1667 7.92681 15.6357 8.30822 15.6357 9.14154C15.6357 9.5169 15.5932 10.0481 15.5554 10.5205L15.5554 10.5205C15.5251 10.8986 15.4979 11.239 15.4979 11.4315C15.4979 16.2346 18.0109 16.5758 18.7983 16.5758C20.8007 16.5758 22.7429 14.8417 24.173 13.5648C25.0063 12.8208 25.6658 12.232 26.062 12.232C26.4622 12.232 26.6853 12.4223 26.6853 12.8685C26.6853 13.4311 25.7473 14.5581 24.6218 15.9103L24.6218 15.9103C24.0014 16.6557 23.3241 17.4695 22.7156 18.2949C22.3386 18.8094 22.074 19.342 21.8243 19.8446C21.1569 21.1878 20.5958 22.3171 18.28 22.3171C16.738 22.3171 16.0097 22.094 16.0097 22.094C16.0097 22.094 16.2196 22.9339 17.7616 22.9339C19.4256 22.9339 20.3817 22.61 20.6882 22.5062C20.7466 22.4864 20.7815 22.4746 20.793 22.4746C21.1765 22.4746 21.3898 23.6248 21.6326 24.9349L21.6326 24.9349C21.7887 25.7768 21.9571 26.6847 22.1906 27.3957C22.7227 29.0199 23.3044 30.6178 23.7707 31.8985L23.7707 31.8985C24.2933 33.3342 24.6709 34.3714 24.6709 34.6003C24.6709 34.8956 24.4347 35.473 23.7523 35.473C22.9436 35.473 22.0486 33.4514 21.134 31.3857C20.1786 29.2278 19.2019 27.0217 18.28 27.0217C17.2354 27.0217 16.9621 29.6729 16.7036 32.18C16.4717 34.429 16.2518 36.5622 15.4979 36.5622H14.868C14.868 36.3046 14.9064 35.7619 14.9559 35.064L14.9559 35.0639L14.9559 35.0638L14.9559 35.0638L14.9559 35.0637C15.045 33.8063 15.1698 32.045 15.1698 30.5387C15.1698 29.3708 15.0189 27.8026 14.5399 27.8026C14.2052 27.8026 12.683 27.9141 12.683 29.817C12.683 30.939 13.6278 37.0018 13.6278 37.0018C13.6278 37.0018 9.04131 36.5557 9.04131 36.2079C9.04131 36.0961 9.25633 35.5088 9.5481 34.7119L9.54811 34.7119L9.54812 34.7118L9.54813 34.7118C10.1638 33.0301 11.1213 30.4148 11.1213 29.3642C11.1213 28.6949 10.5111 28.6621 10.1174 28.6621C8.81166 28.6621 8.70556 29.2156 8.28911 31.3879C8.10913 32.3267 7.87119 33.5679 7.45342 35.1974C3.96268 36.1029 -4.95446 24.1215 -1.41778 21.0704C-0.784122 20.524 -1.03012 20.0287 -1.22909 19.6281C-1.53902 19.0041 -1.73484 18.6098 1.68583 18.6098C7.41405 18.6098 7.88648 20.6767 7.88648 22.6124C7.88648 23.9057 7.72673 25.055 7.60908 25.9015L7.60908 25.9015C7.5405 26.3948 7.48623 26.7853 7.48623 27.0414C7.48623 27.7435 7.51904 28.2356 9.56624 28.2356ZM21.259 13.1375C21.259 11.4184 20.1961 10.7622 19.225 10.7622C17.6961 10.7622 16.6988 12.2845 16.6988 13.4656C16.6988 14.6467 17.4993 15.8606 18.7591 15.8606C20.0189 15.8606 21.259 14.8567 21.259 13.1375ZM8.45749 16.9491C6.68588 16.9491 6.2725 14.751 6.2725 14.751C6.2725 16.1355 6.92209 16.9557 6.92865 16.9491C5.54417 16.9491 5.43262 16.562 5.43262 16.562C5.43262 16.562 5.56385 15.5909 5.56385 14.751C5.56385 12.5529 6.38405 11.4637 7.86695 11.4637C8.64861 11.4637 9.11728 11.6349 9.58741 11.8066C10.0605 11.9793 10.535 12.1527 11.3314 12.1527C11.3314 14.0817 10.8918 14.6395 10.8853 14.6132C10.8853 14.0817 9.97321 12.4676 9.09396 12.4676C9.09396 12.4676 10.426 13.3797 10.426 14.8757C10.426 15.8468 9.91416 16.9491 8.45749 16.9491Z" fill="#0EB80E"/>
</g>
</svg>
