<svg width="239" height="56" viewBox="0 0 239 56" fill="none" xmlns="http://www.w3.org/2000/svg">
<path d="M74.278 6.38V22H72.76V14.696H63.498V22H61.958V6.38H63.498V13.332H72.76V6.38H74.278ZM84.4922 22.11C83.3922 22.11 82.3949 21.89 81.5002 21.45C80.6055 21.01 79.8355 20.416 79.1902 19.668C78.5449 18.9053 78.0462 18.0547 77.6942 17.116C77.3422 16.1627 77.1662 15.1873 77.1662 14.19C77.1662 13.1487 77.3495 12.1587 77.7162 11.22C78.0829 10.2667 78.5962 9.42333 79.2562 8.69C79.9309 7.942 80.7155 7.35533 81.6102 6.93C82.5049 6.49 83.4729 6.27 84.5142 6.27C85.6142 6.27 86.6115 6.49733 87.5062 6.952C88.4009 7.40667 89.1635 8.01533 89.7942 8.778C90.4395 9.54067 90.9382 10.3913 91.2902 11.33C91.6422 12.2687 91.8182 13.2293 91.8182 14.212C91.8182 15.2533 91.6349 16.2507 91.2682 17.204C90.9015 18.1427 90.3882 18.986 89.7282 19.734C89.0682 20.4673 88.2909 21.0467 87.3962 21.472C86.5015 21.8973 85.5335 22.11 84.4922 22.11ZM78.7062 14.19C78.7062 15.0407 78.8455 15.862 79.1242 16.654C79.4029 17.4313 79.7989 18.128 80.3122 18.744C80.8255 19.3453 81.4342 19.8293 82.1382 20.196C82.8569 20.548 83.6415 20.724 84.4922 20.724C85.3869 20.724 86.1862 20.5407 86.8902 20.174C87.6089 19.7927 88.2175 19.294 88.7162 18.678C89.2295 18.0473 89.6182 17.3433 89.8822 16.566C90.1462 15.7887 90.2782 14.9967 90.2782 14.19C90.2782 13.3393 90.1389 12.5253 89.8602 11.748C89.5815 10.9707 89.1782 10.274 88.6502 9.658C88.1369 9.042 87.5282 8.558 86.8242 8.206C86.1202 7.854 85.3429 7.678 84.4922 7.678C83.6122 7.678 82.8129 7.86133 82.0942 8.228C81.3902 8.59467 80.7815 9.09333 80.2682 9.724C79.7695 10.34 79.3809 11.0367 79.1022 11.814C78.8382 12.5913 78.7062 13.3833 78.7062 14.19ZM106.47 17.974C106.47 18.7513 106.272 19.448 105.876 20.064C105.48 20.6653 104.944 21.142 104.27 21.494C103.61 21.8313 102.884 22 102.092 22H94.7217V6.38H102.246C102.979 6.38 103.61 6.578 104.138 6.974C104.68 7.35533 105.091 7.854 105.37 8.47C105.663 9.07133 105.81 9.702 105.81 10.362C105.81 11.1393 105.612 11.858 105.216 12.518C104.82 13.178 104.27 13.6693 103.566 13.992C104.46 14.256 105.164 14.7473 105.678 15.466C106.206 16.1847 106.47 17.0207 106.47 17.974ZM104.93 17.71C104.93 17.182 104.812 16.698 104.578 16.258C104.343 15.8033 104.02 15.4367 103.61 15.158C103.214 14.8793 102.759 14.74 102.246 14.74H96.2617V20.658H102.092C102.62 20.658 103.096 20.5187 103.522 20.24C103.947 19.9613 104.284 19.602 104.534 19.162C104.798 18.7073 104.93 18.2233 104.93 17.71ZM96.2617 7.722V13.486H101.63C102.143 13.486 102.598 13.354 102.994 13.09C103.39 12.8113 103.705 12.452 103.94 12.012C104.174 11.572 104.292 11.1027 104.292 10.604C104.292 10.076 104.182 9.59933 103.962 9.174C103.742 8.734 103.441 8.382 103.06 8.118C102.678 7.854 102.246 7.722 101.762 7.722H96.2617ZM109.374 22V6.38H110.914V12.452H114.874C116.003 12.452 116.942 12.65 117.69 13.046C118.438 13.442 118.995 13.9993 119.362 14.718C119.743 15.4367 119.934 16.2727 119.934 17.226C119.934 18.0913 119.751 18.8907 119.384 19.624C119.017 20.3573 118.467 20.9367 117.734 21.362C117.001 21.7873 116.084 22 114.984 22H109.374ZM110.914 20.702H114.786C115.651 20.702 116.348 20.5407 116.876 20.218C117.404 19.8807 117.785 19.448 118.02 18.92C118.269 18.3773 118.394 17.8127 118.394 17.226C118.394 16.61 118.284 16.038 118.064 15.51C117.844 14.982 117.47 14.5567 116.942 14.234C116.414 13.9113 115.688 13.75 114.764 13.75H110.914V20.702ZM122.662 22V6.402H124.18V22H122.662ZM138.581 20.636V22H128.087V6.38H138.383V7.744H129.627V13.376H137.261V14.674H129.627V20.636H138.581ZM73.706 45.974C73.706 46.7513 73.508 47.448 73.112 48.064C72.716 48.6653 72.1807 49.142 71.506 49.494C70.846 49.8313 70.12 50 69.328 50H61.958V34.38H69.482C70.2153 34.38 70.846 34.578 71.374 34.974C71.9167 35.3553 72.3273 35.854 72.606 36.47C72.8993 37.0713 73.046 37.702 73.046 38.362C73.046 39.1393 72.848 39.858 72.452 40.518C72.056 41.178 71.506 41.6693 70.802 41.992C71.6967 42.256 72.4007 42.7473 72.914 43.466C73.442 44.1847 73.706 45.0207 73.706 45.974ZM72.166 45.71C72.166 45.182 72.0487 44.698 71.814 44.258C71.5793 43.8033 71.2567 43.4367 70.846 43.158C70.45 42.8793 69.9953 42.74 69.482 42.74H63.498V48.658H69.328C69.856 48.658 70.3327 48.5187 70.758 48.24C71.1833 47.9613 71.5207 47.602 71.77 47.162C72.034 46.7073 72.166 46.2233 72.166 45.71ZM63.498 35.722V41.486H68.866C69.3793 41.486 69.834 41.354 70.23 41.09C70.626 40.8113 70.9413 40.452 71.176 40.012C71.4107 39.572 71.528 39.1027 71.528 38.604C71.528 38.076 71.418 37.5993 71.198 37.174C70.978 36.734 70.6773 36.382 70.296 36.118C69.9147 35.854 69.482 35.722 68.998 35.722H63.498ZM82.9023 50.11C81.8023 50.11 80.805 49.89 79.9103 49.45C79.0157 49.01 78.2457 48.416 77.6003 47.668C76.955 46.9053 76.4563 46.0547 76.1043 45.116C75.7523 44.1627 75.5763 43.1873 75.5763 42.19C75.5763 41.1487 75.7597 40.1587 76.1263 39.22C76.493 38.2667 77.0063 37.4233 77.6663 36.69C78.341 35.942 79.1257 35.3553 80.0203 34.93C80.915 34.49 81.883 34.27 82.9243 34.27C84.0243 34.27 85.0217 34.4973 85.9163 34.952C86.811 35.4067 87.5737 36.0153 88.2043 36.778C88.8497 37.5407 89.3483 38.3913 89.7003 39.33C90.0523 40.2687 90.2283 41.2293 90.2283 42.212C90.2283 43.2533 90.045 44.2507 89.6783 45.204C89.3117 46.1427 88.7983 46.986 88.1383 47.734C87.4783 48.4673 86.701 49.0467 85.8063 49.472C84.9117 49.8973 83.9437 50.11 82.9023 50.11ZM77.1163 42.19C77.1163 43.0407 77.2557 43.862 77.5343 44.654C77.813 45.4313 78.209 46.128 78.7223 46.744C79.2357 47.3453 79.8443 47.8293 80.5483 48.196C81.267 48.548 82.0517 48.724 82.9023 48.724C83.797 48.724 84.5963 48.5407 85.3003 48.174C86.019 47.7927 86.6277 47.294 87.1263 46.678C87.6397 46.0473 88.0283 45.3433 88.2923 44.566C88.5563 43.7887 88.6883 42.9967 88.6883 42.19C88.6883 41.3393 88.549 40.5253 88.2703 39.748C87.9917 38.9707 87.5883 38.274 87.0603 37.658C86.547 37.042 85.9383 36.558 85.2343 36.206C84.5303 35.854 83.753 35.678 82.9023 35.678C82.0223 35.678 81.223 35.8613 80.5043 36.228C79.8003 36.5947 79.1917 37.0933 78.6783 37.724C78.1797 38.34 77.791 39.0367 77.5123 39.814C77.2483 40.5913 77.1163 41.3833 77.1163 42.19ZM97.0478 50.198C95.9772 50.198 95.0165 49.9707 94.1658 49.516C93.3152 49.0467 92.6478 48.4013 92.1638 47.58L93.3518 46.854C93.7185 47.4993 94.2172 47.998 94.8478 48.35C95.4785 48.702 96.2045 48.878 97.0258 48.878C98.1405 48.878 99.0205 48.592 99.6658 48.02C100.326 47.4333 100.656 46.656 100.656 45.688C100.656 45.072 100.516 44.5293 100.238 44.06C99.9738 43.576 99.5925 43.202 99.0938 42.938C98.5952 42.674 97.9938 42.542 97.2898 42.542H95.7938V41.31H97.3118C97.8545 41.31 98.3312 41.1853 98.7418 40.936C99.1525 40.672 99.4752 40.3273 99.7098 39.902C99.9445 39.4767 100.062 39 100.062 38.472C100.062 37.9 99.9298 37.4013 99.6658 36.976C99.4165 36.5507 99.0572 36.2133 98.5878 35.964C98.1332 35.7147 97.5978 35.59 96.9818 35.59C96.2338 35.59 95.5738 35.7587 95.0018 36.096C94.4298 36.4333 93.9752 36.9027 93.6378 37.504L92.5158 36.756C92.9705 35.9493 93.5718 35.3187 94.3198 34.864C95.0825 34.4093 95.9918 34.182 97.0478 34.182C97.9425 34.182 98.7198 34.358 99.3798 34.71C100.054 35.0473 100.582 35.524 100.964 36.14C101.36 36.7413 101.558 37.4527 101.558 38.274C101.558 39.066 101.36 39.7847 100.964 40.43C100.582 41.0607 100.025 41.5373 99.2918 41.86C100.216 42.1093 100.927 42.5933 101.426 43.312C101.939 44.0307 102.196 44.8667 102.196 45.82C102.196 46.7293 101.976 47.514 101.536 48.174C101.096 48.8193 100.487 49.318 99.7098 49.67C98.9472 50.022 98.0598 50.198 97.0478 50.198ZM118.958 50V37.284L113.304 47.162H112.336L106.66 37.284V50H105.12V34.38H106.704L112.798 45.072L118.936 34.38H120.498V50H118.958ZM130.705 50.11C129.605 50.11 128.608 49.89 127.713 49.45C126.818 49.01 126.048 48.416 125.403 47.668C124.758 46.9053 124.259 46.0547 123.907 45.116C123.555 44.1627 123.379 43.1873 123.379 42.19C123.379 41.1487 123.562 40.1587 123.929 39.22C124.296 38.2667 124.809 37.4233 125.469 36.69C126.144 35.942 126.928 35.3553 127.823 34.93C128.718 34.49 129.686 34.27 130.727 34.27C131.827 34.27 132.824 34.4973 133.719 34.952C134.614 35.4067 135.376 36.0153 136.007 36.778C136.652 37.5407 137.151 38.3913 137.503 39.33C137.855 40.2687 138.031 41.2293 138.031 42.212C138.031 43.2533 137.848 44.2507 137.481 45.204C137.114 46.1427 136.601 46.986 135.941 47.734C135.281 48.4673 134.504 49.0467 133.609 49.472C132.714 49.8973 131.746 50.11 130.705 50.11ZM124.919 42.19C124.919 43.0407 125.058 43.862 125.337 44.654C125.616 45.4313 126.012 46.128 126.525 46.744C127.038 47.3453 127.647 47.8293 128.351 48.196C129.07 48.548 129.854 48.724 130.705 48.724C131.6 48.724 132.399 48.5407 133.103 48.174C133.822 47.7927 134.43 47.294 134.929 46.678C135.442 46.0473 135.831 45.3433 136.095 44.566C136.359 43.7887 136.491 42.9967 136.491 42.19C136.491 41.3393 136.352 40.5253 136.073 39.748C135.794 38.9707 135.391 38.274 134.863 37.658C134.35 37.042 133.741 36.558 133.037 36.206C132.333 35.854 131.556 35.678 130.705 35.678C129.825 35.678 129.026 35.8613 128.307 36.228C127.603 36.5947 126.994 37.0933 126.481 37.724C125.982 38.34 125.594 39.0367 125.315 39.814C125.051 40.5913 124.919 41.3833 124.919 42.19ZM139.549 50L145.621 41.948L139.923 34.38H141.727L146.919 41.332H149.053V34.38H150.571V41.332H152.683L157.897 34.38H159.701L153.981 41.948L160.053 50H158.271L152.727 42.74H150.571V50H149.053V42.74H146.875L141.331 50H139.549ZM174.932 34.38V50H173.414V42.696H164.152V50H162.612V34.38H164.152V41.332H173.414V34.38H174.932ZM185.146 50.11C184.046 50.11 183.049 49.89 182.154 49.45C181.26 49.01 180.49 48.416 179.844 47.668C179.199 46.9053 178.7 46.0547 178.348 45.116C177.996 44.1627 177.82 43.1873 177.82 42.19C177.82 41.1487 178.004 40.1587 178.37 39.22C178.737 38.2667 179.25 37.4233 179.91 36.69C180.585 35.942 181.37 35.3553 182.264 34.93C183.159 34.49 184.127 34.27 185.168 34.27C186.268 34.27 187.266 34.4973 188.16 34.952C189.055 35.4067 189.818 36.0153 190.448 36.778C191.094 37.5407 191.592 38.3913 191.944 39.33C192.296 40.2687 192.472 41.2293 192.472 42.212C192.472 43.2533 192.289 44.2507 191.922 45.204C191.556 46.1427 191.042 46.986 190.382 47.734C189.722 48.4673 188.945 49.0467 188.05 49.472C187.156 49.8973 186.188 50.11 185.146 50.11ZM179.36 42.19C179.36 43.0407 179.5 43.862 179.778 44.654C180.057 45.4313 180.453 46.128 180.966 46.744C181.48 47.3453 182.088 47.8293 182.792 48.196C183.511 48.548 184.296 48.724 185.146 48.724C186.041 48.724 186.84 48.5407 187.544 48.174C188.263 47.7927 188.872 47.294 189.37 46.678C189.884 46.0473 190.272 45.3433 190.536 44.566C190.8 43.7887 190.932 42.9967 190.932 42.19C190.932 41.3393 190.793 40.5253 190.514 39.748C190.236 38.9707 189.832 38.274 189.304 37.658C188.791 37.042 188.182 36.558 187.478 36.206C186.774 35.854 185.997 35.678 185.146 35.678C184.266 35.678 183.467 35.8613 182.748 36.228C182.044 36.5947 181.436 37.0933 180.922 37.724C180.424 38.34 180.035 39.0367 179.756 39.814C179.492 40.5913 179.36 41.3833 179.36 42.19ZM194.342 42.08C194.342 41.1267 194.503 40.1953 194.826 39.286C195.163 38.362 195.647 37.526 196.278 36.778C196.909 36.0153 197.686 35.414 198.61 34.974C199.534 34.5193 200.583 34.292 201.756 34.292C203.149 34.292 204.337 34.6147 205.32 35.26C206.317 35.8907 207.051 36.7047 207.52 37.702L206.31 38.45C205.973 37.7607 205.547 37.218 205.034 36.822C204.521 36.4113 203.971 36.118 203.384 35.942C202.812 35.766 202.24 35.678 201.668 35.678C200.729 35.678 199.901 35.8687 199.182 36.25C198.463 36.6167 197.855 37.1153 197.356 37.746C196.872 38.362 196.505 39.0587 196.256 39.836C196.007 40.5987 195.882 41.376 195.882 42.168C195.882 43.0333 196.029 43.862 196.322 44.654C196.615 45.446 197.026 46.15 197.554 46.766C198.082 47.3673 198.698 47.8513 199.402 48.218C200.121 48.57 200.898 48.746 201.734 48.746C202.321 48.746 202.922 48.6433 203.538 48.438C204.154 48.2327 204.726 47.9173 205.254 47.492C205.797 47.0667 206.229 46.5167 206.552 45.842L207.828 46.502C207.505 47.2793 207.007 47.9393 206.332 48.482C205.657 49.0247 204.902 49.4353 204.066 49.714C203.245 49.9927 202.438 50.132 201.646 50.132C200.575 50.132 199.593 49.9047 198.698 49.45C197.803 48.9807 197.026 48.3647 196.366 47.602C195.721 46.8247 195.222 45.9593 194.87 45.006C194.518 44.038 194.342 43.0627 194.342 42.08ZM221.503 35.744H215.937V50H214.397V35.744H208.831V34.38H221.503V35.744ZM223.931 50V34.38H225.449V47.888L235.129 34.38H236.559V50H235.041V36.734L225.471 50H223.931Z" fill="white"/>
<mask id="mask0_492_2771" style="mask-type:alpha" maskUnits="userSpaceOnUse" x="0" y="1" width="62" height="52">
<path d="M62 13.2401L55.1163 51.4136C55.1163 51.4136 34.3028 52.4681 25.4606 52.4681C11.4034 52.4681 0 41.0764 0 27.0076C0 12.9388 11.4034 1.55859 25.4606 1.55859C39.5178 1.55859 62 13.2401 62 13.2401Z" fill="#24D124"/>
</mask>
<g mask="url(#mask0_492_2771)">
<path fill-rule="evenodd" clip-rule="evenodd" d="M17.198 19.4394C19.4645 19.4394 19.7172 17.9338 20.4335 13.6667C20.5046 13.2428 20.5803 12.7918 20.663 12.3123C21.0308 10.148 22.1713 6.50316 23.0042 3.84094C23.5361 2.14108 23.9426 0.841829 23.9426 0.584415C23.9426 -1.07278 7.47499 4.71002 7.47499 4.71002L-1.5295 18.408C-1.5295 18.408 3.85929 18.3037 8.86564 18.5239C11.5526 18.5239 13.2179 18.8441 14.5785 19.1058C15.5183 19.2866 16.3127 19.4394 17.198 19.4394ZM16.8956 37.5535C25.0773 37.5535 28.7741 33.115 28.7741 31.8287C28.7741 30.9351 28.2871 30.0697 27.6299 28.902C26.2674 26.4808 24.1734 22.76 24.1734 14.7932C24.1734 7.34158 25.6513 1.68478 26.0685 1.68478C26.787 1.68478 27.6152 2.35841 27.6152 3.83018C27.6152 4.49314 27.5402 5.43136 27.4734 6.26562C27.42 6.93343 27.3719 7.53462 27.3719 7.87467C27.3719 16.3577 31.8104 16.9603 33.201 16.9603C36.7376 16.9603 40.1678 13.8976 42.6936 11.6425C44.1654 10.3284 45.3301 9.2885 46.0298 9.2885C46.7367 9.2885 47.1307 9.62457 47.1307 10.4126C47.1307 11.4062 45.474 13.3968 43.4863 15.785C42.3906 17.1015 41.1943 18.5388 40.1195 19.9965C39.4537 20.9053 38.9864 21.8459 38.5453 22.7336C37.3666 25.106 36.3756 27.1005 32.2855 27.1005C29.5621 27.1005 28.2758 26.7064 28.2758 26.7064C28.2758 26.7064 28.6466 28.1898 31.37 28.1898C34.3089 28.1898 35.9975 27.6178 36.5388 27.4344C36.6421 27.3994 36.7036 27.3786 36.724 27.3786C37.4013 27.3786 37.7779 29.4101 38.2069 31.7239C38.4826 33.2108 38.7798 34.8143 39.1924 36.0702C40.132 38.9382 41.1592 41.7599 41.9826 44.0217L41.9829 44.0226L41.983 44.0228C42.9061 46.5586 43.573 48.3904 43.573 48.7947C43.573 49.3162 43.1558 50.336 41.9506 50.336C40.5222 50.336 38.9415 46.7655 37.3262 43.1172C35.6388 39.3059 33.9137 35.4096 32.2855 35.4096C30.4406 35.4096 29.9579 40.0919 29.5014 44.5201C29.0919 48.4921 28.7035 52.2597 27.3719 52.2597H26.2593C26.2593 51.8047 26.3273 50.8462 26.4146 49.6134V49.6134L26.4146 49.6133L26.4146 49.6132L26.4146 49.6131C26.572 47.3923 26.7924 44.2815 26.7924 41.6212C26.7924 39.5584 26.5259 36.7887 25.6799 36.7887C25.0889 36.7887 22.4003 36.9857 22.4003 40.3464C22.4003 42.3281 24.0691 53.0362 24.0691 53.0362C24.0691 53.0362 15.9685 52.2481 15.9685 51.6339C15.9685 51.4364 16.3483 50.3991 16.8636 48.9916C17.9511 46.0213 19.6421 41.4024 19.6421 39.5468C19.6421 38.3648 18.5644 38.3068 17.8691 38.3068C15.5629 38.3068 15.3755 39.2843 14.64 43.1211C14.3221 44.7792 13.9019 46.9713 13.164 49.8492C6.99878 51.4485 -8.75038 30.2874 -2.50403 24.8986C-1.38487 23.9335 -1.81935 23.0587 -2.17076 22.3512C-2.71815 21.2491 -3.06401 20.5528 2.97747 20.5528C13.0945 20.5528 13.9289 24.2033 13.9289 27.622C13.9289 29.9062 13.6467 31.936 13.4389 33.431L13.4389 33.431L13.4389 33.431C13.3178 34.3024 13.222 34.992 13.222 35.4444C13.222 36.6844 13.2799 37.5535 16.8956 37.5535ZM37.547 10.8878C37.547 7.85151 35.6696 6.69264 33.9545 6.69264C31.2543 6.69264 29.4928 9.38123 29.4928 11.4672C29.4928 13.5532 30.9067 15.6971 33.1317 15.6971C35.3568 15.6971 37.547 13.924 37.547 10.8878ZM14.9373 17.6198C11.8083 17.6198 11.0782 13.7376 11.0782 13.7376C11.0782 16.1828 12.2255 17.6314 12.2371 17.6198C9.79188 17.6198 9.59487 16.9361 9.59487 16.9361C9.59487 16.9361 9.82665 15.2209 9.82665 13.7376C9.82665 9.85531 11.2752 7.93157 13.8943 7.93157C15.2748 7.93157 16.1026 8.23388 16.9329 8.53714C17.7684 8.84229 18.6066 9.14839 20.0132 9.14839C20.0132 12.5555 19.2367 13.5405 19.2251 13.4942C19.2251 12.5555 17.6143 9.70466 16.0614 9.70466C16.0614 9.70466 18.4139 11.3155 18.4139 13.9577C18.4139 15.6729 17.51 17.6198 14.9373 17.6198Z" fill="white"/>
</g>
</svg>
