<svg width="43" height="43" viewBox="0 0 43 43" fill="none" xmlns="http://www.w3.org/2000/svg">
<rect x="0.5" y="0.5" width="42" height="42" rx="9.5" stroke="#DFDFDE"/>
<path d="M30.9711 24.9125C30.4806 24.6631 28.0717 23.4917 27.6248 23.329C27.1779 23.1663 26.8509 23.0795 26.5239 23.5785C26.1969 24.0665 25.2596 25.162 24.9762 25.4873C24.6928 25.8127 24.4094 25.8561 23.9189 25.6066C23.4284 25.3572 21.8479 24.8474 19.9731 23.188C18.5125 21.8973 17.5315 20.2921 17.2481 19.8041C16.9647 19.316 17.2154 19.0557 17.4661 18.8063C17.6841 18.5893 17.9566 18.2314 18.1964 17.9494C18.4362 17.6674 18.5234 17.4614 18.6869 17.136C18.8504 16.8106 18.7632 16.5286 18.6433 16.2792C18.5234 16.0297 17.5424 13.6328 17.1282 12.6566C16.7249 11.7022 16.3216 11.8323 16.0273 11.8215C15.7439 11.8106 15.4169 11.7998 15.09 11.7998C14.763 11.7998 14.2289 11.9191 13.782 12.4072C13.3351 12.8952 12.0707 14.0774 12.0707 16.4744C12.0707 18.8713 13.8256 21.1924 14.0763 21.5177C14.3161 21.8431 17.5315 26.7672 22.4583 28.8821C23.6246 29.381 24.5402 29.6847 25.2487 29.9125C26.4258 30.2812 27.494 30.227 28.3333 30.1077C29.2707 29.9667 31.2327 28.9255 31.6469 27.7867C32.0502 26.6479 32.0502 25.6717 31.9303 25.4656C31.7886 25.2813 31.4616 25.162 30.9711 24.9125Z" fill="#0EB80E"/>
</svg>
