<svg width="293" height="293" viewBox="0 0 293 293" fill="none" xmlns="http://www.w3.org/2000/svg">
<path d="M263.948 158.409C263.97 158.087 264.075 157.844 264.263 157.681C264.451 157.518 264.713 157.448 265.049 157.471L273.257 158.042L273.541 153.96L272.225 153.868C271.113 153.791 270.129 153.664 269.274 153.486C268.433 153.31 267.707 153.076 267.095 152.784C266.483 152.506 265.978 152.155 265.581 151.73C265.183 151.32 264.872 150.821 264.649 150.232C264.561 150.005 264.546 149.798 264.604 149.611C264.646 149.423 264.738 149.268 264.879 149.145C265.018 149.037 265.178 148.967 265.356 148.936C265.534 148.919 265.708 148.953 265.878 149.038C266.049 149.124 266.185 149.28 266.287 149.508C266.492 149.934 266.754 150.29 267.073 150.577C267.405 150.865 267.815 151.099 268.303 151.28C268.789 151.475 269.367 151.626 270.036 151.731C270.704 151.851 271.491 151.943 272.398 152.006L274.132 152.126C274.498 152.152 274.769 152.266 274.946 152.47C275.137 152.689 275.219 152.981 275.194 153.347L274.799 159.031C274.773 159.397 274.651 159.668 274.433 159.844C274.23 160.021 273.945 160.097 273.579 160.071L264.91 159.468C264.574 159.445 264.324 159.339 264.161 159.151C263.997 158.964 263.926 158.716 263.948 158.409Z" fill="#0EB80E"/>
<path d="M258.316 168.962C258.365 168.733 258.471 168.553 258.634 168.423C258.78 168.304 258.963 168.254 259.184 168.271C259.388 168.3 259.594 168.389 259.802 168.539L262.801 170.712L261.983 170.537L272.32 168.502C272.586 168.454 272.816 168.466 273.01 168.538C273.205 168.61 273.35 168.738 273.445 168.924C273.537 169.123 273.552 169.367 273.491 169.654C273.438 169.897 273.34 170.079 273.194 170.197C273.049 170.316 272.819 170.409 272.504 170.477L263.455 172.068L263.584 171.465L271.17 176.693C271.432 176.87 271.604 177.049 271.685 177.231C271.766 177.414 271.777 177.641 271.718 177.913C271.666 178.157 271.561 178.33 271.405 178.431C271.245 178.547 271.061 178.598 270.855 178.583C270.648 178.569 270.442 178.48 270.237 178.316L258.86 170.204C258.589 169.996 258.421 169.802 258.354 169.623C258.27 169.455 258.258 169.235 258.316 168.962Z" fill="#0EB80E"/>
<path d="M255.896 190.915C256.007 190.612 256.176 190.408 256.401 190.304C256.636 190.218 256.912 190.233 257.228 190.349L260.347 191.493C260.268 191.026 260.254 190.553 260.306 190.072C260.352 189.604 260.461 189.137 260.633 188.669C261.168 187.209 261.906 186.261 262.847 185.825C263.802 185.394 264.982 185.436 266.386 185.951L268.142 186.595C268.459 186.711 268.665 186.873 268.761 187.08C268.865 187.305 268.862 187.57 268.751 187.873C268.64 188.176 268.472 188.379 268.246 188.484C268.034 188.594 267.769 188.591 267.453 188.474L265.842 187.884C264.878 187.53 264.1 187.479 263.507 187.731C262.915 187.982 262.45 188.569 262.112 189.492C261.94 189.96 261.834 190.398 261.794 190.805C261.768 191.217 261.812 191.631 261.925 192.048L265.601 193.396C266.262 193.638 266.476 194.076 266.244 194.71C266.133 195.013 265.967 195.209 265.746 195.3C265.521 195.405 265.242 195.397 264.912 195.276L256.547 192.208C256.23 192.092 256.01 191.925 255.886 191.708C255.777 191.496 255.78 191.232 255.896 190.915Z" fill="#0EB80E"/>
<path d="M251.965 200.085C252.134 199.793 252.338 199.614 252.578 199.549C252.819 199.485 253.085 199.537 253.377 199.705L261.022 204.108C261.315 204.276 261.49 204.47 261.55 204.691C261.614 204.931 261.573 205.178 261.427 205.433C261.266 205.712 261.069 205.878 260.836 205.93C260.616 205.989 260.359 205.935 260.067 205.766L252.918 201.649L250.777 205.366L257.926 209.484C258.218 209.652 258.394 209.847 258.453 210.067C258.518 210.307 258.477 210.555 258.331 210.809C258.17 211.088 257.973 211.254 257.74 211.306C257.519 211.365 257.263 211.311 256.971 211.142L249.822 207.025L247.681 210.743L254.83 214.86C255.122 215.028 255.298 215.223 255.357 215.443C255.422 215.683 255.381 215.931 255.234 216.185C255.081 216.452 254.887 216.611 254.654 216.663C254.427 216.735 254.167 216.687 253.874 216.519L246.23 212.116C245.937 211.947 245.763 211.737 245.705 211.484C245.64 211.243 245.689 210.983 245.85 210.704L251.965 200.085Z" fill="#0EB80E"/>
<path d="M237.847 221.071C238.315 220.506 238.853 220.085 239.462 219.808C240.062 219.543 240.662 219.439 241.261 219.497C241.851 219.566 242.383 219.797 242.858 220.189C243.468 220.694 243.822 221.244 243.921 221.839C244.019 222.434 243.842 223.154 243.391 223.998C242.951 224.853 242.226 225.89 241.217 227.111L240.558 227.908L239.575 227.095L240.206 226.332C240.925 225.461 241.456 224.739 241.797 224.165C242.129 223.602 242.278 223.135 242.242 222.764C242.218 222.401 242.031 222.075 241.681 221.785C241.24 221.421 240.752 221.274 240.217 221.346C239.673 221.429 239.177 221.742 238.728 222.284C238.373 222.714 238.161 223.176 238.094 223.672C238.038 224.178 238.105 224.671 238.297 225.153C238.5 225.645 238.833 226.082 239.296 226.465L241.246 228.077C241.913 228.628 242.506 228.89 243.024 228.862C243.553 228.843 244.084 228.511 244.617 227.867C244.925 227.494 245.192 227.068 245.418 226.588C245.643 226.108 245.826 225.565 245.966 224.958C246.027 224.723 246.121 224.552 246.246 224.447C246.383 224.35 246.535 224.305 246.702 224.31C246.871 224.335 247.022 224.394 247.156 224.485C247.292 224.597 247.398 224.733 247.476 224.893C247.544 225.063 247.541 225.251 247.467 225.456C247.304 226.159 247.073 226.795 246.773 227.366C246.475 227.956 246.148 228.467 245.793 228.896C245.185 229.631 244.567 230.137 243.937 230.416C243.318 230.704 242.668 230.765 241.985 230.601C241.314 230.446 240.606 230.06 239.86 229.443L235.384 225.742C235.124 225.527 234.977 225.301 234.944 225.065C234.912 224.828 234.993 224.591 235.19 224.354C235.377 224.128 235.594 224.003 235.842 223.98C236.08 223.968 236.329 224.069 236.589 224.284L237.793 225.279L237.667 225.432C237.323 224.996 237.102 224.527 237.002 224.026C236.903 223.525 236.922 223.018 237.061 222.505C237.202 222.012 237.464 221.534 237.847 221.071Z" fill="#0EB80E"/>
<path d="M223.711 235.741C223.928 235.542 224.15 235.448 224.378 235.458C224.615 235.479 224.838 235.603 225.047 235.83L227.202 238.182L228.288 237.186C228.689 236.819 228.94 236.4 229.044 235.927C229.148 235.454 229.142 234.981 229.028 234.509L228.493 232.134C228.433 231.851 228.454 231.614 228.556 231.421C228.637 231.227 228.773 231.083 228.964 230.987C229.134 230.891 229.323 230.847 229.53 230.856C229.737 230.865 229.926 230.93 230.098 231.052C230.258 231.184 230.358 231.38 230.399 231.641L230.816 233.497C230.91 233.968 230.904 234.451 230.8 234.944C230.695 235.438 230.481 235.834 230.156 236.131L229.929 236.339L229.795 236.193C230.682 235.38 231.562 234.952 232.436 234.907C233.31 234.862 234.084 235.207 234.758 235.942C235.204 236.429 235.482 236.95 235.593 237.505C235.703 238.08 235.631 238.664 235.376 239.255C235.122 239.846 234.671 240.439 234.022 241.033L231.119 243.694C230.881 243.912 230.638 244.015 230.389 244.004C230.129 244.003 229.886 243.879 229.658 243.63L223.668 237.093C223.46 236.866 223.361 236.628 223.372 236.38C223.382 236.152 223.495 235.939 223.711 235.741ZM230.133 237.376L228.138 239.204L230.799 242.107L232.794 240.279C233.41 239.714 233.745 239.168 233.799 238.641C233.863 238.125 233.687 237.64 233.271 237.185C232.855 236.731 232.382 236.508 231.852 236.516C231.323 236.524 230.75 236.811 230.133 237.376Z" fill="#0EB80E"/>
<path d="M202.028 247.453C202.266 247.309 202.486 247.261 202.688 247.311C202.889 247.36 203.066 247.511 203.218 247.761L204.323 249.587L211.361 245.324C211.649 245.149 211.915 245.091 212.156 245.151C212.398 245.21 212.606 245.384 212.781 245.673L217.352 253.218C217.526 253.507 217.58 253.766 217.513 253.995C217.454 254.236 217.286 254.441 217.01 254.608C216.734 254.775 216.482 254.825 216.253 254.758C216.019 254.712 215.814 254.544 215.639 254.255L211.365 247.199L206.868 249.923L211.142 256.98C211.317 257.268 211.371 257.527 211.304 257.756C211.244 257.998 211.077 258.202 210.801 258.369C210.525 258.537 210.272 258.587 210.043 258.52C209.809 258.473 209.604 258.305 209.43 258.017L204.665 250.151L205.946 250.482L204.516 251.348C204.252 251.507 204.006 251.554 203.777 251.487C203.543 251.44 203.346 251.285 203.186 251.021L201.75 248.651C201.446 248.149 201.539 247.75 202.028 247.453Z" fill="#0EB80E"/>
<path d="M191.876 255.376C192.941 254.921 193.945 254.731 194.887 254.807C195.821 254.902 196.658 255.238 197.399 255.815C198.145 256.405 198.741 257.219 199.184 258.258C199.622 259.283 199.803 260.266 199.727 261.208C199.638 262.155 199.328 262.997 198.798 263.734C198.254 264.477 197.517 265.047 196.586 265.445C195.925 265.728 195.283 265.867 194.659 265.862C194.027 265.877 193.433 265.756 192.877 265.499C192.32 265.243 191.818 264.851 191.37 264.325C190.914 263.818 190.525 263.187 190.202 262.432C190.11 262.216 190.105 262.018 190.188 261.839C190.263 261.68 190.422 261.548 190.665 261.444L197.584 258.487L198.085 259.661L191.632 262.419L191.855 261.988C192.155 262.69 192.516 263.237 192.939 263.63C193.355 264.043 193.82 264.291 194.334 264.374C194.834 264.463 195.381 264.381 195.975 264.127C196.622 263.851 197.109 263.459 197.435 262.953C197.767 262.46 197.936 261.886 197.942 261.229C197.954 260.586 197.808 259.907 197.502 259.192L197.45 259.071C196.932 257.857 196.25 257.064 195.405 256.691C194.56 256.319 193.591 256.366 192.498 256.833C192.067 257.017 191.652 257.258 191.253 257.556C190.84 257.86 190.485 258.243 190.188 258.705C190.038 258.913 189.879 259.045 189.711 259.1C189.536 259.175 189.371 259.182 189.217 259.12C189.069 259.072 188.95 258.979 188.859 258.842C188.775 258.719 188.732 258.562 188.73 258.371C188.728 258.181 188.796 257.984 188.933 257.782C189.245 257.282 189.674 256.811 190.22 256.371C190.757 255.95 191.309 255.618 191.876 255.376Z" fill="#0EB80E"/>
<path d="M180.909 259.444C181.221 259.361 181.485 259.381 181.7 259.506C181.916 259.631 182.067 259.856 182.154 260.182L184.469 268.854C184.556 269.18 184.535 269.444 184.407 269.645C184.282 269.861 184.064 270.01 183.752 270.093C183.44 270.176 183.184 270.154 182.982 270.025C182.771 269.915 182.621 269.697 182.534 269.371L181.621 265.948L176.222 267.39L177.136 270.812C177.223 271.138 177.209 271.399 177.095 271.597C176.97 271.812 176.752 271.962 176.44 272.045C176.128 272.128 175.865 272.107 175.649 271.983C175.438 271.872 175.288 271.654 175.201 271.328L172.886 262.656C172.799 262.33 172.818 262.059 172.943 261.844C173.068 261.628 173.286 261.479 173.597 261.396C173.909 261.312 174.173 261.333 174.388 261.458C174.59 261.586 174.734 261.813 174.821 262.139L175.808 265.838L181.207 264.397L180.22 260.698C180.133 260.372 180.144 260.104 180.255 259.892C180.365 259.68 180.584 259.531 180.909 259.444Z" fill="#0EB80E"/>
<path d="M160.991 263.555C161.72 263.47 162.399 263.539 163.031 263.761C163.647 263.984 164.152 264.325 164.544 264.781C164.922 265.239 165.147 265.774 165.218 266.386C165.309 267.173 165.185 267.815 164.844 268.312C164.503 268.809 163.877 269.207 162.967 269.505C162.058 269.817 160.817 270.064 159.244 270.247L158.216 270.366L158.069 269.099L159.053 268.985C160.174 268.854 161.057 268.7 161.701 268.522C162.33 268.346 162.761 268.111 162.992 267.818C163.226 267.54 163.316 267.175 163.264 266.724C163.198 266.155 162.947 265.712 162.511 265.394C162.061 265.077 161.486 264.959 160.787 265.04C160.234 265.104 159.761 265.292 159.369 265.604C158.978 265.929 158.686 266.333 158.49 266.813C158.297 267.308 158.235 267.854 158.304 268.451L158.596 270.965C158.696 271.824 158.943 272.423 159.336 272.761C159.732 273.114 160.344 273.242 161.175 273.146C161.656 273.09 162.143 272.967 162.638 272.776C163.133 272.586 163.641 272.32 164.162 271.979C164.369 271.852 164.554 271.793 164.718 271.804C164.883 271.829 165.024 271.901 165.142 272.02C165.246 272.156 165.315 272.303 165.348 272.462C165.368 272.636 165.351 272.808 165.297 272.977C165.228 273.147 165.096 273.281 164.9 273.377C164.297 273.772 163.689 274.072 163.078 274.276C162.454 274.496 161.865 274.638 161.311 274.702C160.364 274.812 159.567 274.75 158.92 274.515C158.274 274.295 157.762 273.889 157.383 273.298C157.006 272.722 156.762 271.953 156.65 270.991L155.98 265.222C155.941 264.887 155.992 264.623 156.132 264.429C156.272 264.236 156.494 264.121 156.8 264.086C157.092 264.052 157.335 264.112 157.53 264.267C157.711 264.423 157.82 264.669 157.859 265.004L158.04 266.555L157.843 266.578C157.897 266.026 158.061 265.534 158.336 265.103C158.611 264.673 158.976 264.32 159.431 264.046C159.874 263.788 160.394 263.624 160.991 263.555Z" fill="#0EB80E"/>
<path d="M139.596 264.469C139.933 264.495 140.182 264.603 140.344 264.792C140.506 264.981 140.574 265.244 140.548 265.58L139.881 274.2C139.855 274.537 139.748 274.786 139.559 274.948C139.37 275.11 139.107 275.177 138.771 275.151L134.472 274.819C133.609 274.752 132.915 274.589 132.391 274.327C131.853 274.065 131.467 273.719 131.236 273.289C131.004 272.859 130.912 272.337 130.96 271.723C131.012 271.051 131.29 270.498 131.794 270.067C132.298 269.635 132.934 269.405 133.701 269.376L133.679 269.661C132.774 269.561 132.086 269.243 131.612 268.707C131.138 268.184 130.93 267.543 130.989 266.783C131.059 265.876 131.451 265.178 132.165 264.689C132.879 264.215 133.864 264.026 135.122 264.123L139.596 264.469ZM138.639 265.719L135.13 265.448C134.428 265.394 133.883 265.499 133.495 265.763C133.091 266.041 132.867 266.457 132.824 267.013C132.78 267.583 132.937 268.029 133.295 268.351C133.637 268.672 134.16 268.859 134.862 268.914L138.371 269.185L138.639 265.719ZM138.27 270.501L134.936 270.243C134.307 270.195 133.813 270.304 133.454 270.57C133.08 270.835 132.874 271.224 132.834 271.736C132.794 272.262 132.938 272.678 133.267 272.983C133.582 273.287 134.054 273.463 134.683 273.512L138.017 273.769L138.27 270.501Z" fill="#0EB80E"/>
<path d="M116.516 260.757C116.642 260.796 116.755 260.853 116.855 260.929C116.94 261.001 117.005 261.09 117.05 261.195C117.094 261.301 117.118 261.423 117.122 261.562C117.112 261.697 117.081 261.849 117.03 262.017L113.027 275.195C112.933 275.503 112.785 275.711 112.584 275.819C112.365 275.936 112.114 275.952 111.834 275.867C111.539 275.777 111.34 275.625 111.237 275.41C111.129 275.208 111.123 274.953 111.216 274.645L114.695 263.193L115.158 263.334L102.681 272.465C102.463 272.629 102.271 272.732 102.105 272.773C101.925 272.811 101.723 272.795 101.498 272.727C101.33 272.676 101.2 272.598 101.109 272.494C101.018 272.389 100.959 272.257 100.931 272.095C100.904 271.933 100.92 271.754 100.98 271.558L105.008 258.296C105.098 258.001 105.246 257.793 105.451 257.672C105.657 257.55 105.907 257.534 106.201 257.624C106.496 257.713 106.702 257.868 106.819 258.087C106.923 258.303 106.929 258.558 106.84 258.852L103.355 270.325L102.892 270.184L115.348 261.046C115.566 260.883 115.758 260.78 115.924 260.738C116.08 260.679 116.277 260.685 116.516 260.757Z" fill="#0EB80E"/>
<path d="M99.6991 250.636C99.9751 250.773 100.153 250.959 100.233 251.195C100.312 251.431 100.28 251.693 100.137 251.983L94.3882 263.595C94.2386 263.898 94.0491 264.082 93.8198 264.149C93.584 264.228 93.328 264.2 93.052 264.063C92.7628 263.92 92.585 263.734 92.5185 263.504C92.4324 263.282 92.4641 263.019 92.6138 262.717L93.502 260.923L93.5432 261.385C92.975 262.004 92.2746 262.377 91.4421 262.505C90.6096 262.633 89.7596 262.482 88.8921 262.053C88.0377 261.63 87.3959 261.058 86.9668 260.339C86.5311 259.632 86.3212 258.816 86.3372 257.891C86.3467 256.98 86.6053 256.011 87.1128 254.986C87.6139 253.974 88.2306 253.174 88.9629 252.588C89.6755 252.008 90.4548 251.673 91.3005 251.585C92.1267 251.503 92.9669 251.673 93.8213 252.096C94.6757 252.519 95.3044 253.1 95.7074 253.84C96.1104 254.58 96.2414 255.356 96.1003 256.17L95.8834 256.063L98.3432 251.094C98.4863 250.805 98.6758 250.621 98.9116 250.541C99.1474 250.462 99.4099 250.493 99.6991 250.636ZM93.5326 253.721C92.9674 253.441 92.4061 253.335 91.8489 253.403C91.2785 253.464 90.7448 253.699 90.2479 254.108C89.7511 254.516 89.3106 255.108 88.9267 255.884C88.3541 257.04 88.1744 258.048 88.3877 258.906C88.601 259.765 89.1414 260.409 90.0089 260.838C90.5873 261.125 91.1616 261.237 91.732 261.176C92.2828 261.121 92.8066 260.889 93.3035 260.481C93.7872 260.066 94.2211 259.47 94.605 258.695C95.1776 257.538 95.3605 256.524 95.1538 255.653C94.9405 254.794 94.4001 254.15 93.5326 253.721Z" fill="#0EB80E"/>
<path d="M82.0458 245.45C82.3115 245.633 82.4669 245.847 82.512 246.091C82.5571 246.336 82.4839 246.598 82.2925 246.875L77.2248 254.231C77.0418 254.496 76.8278 254.652 76.583 254.697C76.3383 254.742 76.083 254.673 75.8173 254.49C75.5516 254.307 75.4022 254.097 75.3693 253.86C75.3242 253.616 75.3932 253.36 75.5762 253.095L77.5609 250.214L76.0029 249.141L71.085 250.695C70.8477 250.781 70.6381 250.788 70.4561 250.716C70.2658 250.656 70.1148 250.552 70.0032 250.404C69.8832 250.268 69.8165 250.106 69.8031 249.919C69.7897 249.731 69.8371 249.559 69.9453 249.402C70.0535 249.245 70.2322 249.128 70.4816 249.05L75.1547 247.541L75.2219 248.335C74.9208 248.075 74.6892 247.79 74.5271 247.483C74.365 247.175 74.2607 246.809 74.2143 246.386C74.1679 245.962 74.1658 245.435 74.208 244.805L74.424 241.855C74.4401 241.599 74.5204 241.405 74.6648 241.273C74.7971 241.132 74.9611 241.049 75.1568 241.024C75.3321 241.002 75.5065 241.033 75.6802 241.117C75.8622 241.189 76.0067 241.315 76.1138 241.496C76.2292 241.665 76.2788 241.877 76.2627 242.133L76.0418 245.401C76.0104 245.86 76.0228 246.242 76.0792 246.548C76.1355 246.854 76.2474 247.118 76.4149 247.341C76.5824 247.563 76.8231 247.782 77.1371 247.999L78.4596 248.91L80.644 245.739C80.8353 245.462 81.0534 245.3 81.2982 245.255C81.5309 245.202 81.7801 245.267 82.0458 245.45Z" fill="#0EB80E"/>
<path d="M70.7672 231.847C70.9407 232.005 71.0428 232.187 71.0733 232.393C71.1028 232.579 71.0544 232.763 70.9281 232.945C70.8008 233.107 70.6202 233.24 70.3863 233.345L66.9998 234.844L67.5624 234.226L64.1242 244.184C64.0323 244.438 63.9065 244.63 63.7466 244.763C63.5867 244.895 63.4027 244.955 63.1945 244.944C62.9755 244.924 62.7575 244.815 62.5406 244.617C62.3561 244.449 62.2491 244.273 62.2196 244.087C62.1901 243.902 62.2252 243.656 62.3249 243.35L65.4993 234.728L65.9549 235.143L57.6219 239.072C57.3377 239.21 57.0964 239.268 56.8981 239.246C56.6998 239.224 56.4976 239.12 56.2915 238.932C56.1071 238.765 56.0104 238.587 56.0016 238.401C55.982 238.205 56.0304 238.021 56.1468 237.849C56.2633 237.677 56.4439 237.544 56.6886 237.45L69.4205 231.693C69.7363 231.564 69.9884 231.515 70.1768 231.548C70.3642 231.56 70.561 231.66 70.7672 231.847Z" fill="#0EB80E"/>
<path d="M56.6574 223.108C56.8675 223.352 56.963 223.599 56.944 223.847C56.9251 224.095 56.7876 224.329 56.5315 224.549L50.2867 229.906L52.3209 232.277C52.7029 232.723 52.6879 233.122 52.276 233.475C52.0868 233.638 51.8896 233.701 51.6843 233.664C51.468 233.637 51.2738 233.523 51.102 233.323L45.7445 227.078C45.3529 226.622 45.3575 226.222 45.7583 225.878C45.9586 225.706 46.167 225.634 46.3834 225.661C46.579 225.686 46.7724 225.81 46.9634 226.033L48.9832 228.387L55.228 223.029C55.484 222.81 55.7361 222.709 55.9843 222.728C56.2229 222.736 56.4473 222.863 56.6574 223.108Z" fill="#0EB80E"/>
<path d="M47.6084 210.997C48.2176 211.895 48.5564 212.8 48.6247 213.711C48.6808 214.629 48.4823 215.5 48.0292 216.321C47.5639 217.15 46.8579 217.886 45.9112 218.528C45.2071 219.006 44.5101 219.337 43.82 219.521C43.1217 219.694 42.4508 219.723 41.8071 219.611C41.1513 219.506 40.5392 219.257 39.9706 218.862C39.3938 218.456 38.8748 217.913 38.4138 217.233C38.1257 216.809 37.8878 216.314 37.7002 215.75C37.5127 215.186 37.4348 214.601 37.4666 213.995C37.4731 213.795 37.5308 213.632 37.6396 213.505C37.7363 213.387 37.8637 213.3 38.022 213.246C38.1719 213.18 38.3284 213.162 38.4914 213.193C38.634 213.221 38.7607 213.303 38.8717 213.441C38.9744 213.566 39.0307 213.74 39.0406 213.964C39.0197 214.403 39.0718 214.82 39.197 215.214C39.314 215.595 39.4712 215.931 39.6688 216.223C39.9734 216.672 40.3179 217.023 40.7023 217.276C41.0785 217.517 41.4885 217.665 41.9324 217.718C42.3558 217.767 42.809 217.717 43.2919 217.567C43.7626 217.425 44.259 217.177 44.7809 216.823C45.8126 216.123 46.4612 215.329 46.7267 214.44C46.98 213.559 46.8062 212.676 46.2052 211.789C46.0076 211.498 45.7593 211.223 45.4603 210.966C45.1491 210.716 44.7814 210.513 44.3571 210.358C44.153 210.266 44.0178 210.145 43.9515 209.995C43.873 209.853 43.8536 209.707 43.893 209.556C43.9122 209.402 43.9802 209.267 44.0973 209.152C44.2022 209.045 44.3379 208.971 44.5043 208.929C44.6626 208.875 44.8294 208.886 45.005 208.962C45.5597 209.152 46.0603 209.433 46.5066 209.804C46.953 210.175 47.3203 210.572 47.6084 210.997Z" fill="#0EB80E"/>
<path d="M42.5197 202.601C42.666 202.889 42.7007 203.151 42.6237 203.388C42.5467 203.624 42.3579 203.819 42.0572 203.972L34.097 208.024C33.8095 208.17 33.5473 208.205 33.3107 208.128C33.074 208.051 32.8824 207.869 32.7361 207.581C32.5897 207.293 32.5584 207.038 32.642 206.814C32.719 206.578 32.9013 206.386 33.1889 206.24L36.3063 204.653L35.4481 202.967L30.3839 201.99C30.1343 201.952 29.9467 201.858 29.821 201.708C29.6823 201.565 29.5991 201.402 29.5715 201.218C29.5309 201.041 29.5493 200.867 29.6268 200.696C29.7043 200.525 29.828 200.396 29.9979 200.31C30.1679 200.223 30.3809 200.206 30.6371 200.256L35.4646 201.156L35.1452 201.887C35.0048 201.514 34.9366 201.154 34.9407 200.806C34.9447 200.458 35.0273 200.087 35.1885 199.692C35.3496 199.298 35.5988 198.833 35.9361 198.3L37.5318 195.809C37.668 195.591 37.8311 195.459 38.0209 195.412C38.2042 195.351 38.3879 195.357 38.572 195.427C38.7365 195.492 38.875 195.602 38.9877 195.759C39.1134 195.909 39.1802 196.089 39.1883 196.299C39.2094 196.502 39.1519 196.712 39.0157 196.93L37.2645 199.697C37.0181 200.086 36.8467 200.428 36.7504 200.724C36.6542 201.02 36.6267 201.305 36.668 201.581C36.7093 201.856 36.8165 202.163 36.9895 202.503L37.718 203.934L41.1491 202.188C41.4497 202.035 41.7184 201.997 41.9551 202.074C42.1851 202.138 42.3733 202.314 42.5197 202.601Z" fill="#0EB80E"/>
<path d="M34.6145 184.291C34.9929 185.386 35.1106 186.401 34.9677 187.335C34.8062 188.26 34.4115 189.071 33.7837 189.769C33.142 190.472 32.2874 191.007 31.22 191.376C30.1665 191.74 29.1727 191.851 28.2389 191.708C27.3002 191.551 26.4822 191.182 25.7848 190.601C25.0825 190.005 24.5662 189.229 24.2357 188.273C24.001 187.594 23.9081 186.943 23.957 186.321C23.9872 185.69 24.1501 185.106 24.4458 184.569C24.7414 184.033 25.1676 183.559 25.7244 183.15C26.2625 182.731 26.9197 182.388 27.696 182.119C27.9178 182.043 28.115 182.052 28.2877 182.148C28.4417 182.234 28.5618 182.402 28.648 182.652L31.105 189.763L29.899 190.18L27.6072 183.547L28.0204 183.8C27.2996 184.049 26.7279 184.37 26.3055 184.765C25.8645 185.15 25.5841 185.596 25.4644 186.103C25.3399 186.596 25.383 187.147 25.5937 187.757C25.8236 188.422 26.1794 188.936 26.6611 189.297C27.1289 189.663 27.6901 189.872 28.3447 189.926C28.9854 189.984 29.6731 189.886 30.4078 189.632L30.5326 189.589C31.7802 189.158 32.6199 188.534 33.0516 187.717C33.4834 186.901 33.5053 185.931 33.1173 184.809C32.9641 184.365 32.753 183.934 32.484 183.514C32.2103 183.081 31.8536 182.7 31.414 182.371C31.2174 182.206 31.0973 182.038 31.0537 181.867C30.9914 181.687 30.9966 181.522 31.0692 181.373C31.1279 181.229 31.2287 181.116 31.3716 181.036C31.5006 180.96 31.6603 180.928 31.8506 180.94C32.0409 180.952 32.232 181.033 32.4238 181.184C32.9007 181.532 33.3394 181.993 33.7399 182.568C34.1218 183.135 34.4133 183.709 34.6145 184.291Z" fill="#0EB80E"/>
<path d="M21.927 167.564C21.8272 167.787 21.6853 167.927 21.5011 167.984C21.3025 168.044 21.0751 168.012 20.8189 167.887L18.2458 166.764L18.6163 166.418L19.1247 169.19C19.1809 169.463 19.1641 169.695 19.0745 169.887C18.9826 170.064 18.8134 170.171 18.5669 170.208C18.3493 170.241 18.1705 170.187 18.0304 170.045C17.8735 169.891 17.7887 169.674 17.776 169.394L17.4635 166.593L17.8945 166.795L15.7691 168.629C15.5467 168.826 15.3318 168.925 15.1244 168.927C14.917 168.929 14.7472 168.836 14.6149 168.648C14.4559 168.479 14.4129 168.293 14.4858 168.089C14.5566 167.871 14.7065 167.685 14.9355 167.532L17.0819 165.983L17.1182 166.222L14.6129 165.4C14.3466 165.307 14.1485 165.174 14.0184 165C13.8862 164.813 13.87 164.607 13.9698 164.385C14.0551 164.164 14.1981 164.031 14.3989 163.986C14.5976 163.926 14.825 163.959 15.0811 164.083L17.6325 165.21L17.3022 165.527L16.7721 162.759C16.7014 162.488 16.7192 162.263 16.8256 162.084C16.9175 161.906 17.0722 161.801 17.2897 161.769C17.5362 161.731 17.7296 161.784 17.8697 161.926C18.0099 162.067 18.0935 162.277 18.1207 162.555L18.4551 165.353L18.0023 165.154L20.1277 163.319C20.3356 163.125 20.536 163.028 20.7289 163.028C20.9196 163.014 21.0956 163.099 21.2568 163.282C21.4057 163.482 21.451 163.683 21.3925 163.884C21.334 164.086 21.1914 164.271 20.9646 164.439L18.8148 165.966L18.7786 165.726L21.2872 166.57C21.5534 166.664 21.7516 166.797 21.8816 166.97C21.9972 167.145 22.0123 167.343 21.927 167.564Z" fill="#0EB80E"/>
<path d="M28.5954 138.143C28.5829 138.466 28.4854 138.711 28.3027 138.88C28.12 139.049 27.8602 139.127 27.5231 139.114L19.3012 138.797L19.1433 142.886L20.4623 142.937C21.5762 142.98 22.5632 143.077 23.4233 143.227C24.2688 143.377 25.0019 143.589 25.6225 143.863C26.2436 144.121 26.759 144.457 27.1688 144.869C27.5791 145.267 27.9051 145.756 28.1468 146.338C28.2409 146.562 28.2623 146.768 28.211 146.957C28.1743 147.146 28.0875 147.304 27.9505 147.431C27.8141 147.543 27.6571 147.618 27.4795 147.655C27.3025 147.678 27.1275 147.649 26.9545 147.569C26.7814 147.489 26.6405 147.337 26.5318 147.112C26.3131 146.693 26.0403 146.345 25.7134 146.068C25.3719 145.79 24.9548 145.569 24.4622 145.403C23.9701 145.223 23.3881 145.09 22.7162 145.005C22.0449 144.906 21.2549 144.839 20.3462 144.804L18.6095 144.737C18.2431 144.723 17.9683 144.617 17.7852 144.419C17.5879 144.206 17.4964 143.916 17.5105 143.549L17.7304 137.856C17.7445 137.489 17.8578 137.215 18.0704 137.032C18.2683 136.849 18.5504 136.764 18.9168 136.779L27.6003 137.114C27.9374 137.127 28.1905 137.225 28.3596 137.407C28.5286 137.59 28.6072 137.835 28.5954 138.143Z" fill="#0EB80E"/>
<path d="M33.8885 127.418C33.8463 127.649 33.7458 127.831 33.5869 127.966C33.4452 128.09 33.2634 128.146 33.0417 128.135C32.8371 128.113 32.6286 128.03 32.4162 127.887L29.3525 125.806L30.1749 125.956L19.9049 128.305C19.6412 128.361 19.411 128.357 19.2143 128.291C19.0175 128.225 18.8688 128.101 18.7679 127.919C18.6697 127.722 18.647 127.479 18.6998 127.19C18.7446 126.945 18.8379 126.761 18.9797 126.638C19.1215 126.515 19.3486 126.414 19.6609 126.337L28.6572 124.471L28.5464 125.077L20.8043 120.083C20.5368 119.915 20.3599 119.741 20.2735 119.561C20.1871 119.381 20.169 119.154 20.2191 118.88C20.2639 118.635 20.3631 118.459 20.5167 118.353C20.6729 118.233 20.8547 118.176 21.0619 118.184C21.2692 118.192 21.4777 118.275 21.6874 118.433L33.3073 126.193C33.5839 126.393 33.7582 126.581 33.8302 126.758C33.9192 126.924 33.9387 127.144 33.8885 127.418Z" fill="#0EB80E"/>
<path d="M35.4876 105.752C35.3868 106.059 35.2253 106.268 35.0032 106.38C34.7717 106.474 34.4957 106.468 34.1752 106.363L31.0193 105.325C31.114 105.789 31.1438 106.262 31.1087 106.744C31.0782 107.213 30.9851 107.684 30.8294 108.158C30.3439 109.635 29.6383 110.607 28.7126 111.075C27.7731 111.538 26.5927 111.536 25.1715 111.068L23.395 110.484C23.0745 110.379 22.8629 110.225 22.76 110.021C22.6477 109.799 22.642 109.534 22.7428 109.228C22.8435 108.921 23.005 108.712 23.2271 108.6C23.4354 108.483 23.6997 108.477 24.0202 108.583L25.6504 109.118C26.6257 109.439 27.405 109.464 27.9882 109.192C28.5715 108.921 29.0166 108.318 29.3234 107.385C29.4791 106.911 29.5701 106.47 29.5962 106.062C29.6084 105.649 29.551 105.236 29.4241 104.824L25.7039 103.601C25.0351 103.381 24.8061 102.951 25.0167 102.31C25.1175 102.004 25.2767 101.801 25.4943 101.703C25.7164 101.591 25.9947 101.589 26.3291 101.699L34.7935 104.482C35.114 104.587 35.3396 104.746 35.4703 104.959C35.5872 105.167 35.5929 105.432 35.4876 105.752Z" fill="#0EB80E"/>
<path d="M39.0824 96.4454C38.9239 96.7431 38.7255 96.9283 38.4875 97.0009C38.2494 97.0736 37.9815 97.0306 37.6837 96.872L29.897 92.7255C29.5992 92.5669 29.4171 92.3785 29.3505 92.1603C29.2779 91.9222 29.3105 91.6737 29.4484 91.4148C29.6 91.13 29.7915 90.9578 30.0226 90.8981C30.2409 90.8315 30.4989 90.8775 30.7966 91.0361L38.0785 94.9138L40.0949 91.1272L32.813 87.2495C32.5153 87.091 32.3331 86.9026 32.2665 86.6843C32.1939 86.4463 32.2265 86.1978 32.3644 85.9389C32.5161 85.654 32.7075 85.4818 32.9387 85.4221C33.1569 85.3556 33.4149 85.4016 33.7126 85.5601L40.9945 89.4378L43.0109 85.6512L35.729 81.7735C35.4313 81.615 35.2491 81.4266 35.1825 81.2083C35.1099 80.9703 35.1426 80.7218 35.2804 80.4629C35.4252 80.191 35.6132 80.0252 35.8443 79.9656C36.0695 79.886 36.3309 79.9256 36.6287 80.0841L44.4154 84.2307C44.7132 84.3892 44.8949 84.594 44.9606 84.845C45.0333 85.0831 44.9937 85.3445 44.8421 85.6293L39.0824 96.4454Z" fill="#0EB80E"/>
<path d="M52.7335 74.6459C52.2828 75.2245 51.7571 75.6608 51.1561 75.955C50.5642 76.2376 49.9679 76.3587 49.3672 76.3184C48.7755 76.2666 48.2367 76.0514 47.7507 75.6729C47.1259 75.1862 46.7558 74.647 46.6404 74.0552C46.525 73.4634 46.6805 72.7386 47.1069 71.8809C47.5217 71.0142 48.2158 69.956 49.1891 68.7063L49.8245 67.8906L50.8312 68.6747L50.2228 69.4557C49.5289 70.3467 49.0196 71.084 48.6951 71.6678C48.3795 72.24 48.2448 72.7114 48.2908 73.0819C48.3253 73.4434 48.5219 73.7638 48.8806 74.0432C49.3319 74.3947 49.8238 74.5269 50.3564 74.4398C50.898 74.3411 51.3851 74.014 51.8177 73.4586C52.1602 73.0189 52.358 72.5502 52.4111 72.0524C52.4526 71.5456 52.3706 71.0542 52.1651 70.5781C51.9481 70.093 51.6023 69.6657 51.1279 69.2962L49.1319 67.7415C48.4492 67.2098 47.8493 66.9656 47.3322 67.009C46.8035 67.0434 46.2822 67.3903 45.7685 68.0499C45.4711 68.4317 45.2168 68.8657 45.0055 69.3518C44.7942 69.8379 44.6272 70.3864 44.5046 70.9973C44.4504 71.234 44.3622 71.4069 44.2399 71.5162C44.106 71.6164 43.9555 71.6665 43.7883 71.6664C43.6185 71.6457 43.4655 71.5915 43.3292 71.504C43.1903 71.3958 43.0798 71.2632 42.9976 71.1063C42.9244 70.9377 42.9219 70.7499 42.9902 70.5428C43.1322 69.8354 43.3449 69.1924 43.6283 68.6137C43.9091 68.0145 44.2208 67.495 44.5633 67.0553C45.1491 66.3032 45.7527 65.7788 46.3742 65.4821C46.9842 65.1763 47.6326 65.0957 48.3194 65.2403C48.9946 65.3758 49.7141 65.741 50.4778 66.3358L55.0599 69.9047C55.326 70.112 55.4789 70.3334 55.5186 70.5688C55.5584 70.8042 55.4836 71.0435 55.2943 71.2864C55.1141 71.5179 54.9004 71.6489 54.6534 71.6796C54.4155 71.6988 54.1634 71.6047 53.8973 71.3974L52.665 70.4376L52.7866 70.2814C53.1426 70.7074 53.3777 71.1694 53.4919 71.6672C53.606 72.1651 53.6012 72.6726 53.4773 73.1896C53.3509 73.6861 53.103 74.1715 52.7335 74.6459Z" fill="#0EB80E"/>
<path d="M66.1715 59.7725C65.9618 59.9777 65.7429 60.079 65.5148 60.0765C65.2764 60.0635 65.0495 59.947 64.8341 59.7268L62.6031 57.4467L61.5496 58.4775C61.1617 58.8571 60.9236 59.2849 60.8355 59.761C60.7473 60.2371 60.7681 60.7093 60.8978 61.1774L61.51 63.5332C61.5795 63.814 61.5666 64.0524 61.4711 64.2484C61.3964 64.4447 61.2651 64.5936 61.0773 64.6953C60.9102 64.7972 60.723 64.847 60.5156 64.8448C60.3082 64.8425 60.117 64.7834 59.9419 64.6674C59.7773 64.5411 59.6705 64.3481 59.6215 64.0883L59.1438 62.2473C59.0348 61.7794 59.0245 61.297 59.1129 60.8001C59.2012 60.3033 59.4027 59.901 59.7172 59.5933L59.9373 59.3778L60.0758 59.5194C59.2162 60.3605 58.3504 60.8177 57.4784 60.8912C56.6063 60.9647 55.8216 60.645 55.1241 59.9321C54.6625 59.4604 54.3673 58.9489 54.2385 58.3979C54.1099 57.826 54.163 57.2406 54.3977 56.6416C54.6324 56.0426 55.0642 55.4354 55.6932 54.82L58.508 52.0659C58.7386 51.8402 58.9784 51.7288 59.2273 51.7315C59.4866 51.7239 59.7343 51.8407 59.9702 52.0818L66.1707 58.419C66.3861 58.6392 66.4924 58.8737 66.4897 59.1226C66.4872 59.3507 66.3812 59.5674 66.1715 59.7725ZM59.6996 58.3485L61.6338 56.456L58.8797 53.6412L56.9456 55.5337C56.348 56.1184 56.0308 56.675 55.9939 57.2035C55.9468 57.7216 56.1386 58.2008 56.5694 58.6411C57.0002 59.0814 57.4803 59.2888 58.0095 59.2635C58.5387 59.2381 59.1021 58.9331 59.6996 58.3485Z" fill="#0EB80E"/>
<path d="M87.2422 47.4699C87.0087 47.622 86.7905 47.6767 86.5876 47.634C86.3846 47.5912 86.203 47.4469 86.0429 47.2012L84.8776 45.4134L77.9846 49.9065C77.702 50.0907 77.439 50.1571 77.1954 50.1058C76.9519 50.0545 76.738 49.8875 76.5538 49.6049L71.7363 42.2144C71.5521 41.9318 71.4897 41.6748 71.549 41.4436C71.6004 41.2 71.7612 40.9902 72.0315 40.814C72.3018 40.6378 72.5526 40.5793 72.7839 40.6387C73.0194 40.6777 73.2293 40.8385 73.4135 41.1211L77.9186 48.0325L82.3234 45.1613L77.8183 38.2499C77.6341 37.9673 77.5717 37.7104 77.631 37.4791C77.6824 37.2356 77.8432 37.0257 78.1135 36.8495C78.3838 36.6733 78.6346 36.6149 78.8659 36.6742C79.1014 36.7133 79.3113 36.8741 79.4955 37.1567L84.5171 44.8605L83.2265 44.5726L84.6272 43.6596C84.8852 43.4914 85.1299 43.437 85.3611 43.4963C85.5967 43.5354 85.7985 43.6839 85.9667 43.9419L87.4804 46.2641C87.8008 46.7556 87.7214 47.1575 87.2422 47.4699Z" fill="#0EB80E"/>
<path d="M97.434 39.022C96.3826 39.5089 95.3851 39.7284 94.4416 39.6804C93.5053 39.613 92.6582 39.3022 91.9005 38.7479C91.1366 38.1804 90.5174 37.3842 90.0428 36.3594C89.5744 35.348 89.3642 34.3705 89.4122 33.427C89.4734 32.4773 89.7581 31.6262 90.2663 30.8737C90.7877 30.115 91.5076 29.523 92.4259 29.0977C93.0781 28.7957 93.716 28.6377 94.3399 28.6236C94.9708 28.59 95.5682 28.6932 96.1319 28.9332C96.6956 29.1732 97.2093 29.5495 97.6729 30.0621C98.1438 30.5552 98.5517 31.1745 98.8969 31.9198C98.9955 32.1327 99.006 32.3299 98.9284 32.5113C98.8579 32.6732 98.7029 32.8097 98.4633 32.9206L91.6359 36.0824L91.0997 34.9245L97.468 31.9754L97.258 32.412C96.9375 31.72 96.5599 31.1837 96.125 30.8032C95.6974 30.4032 95.2254 30.1692 94.709 30.1012C94.2059 30.0271 93.6616 30.1256 93.076 30.3968C92.4372 30.6927 91.9624 31.0984 91.6517 31.6141C91.3348 32.1164 91.1829 32.6959 91.196 33.3525C91.203 33.9958 91.3698 34.6701 91.6964 35.3755L91.7519 35.4952C92.3066 36.693 93.0118 37.4655 93.8676 37.8127C94.7234 38.1599 95.6903 38.0839 96.7683 37.5847C97.1942 37.3874 97.6021 37.1339 97.992 36.824C98.3952 36.508 98.7384 36.1147 99.0215 35.6442C99.1657 35.432 99.3207 35.2955 99.4866 35.2349C99.6596 35.1547 99.824 35.1433 99.9797 35.2004C100.129 35.2443 100.251 35.3332 100.346 35.4673C100.434 35.5881 100.482 35.7437 100.489 35.9342C100.497 36.1248 100.435 36.3231 100.304 36.5291C100.007 37.0386 99.5919 37.5216 99.0598 37.9782C98.5349 38.4152 97.9929 38.7632 97.434 39.022Z" fill="#0EB80E"/>
<path d="M108.129 34.6183C107.82 34.7109 107.556 34.6982 107.337 34.5801C107.118 34.462 106.96 34.2414 106.863 33.9183L104.286 25.3201C104.189 24.9969 104.202 24.7328 104.324 24.5277C104.443 24.3086 104.656 24.1528 104.965 24.0601C105.274 23.9675 105.531 23.9823 105.736 24.1046C105.951 24.2086 106.107 24.4222 106.204 24.7454L107.221 28.1383L112.574 26.5342L111.557 23.1413C111.46 22.8182 111.466 22.5562 111.574 22.3553C111.692 22.1362 111.906 21.9803 112.215 21.8877C112.524 21.7951 112.788 21.8078 113.007 21.9259C113.222 22.0299 113.378 22.2435 113.475 22.5666L116.051 31.1648C116.148 31.488 116.137 31.7591 116.019 31.9782C115.901 32.1973 115.688 32.3532 115.379 32.4458C115.07 32.5384 114.805 32.5257 114.586 32.4077C114.381 32.2854 114.23 32.0627 114.133 31.7395L113.035 28.0726L107.682 29.6767L108.781 33.3436C108.877 33.6667 108.874 33.9358 108.77 34.1507C108.666 34.3656 108.452 34.5214 108.129 34.6183Z" fill="#0EB80E"/>
<path d="M127.442 29.9166C126.717 30.0264 126.035 29.9812 125.397 29.7811C124.773 29.5789 124.257 29.2565 123.849 28.8139C123.455 28.3691 123.212 27.8422 123.12 27.2331C123.001 26.45 123.104 25.8041 123.427 25.2953C123.751 24.7865 124.362 24.3676 125.262 24.0386C126.159 23.6952 127.391 23.4049 128.957 23.1679L129.98 23.0132L130.171 24.2749L129.192 24.423C128.075 24.592 127.198 24.7766 126.561 24.9768C125.938 25.1749 125.516 25.4242 125.295 25.7247C125.071 26.0108 124.993 26.3786 125.061 26.8281C125.147 27.3937 125.413 27.8281 125.859 28.1314C126.32 28.4325 126.898 28.5304 127.595 28.425C128.146 28.3416 128.612 28.1376 128.993 27.8129C129.372 27.4738 129.65 27.0608 129.829 26.5739C130.005 26.0725 130.048 25.5246 129.958 24.93L129.58 22.4285C129.45 21.5729 129.183 20.9829 128.778 20.6585C128.371 20.3197 127.754 20.2128 126.927 20.3379C126.448 20.4103 125.965 20.5501 125.477 20.7575C124.99 20.9648 124.491 21.2479 123.982 21.6068C123.78 21.7413 123.597 21.806 123.433 21.8012C123.267 21.7818 123.123 21.7145 123.002 21.5994C122.893 21.4675 122.819 21.323 122.78 21.1656C122.754 20.9916 122.765 20.8194 122.813 20.6489C122.876 20.4762 123.004 20.3382 123.196 20.235C123.785 19.8194 124.382 19.4992 124.986 19.2743C125.602 19.0327 126.186 18.8702 126.737 18.7869C127.679 18.6442 128.478 18.6791 129.133 18.8914C129.786 19.0893 130.312 19.477 130.711 20.0545C131.108 20.6175 131.379 21.3775 131.523 22.3346L132.393 28.0772C132.443 28.4108 132.402 28.6766 132.268 28.8748C132.135 29.0729 131.916 29.195 131.612 29.2411C131.322 29.285 131.077 29.2331 130.876 29.0854C130.69 28.9355 130.572 28.6938 130.522 28.3603L130.288 26.8159L130.484 26.7863C130.449 27.3404 130.302 27.8373 130.042 28.2772C129.782 28.717 129.429 29.0819 128.984 29.3718C128.551 29.645 128.037 29.8267 127.442 29.9166Z" fill="#0EB80E"/>
<path d="M149.122 28.2009C148.785 28.1853 148.533 28.0855 148.365 27.9015C148.197 27.7176 148.121 27.4571 148.137 27.1202L148.537 18.4834C148.553 18.1464 148.653 17.8941 148.837 17.7265C149.021 17.5588 149.281 17.4828 149.618 17.4984L153.925 17.698C154.79 17.7381 155.488 17.8805 156.02 18.1254C156.566 18.371 156.962 18.705 157.207 19.1274C157.451 19.5499 157.56 20.0688 157.531 20.6841C157.5 21.3581 157.239 21.9186 156.748 22.3657C156.258 22.8128 155.63 23.0626 154.864 23.1152L154.877 22.8295C155.784 22.9009 156.482 23.1976 156.972 23.7195C157.462 24.2267 157.69 24.8613 157.654 25.6231C157.612 26.5315 157.242 27.2411 156.543 27.7519C155.844 28.2481 154.865 28.4671 153.605 28.4087L149.122 28.2009ZM150.04 26.922L153.556 27.085C154.26 27.1176 154.801 26.9958 155.181 26.7198C155.576 26.4298 155.787 26.0064 155.813 25.4497C155.839 24.8783 155.669 24.4373 155.301 24.1266C154.949 23.8166 154.421 23.6453 153.717 23.6127L150.201 23.4498L150.04 26.922ZM150.262 22.1312L153.603 22.286C154.233 22.3152 154.723 22.1911 155.073 21.9137C155.439 21.6369 155.633 21.2422 155.657 20.7294C155.681 20.202 155.524 19.7909 155.185 19.4963C154.861 19.2023 154.384 19.0407 153.754 19.0115L150.414 18.8567L150.262 22.1312Z" fill="#0EB80E"/>
<path d="M171.994 31.0208C171.867 30.9867 171.752 30.9333 171.65 30.8605C171.562 30.7915 171.494 30.7051 171.446 30.6011C171.398 30.4972 171.37 30.3758 171.361 30.2369C171.367 30.1018 171.392 29.9492 171.438 29.7792L174.99 16.4731C175.073 16.1613 175.213 15.9483 175.411 15.834C175.626 15.7094 175.875 15.6849 176.159 15.7605C176.456 15.84 176.66 15.9855 176.771 16.1972C176.885 16.3946 176.901 16.6493 176.818 16.961L173.731 28.5242L173.263 28.3993L185.422 18.8479C185.635 18.6769 185.823 18.5679 185.988 18.5207C186.166 18.4772 186.369 18.4858 186.595 18.5463C186.765 18.5917 186.898 18.665 186.992 18.7661C187.087 18.8672 187.15 18.9981 187.183 19.1587C187.216 19.3193 187.206 19.4988 187.154 19.6972L183.579 33.0883C183.5 33.3859 183.359 33.5989 183.158 33.7274C182.957 33.8558 182.707 33.8803 182.41 33.8009C182.112 33.7214 181.901 33.574 181.776 33.3586C181.666 33.1469 181.65 32.8923 181.73 32.5947L184.822 21.0103L185.29 21.1351L173.152 30.6923C172.94 30.8632 172.751 30.9723 172.587 31.0195C172.433 31.0846 172.235 31.0851 171.994 31.0208Z" fill="#0EB80E"/>
<path d="M189.839 40.7713C189.559 40.6429 189.376 40.4621 189.289 40.2287C189.202 39.9954 189.226 39.732 189.361 39.4387L194.762 27.6602C194.903 27.3536 195.087 27.1636 195.314 27.0903C195.547 27.0037 195.804 27.0246 196.084 27.153C196.377 27.2875 196.56 27.4684 196.634 27.6956C196.727 27.9156 196.703 28.1789 196.562 28.4856L195.727 30.3053L195.673 29.8445C196.222 29.2091 196.911 28.8151 197.739 28.6625C198.568 28.5099 199.422 28.6353 200.302 29.0388C201.168 29.4362 201.827 29.9883 202.277 30.695C202.734 31.3884 202.968 32.1976 202.979 33.1226C202.997 34.0342 202.767 35.01 202.29 36.0499C201.819 37.0764 201.227 37.8938 200.512 38.5019C199.817 39.1029 199.048 39.4602 198.205 39.5739C197.382 39.6804 196.537 39.535 195.671 39.1376C194.804 38.7402 194.158 38.1778 193.734 37.4505C193.309 36.7233 193.155 35.9507 193.272 35.133L193.491 35.2339L191.18 40.2733C191.046 40.5666 190.862 40.7565 190.629 40.8431C190.395 40.9298 190.132 40.9058 189.839 40.7713ZM195.911 37.5052C196.484 37.7681 197.048 37.8573 197.603 37.773C198.172 37.6948 198.698 37.4441 199.183 37.0209C199.667 36.5976 200.09 35.9927 200.45 35.2062C200.988 34.033 201.138 33.0205 200.899 32.1688C200.661 31.3172 200.101 30.6896 199.222 30.2861C198.635 30.0171 198.057 29.9217 197.489 29.9999C196.94 30.0709 196.424 30.318 195.939 30.7412C195.468 31.1705 195.052 31.7785 194.691 32.565C194.153 33.7382 194 34.7573 194.233 35.6224C194.472 36.4741 195.031 37.1017 195.911 37.5052Z" fill="#0EB80E"/>
<path d="M207.279 45.1741C207.008 44.9999 206.845 44.7912 206.792 44.548C206.739 44.3048 206.804 44.0413 206.986 43.7573L211.808 36.2391C211.983 35.9675 212.191 35.8051 212.434 35.752C212.678 35.6989 212.935 35.7594 213.207 35.9336C213.478 36.1078 213.634 36.3126 213.675 36.5478C213.728 36.791 213.668 37.0484 213.493 37.32L211.605 40.2643L213.197 41.2858L218.061 39.5704C218.296 39.4768 218.505 39.4629 218.689 39.5288C218.881 39.5824 219.036 39.6814 219.152 39.8258C219.277 39.9578 219.349 40.1173 219.368 40.3041C219.388 40.4909 219.346 40.6645 219.243 40.825C219.14 40.9855 218.965 41.1086 218.719 41.1943L214.098 42.8566L214.005 42.0649C214.314 42.3157 214.555 42.5922 214.727 42.8943C214.899 43.1964 215.015 43.5585 215.076 43.9805C215.136 44.4026 215.156 44.9291 215.134 45.5601L215.016 48.5158C215.008 48.7723 214.934 48.9689 214.794 49.1056C214.666 49.2503 214.505 49.3386 214.311 49.3705C214.136 49.398 213.961 49.3726 213.784 49.2943C213.6 49.2284 213.452 49.107 213.339 48.93C213.218 48.7653 213.161 48.5547 213.169 48.2983L213.282 45.0253C213.298 44.5652 213.273 44.1832 213.207 43.8793C213.14 43.5753 213.02 43.315 212.845 43.0984C212.67 42.8818 212.422 42.6706 212.101 42.4647L210.75 41.5976L208.671 44.8382C208.489 45.1222 208.276 45.2907 208.033 45.3438C207.802 45.4049 207.551 45.3483 207.279 45.1741Z" fill="#0EB80E"/>
<path d="M218.944 58.301C218.765 58.1488 218.657 57.9702 218.62 57.7651C218.584 57.5807 218.627 57.3952 218.747 57.2087C218.869 57.0429 219.045 56.9039 219.275 56.7918L222.611 55.1824L222.069 55.8189L225.18 45.7533C225.263 45.4969 225.382 45.3 225.538 45.1627C225.693 45.0254 225.875 44.9588 226.084 44.9629C226.303 44.9765 226.525 45.0784 226.748 45.2686C226.938 45.4303 227.051 45.6033 227.086 45.7877C227.122 45.9722 227.095 46.2188 227.005 46.5277L224.115 55.2492L223.646 54.8498L231.846 50.65C232.125 50.5028 232.364 50.4368 232.563 50.452C232.762 50.4673 232.968 50.5653 233.18 50.746C233.37 50.9076 233.472 51.0815 233.487 51.2676C233.513 51.4632 233.471 51.6486 233.36 51.824C233.249 51.9993 233.073 52.1383 232.831 52.2409L220.295 58.4112C219.983 58.5506 219.733 58.6071 219.544 58.5807C219.356 58.5749 219.156 58.4817 218.944 58.301Z" fill="#0EB80E"/>
<path d="M233.327 66.4985C233.109 66.2607 233.006 66.0174 233.016 65.7687C233.027 65.5201 233.157 65.2818 233.406 65.0539L239.472 59.4949L237.361 57.1917C236.965 56.7592 236.967 56.3596 237.367 55.993C237.551 55.8245 237.746 55.7552 237.952 55.785C238.169 55.8048 238.367 55.9121 238.545 56.1067L244.104 62.1729C244.511 62.6162 244.519 63.0162 244.13 63.373C243.935 63.5513 243.729 63.6306 243.512 63.6107C243.316 63.5918 243.118 63.4742 242.92 63.2579L240.824 60.9709L234.758 66.5299C234.51 66.7578 234.261 66.8663 234.012 66.8554C233.774 66.8554 233.545 66.7364 233.327 66.4985Z" fill="#0EB80E"/>
<path d="M243.215 78.8492C242.58 77.9692 242.215 77.0751 242.12 76.1668C242.037 75.2499 242.21 74.3744 242.639 73.5402C243.08 72.6975 243.764 71.9413 244.692 71.2717C245.381 70.7738 246.068 70.4226 246.753 70.218C247.446 70.0253 248.116 69.9759 248.762 70.0699C249.421 70.1552 250.04 70.3866 250.62 70.7639C251.208 71.1531 251.743 71.6807 252.224 72.3467C252.524 72.7629 252.776 73.2501 252.98 73.8083C253.184 74.3665 253.279 74.9492 253.265 75.5562C253.264 75.7557 253.212 75.9205 253.107 76.0506C253.013 76.1721 252.888 76.2622 252.732 76.321C252.584 76.3916 252.428 76.4137 252.264 76.3873C252.121 76.3641 251.992 76.2855 251.877 76.1514C251.771 76.0291 251.709 75.8564 251.693 75.6331C251.701 75.1932 251.636 74.7783 251.5 74.3886C251.372 74.0107 251.205 73.6791 250.999 73.3937C250.681 72.9537 250.326 72.6127 249.935 72.3709C249.552 72.1409 249.138 72.0057 248.692 71.9653C248.268 71.9282 247.816 71.9918 247.338 72.1562C246.871 72.312 246.383 72.5744 245.871 72.9436C244.86 73.6732 244.235 74.4862 243.996 75.3825C243.769 76.2702 243.968 77.1482 244.595 78.0163C244.801 78.3017 245.057 78.569 245.363 78.8181C245.682 79.0586 246.055 79.2502 246.484 79.393C246.691 79.4789 246.829 79.5959 246.9 79.7439C246.983 79.8833 247.006 80.0289 246.971 80.1808C246.957 80.3361 246.893 80.4728 246.779 80.591C246.677 80.7006 246.544 80.7789 246.379 80.8257C246.222 80.8845 246.055 80.8785 245.877 80.8078C245.317 80.6333 244.809 80.3673 244.352 80.0098C243.895 79.6523 243.516 79.2655 243.215 78.8492Z" fill="#0EB80E"/>
<path d="M248.57 87.0901C248.415 86.807 248.373 86.546 248.443 86.3072C248.513 86.0683 248.696 85.868 248.992 85.7061L256.828 81.4207C257.112 81.2659 257.373 81.2235 257.611 81.2935C257.85 81.3635 258.047 81.54 258.202 81.8231C258.357 82.1062 258.396 82.3608 258.319 82.5868C258.249 82.8256 258.072 83.0225 257.789 83.1773L254.72 84.8555L255.628 86.5156L260.719 87.3424C260.969 87.3726 261.159 87.4608 261.289 87.6069C261.432 87.7461 261.52 87.9069 261.553 88.0895C261.599 88.265 261.586 88.4395 261.514 88.6128C261.441 88.7861 261.321 88.9185 261.154 89.01C260.987 89.1014 260.774 89.1257 260.517 89.0826L255.665 88.3257L255.962 87.5862C256.114 87.9548 256.193 88.3129 256.199 88.6605C256.205 89.0082 256.133 89.3816 255.984 89.781C255.835 90.1803 255.599 90.6516 255.278 91.1951L253.757 93.7321C253.627 93.9534 253.468 94.0906 253.279 94.1434C253.098 94.2092 252.914 94.2094 252.728 94.144C252.562 94.0845 252.42 93.9781 252.303 93.8249C252.173 93.6787 252.101 93.5009 252.086 93.2914C252.059 93.0889 252.11 92.877 252.24 92.6556L253.909 89.8376C254.144 89.4417 254.305 89.0945 254.392 88.7959C254.48 88.4973 254.499 88.2111 254.449 87.9372C254.4 87.6634 254.284 87.3592 254.101 87.0246L253.33 85.6155L249.952 87.4627C249.656 87.6245 249.389 87.6704 249.15 87.6005C248.918 87.5433 248.725 87.3732 248.57 87.0901Z" fill="#0EB80E"/>
<path d="M256.843 104.653C256.428 103.571 256.276 102.561 256.387 101.623C256.517 100.693 256.884 99.8691 257.488 99.1503C258.106 98.4263 258.942 97.862 259.996 97.4573C261.037 97.0579 262.026 96.9138 262.964 97.025C263.908 97.15 264.738 97.4912 265.455 98.0487C266.177 98.62 266.719 99.378 267.081 100.323C267.339 100.994 267.454 101.641 267.426 102.264C267.417 102.896 267.274 103.485 266.997 104.031C266.719 104.578 266.309 105.065 265.767 105.493C265.243 105.93 264.598 106.295 263.831 106.59C263.612 106.674 263.415 106.671 263.239 106.581C263.082 106.5 262.956 106.336 262.862 106.09L260.166 99.0654L261.357 98.6081L263.872 105.16L263.45 104.921C264.162 104.648 264.723 104.307 265.131 103.899C265.559 103.499 265.824 103.044 265.927 102.533C266.035 102.036 265.973 101.487 265.742 100.884C265.489 100.227 265.116 99.7259 264.623 99.3812C264.143 99.0313 263.575 98.8408 262.919 98.8098C262.277 98.7736 261.593 98.8947 260.867 99.1733L260.744 99.2206C259.511 99.6935 258.693 100.345 258.289 101.176C257.885 102.006 257.896 102.976 258.322 104.085C258.49 104.523 258.716 104.947 258.999 105.357C259.287 105.781 259.656 106.15 260.107 106.464C260.309 106.622 260.435 106.786 260.484 106.955C260.552 107.133 260.553 107.298 260.485 107.45C260.431 107.596 260.334 107.712 260.194 107.797C260.068 107.877 259.909 107.914 259.719 107.909C259.528 107.903 259.334 107.828 259.138 107.684C258.649 107.353 258.195 106.907 257.775 106.345C257.375 105.792 257.064 105.228 256.843 104.653Z" fill="#0EB80E"/>
<path d="M270.221 121.441C270.314 121.215 270.452 121.071 270.634 121.008C270.831 120.942 271.059 120.967 271.319 121.084L273.925 122.128L273.565 122.485L272.972 119.73C272.908 119.459 272.918 119.226 273.001 119.032C273.088 118.852 273.254 118.74 273.499 118.695C273.715 118.655 273.896 118.704 274.04 118.842C274.202 118.991 274.293 119.206 274.314 119.485L274.712 122.275L274.275 122.087L276.344 120.188C276.56 119.984 276.772 119.878 276.979 119.87C277.186 119.862 277.359 119.95 277.497 120.133C277.661 120.297 277.71 120.482 277.643 120.688C277.579 120.909 277.435 121.099 277.211 121.259L275.113 122.873L275.069 122.635L277.598 123.38C277.867 123.465 278.069 123.592 278.205 123.761C278.343 123.945 278.365 124.149 278.272 124.375C278.194 124.598 278.055 124.735 277.855 124.787C277.659 124.852 277.43 124.827 277.171 124.711L274.586 123.662L274.906 123.335L275.521 126.086C275.6 126.355 275.589 126.58 275.488 126.763C275.402 126.942 275.25 127.052 275.034 127.092C274.789 127.137 274.594 127.09 274.449 126.953C274.305 126.815 274.215 126.608 274.179 126.331L273.759 123.545L274.218 123.73L272.15 125.629C271.948 125.829 271.751 125.933 271.558 125.938C271.368 125.958 271.189 125.879 271.022 125.7C270.867 125.505 270.816 125.306 270.868 125.102C270.921 124.899 271.057 124.71 271.279 124.535L273.381 122.943L273.424 123.181L270.891 122.414C270.622 122.329 270.42 122.202 270.285 122.033C270.164 121.862 270.143 121.664 270.221 121.441Z" fill="#0EB80E"/>
<path d="M205.3 105.711C201.648 94.3887 189.538 88.1612 178.25 91.8015C174.546 92.9961 171.391 95.1051 168.952 97.7998C165.055 94.0962 159.317 92.5822 153.852 94.3445C150.212 95.5187 147.322 97.944 145.503 100.994C138.873 95.1791 129.457 92.8927 120.473 95.79C109.741 99.2511 102.831 109.076 102.545 119.77C100.597 119.819 98.6238 120.144 96.6757 120.772C86.7348 123.978 80.8673 133.968 82.5136 144.001C70.5183 148.438 64.0583 161.619 68.0332 173.944C72.1142 186.598 85.6494 193.558 98.2648 189.49C101.318 188.505 104.037 186.965 106.348 185.016C112.388 192.709 122.772 196.231 132.598 193.062C136.55 191.788 139.943 189.582 142.614 186.765C146.961 190.406 153.017 191.803 158.8 189.937C161.674 189.01 164.132 187.39 166.05 185.32C170.466 187.758 175.834 188.438 181.005 186.77C184.524 185.635 187.482 183.565 189.693 180.922C192.019 181.27 194.458 181.1 196.847 180.33C200.739 179.075 203.807 176.446 205.691 173.15C206.965 172.959 208.24 172.662 209.505 172.253C222.121 168.185 229.039 154.628 224.958 141.974C224.477 140.482 223.864 139.069 223.137 137.744C225.138 135.794 225.983 132.804 225.065 129.958C224.141 127.093 221.682 125.152 218.896 124.756C219.308 122.398 219.169 119.906 218.382 117.468C216.494 111.612 211.399 107.687 205.677 107.018C205.565 106.581 205.44 106.145 205.3 105.711Z" fill="#0EB80E"/>
<path d="M201.79 102.802C198.138 91.4795 186.028 85.252 174.74 88.8923C171.036 90.087 167.881 92.1959 165.442 94.8906C161.545 91.1871 155.807 89.673 150.343 91.4353C146.702 92.6095 143.812 95.0348 141.994 98.0852C135.363 92.2699 125.947 89.9835 116.963 92.8808C106.232 96.3419 99.3208 106.167 99.0353 116.861C97.0874 116.909 95.114 117.235 93.1659 117.863C83.225 121.069 77.3575 131.059 79.0038 141.092C67.0085 145.529 60.5485 158.71 64.5234 171.035C68.6045 183.689 82.1396 190.649 94.7551 186.581C97.808 185.596 100.527 184.056 102.838 182.107C108.878 189.8 119.262 193.322 129.089 190.153C133.04 188.878 136.433 186.673 139.104 183.856C143.452 187.497 149.507 188.893 155.29 187.028C158.164 186.101 160.622 184.481 162.54 182.411C166.957 184.849 172.324 185.529 177.496 183.861C181.015 182.726 183.972 180.656 186.184 178.013C188.51 178.36 190.948 178.191 193.337 177.421C197.229 176.165 200.297 173.537 202.181 170.241C203.455 170.05 204.73 169.752 205.996 169.344C218.611 165.276 225.529 151.719 221.448 139.065C220.967 137.573 220.355 136.16 219.628 134.835C221.629 132.885 222.473 129.895 221.555 127.048C220.631 124.183 218.172 122.243 215.387 121.847C215.799 119.489 215.659 116.997 214.872 114.559C212.984 108.703 207.89 104.778 202.167 104.108C202.056 103.672 201.93 103.236 201.79 102.802Z" stroke="black"/>
<path d="M115.455 164.47C113.863 164.879 112.407 164.844 111.086 164.365C109.784 163.881 108.648 162.995 107.679 161.707C106.723 160.396 105.983 158.72 105.458 156.679C105.02 154.975 104.82 153.419 104.858 152.012C104.895 150.605 105.155 149.361 105.635 148.279C106.116 147.198 106.801 146.293 107.692 145.565C108.602 144.832 109.703 144.3 110.995 143.968C111.837 143.751 112.737 143.68 113.694 143.753C114.646 143.808 115.562 144.032 116.442 144.424C116.728 144.53 116.934 144.707 117.057 144.955C117.195 145.179 117.266 145.42 117.273 145.678C117.274 145.917 117.213 146.143 117.087 146.354C116.962 146.566 116.773 146.725 116.521 146.829C116.282 146.911 115.998 146.894 115.669 146.779C114.912 146.474 114.192 146.31 113.507 146.286C112.836 146.239 112.192 146.295 111.574 146.454C110.413 146.752 109.502 147.286 108.841 148.054C108.18 148.823 107.788 149.822 107.665 151.051C107.542 152.281 107.694 153.729 108.122 155.395L108.736 157.783L108.427 157.862C108.298 156.817 108.383 155.867 108.683 155.012C108.996 154.133 109.495 153.396 110.18 152.8C110.866 152.205 111.686 151.785 112.641 151.539C113.802 151.241 114.892 151.25 115.912 151.567C116.95 151.879 117.845 152.448 118.596 153.273C119.342 154.079 119.871 155.091 120.184 156.308C120.507 157.562 120.524 158.756 120.236 159.888C119.948 161.02 119.389 161.992 118.56 162.804C117.744 163.592 116.709 164.147 115.455 164.47ZM114.68 162.154C115.448 161.956 116.079 161.615 116.572 161.129C117.066 160.642 117.395 160.059 117.56 159.378C117.719 158.678 117.696 157.925 117.489 157.12C117.282 156.315 116.942 155.654 116.47 155.136C115.997 154.619 115.428 154.266 114.761 154.079C114.089 153.872 113.369 153.867 112.601 154.065C111.834 154.262 111.205 154.613 110.716 155.118C110.241 155.599 109.912 156.183 109.729 156.869C109.564 157.55 109.586 158.293 109.793 159.098C110 159.903 110.342 160.574 110.819 161.11C111.31 161.623 111.879 161.975 112.528 162.168C113.195 162.356 113.912 162.351 114.68 162.154ZM131.594 160.322C129.291 160.914 127.307 160.496 125.642 159.067C123.992 157.615 122.745 155.25 121.903 151.974C121.331 149.745 121.123 147.812 121.281 146.175C121.439 144.537 121.944 143.2 122.795 142.163C123.647 141.126 124.84 140.41 126.376 140.015C128.697 139.418 130.679 139.827 132.32 141.242C133.956 142.638 135.2 144.993 136.052 148.308C136.615 150.498 136.82 152.422 136.667 154.078C136.513 155.735 136.014 157.091 135.167 158.147C134.321 159.202 133.13 159.928 131.594 160.322ZM130.973 157.907C132.415 157.536 133.312 156.637 133.664 155.209C134.029 153.758 133.87 151.703 133.187 149.044C132.499 146.366 131.652 144.508 130.647 143.469C129.655 142.406 128.438 142.06 126.996 142.431C125.573 142.796 124.674 143.686 124.299 145.1C123.919 146.495 124.073 148.532 124.761 151.209C125.444 153.868 126.296 155.745 127.316 156.841C128.331 157.917 129.55 158.272 130.973 157.907ZM148.436 155.994C146.132 156.586 144.149 156.168 142.484 154.739C140.833 153.287 139.587 150.922 138.745 147.646C138.172 145.417 137.965 143.484 138.123 141.847C138.281 140.209 138.786 138.872 139.637 137.835C140.488 136.798 141.682 136.082 143.217 135.687C145.539 135.09 147.52 135.499 149.161 136.914C150.798 138.31 152.042 140.665 152.893 143.98C153.456 146.17 153.661 148.094 153.508 149.75C153.355 151.407 152.855 152.763 152.009 153.819C151.162 154.874 149.971 155.6 148.436 155.994ZM147.815 153.579C149.257 153.208 150.153 152.309 150.505 150.881C150.871 149.43 150.712 147.375 150.029 144.716C149.34 142.038 148.494 140.18 147.488 139.141C146.496 138.078 145.28 137.732 143.838 138.103C142.415 138.468 141.515 139.358 141.14 140.772C140.76 142.167 140.914 144.204 141.602 146.881C142.286 149.54 143.137 151.417 144.157 152.513C145.173 153.589 146.392 153.944 147.815 153.579ZM168.708 150.725C168.259 150.84 167.869 150.801 167.54 150.606C167.21 150.411 166.983 150.07 166.858 149.583L166.158 146.859L164.557 147.27C164.201 147.362 163.898 147.35 163.649 147.234C163.414 147.095 163.255 146.866 163.173 146.548C163.087 146.211 163.115 145.934 163.259 145.717C163.417 145.477 163.674 145.311 164.03 145.22L165.631 144.808L165.046 142.533L163.445 142.945C163.089 143.036 162.787 143.024 162.538 142.909C162.302 142.769 162.141 142.531 162.055 142.194C161.973 141.876 162.004 141.608 162.148 141.392C162.306 141.152 162.562 140.986 162.918 140.894L164.519 140.483L162.484 132.562C162.363 132.094 162.394 131.707 162.575 131.401C162.769 131.072 163.101 130.847 163.569 130.726L168.681 129.413C170.104 129.047 171.374 128.98 172.492 129.212C173.604 129.425 174.524 129.897 175.251 130.629C175.978 131.36 176.496 132.325 176.804 133.523C177.097 134.666 177.09 135.725 176.782 136.703C176.47 137.661 175.896 138.498 175.061 139.211C174.227 139.925 173.145 140.452 171.815 140.794L167.995 141.775L168.58 144.051L172.4 143.069C172.756 142.977 173.051 143.001 173.287 143.14C173.536 143.256 173.704 143.482 173.79 143.819C173.872 144.138 173.834 144.417 173.676 144.657C173.532 144.874 173.283 145.028 172.927 145.119L169.107 146.101L169.807 148.825C169.932 149.312 169.897 149.72 169.703 150.05C169.526 150.375 169.195 150.6 168.708 150.725ZM167.412 139.74L170.811 138.866C172.14 138.525 173.082 137.993 173.635 137.272C174.202 136.527 174.336 135.575 174.038 134.414C173.735 133.234 173.162 132.443 172.32 132.041C171.478 131.638 170.374 131.613 169.007 131.964L165.637 132.83L167.412 139.74Z" fill="white"/>
<path d="M126.801 132.188C126.584 132.244 126.397 132.226 126.242 132.134C126.086 132.041 125.981 131.892 125.928 131.686C125.872 131.469 125.892 131.287 125.987 131.142C126.081 130.996 126.237 130.896 126.454 130.84L128.345 130.354L126.226 122.11L127.032 121.903L125.14 123.925C124.998 124.061 124.853 124.137 124.703 124.153C124.563 124.167 124.43 124.141 124.303 124.075C124.186 124.005 124.089 123.909 124.014 123.785C123.948 123.659 123.923 123.517 123.937 123.359C123.962 123.198 124.04 123.052 124.171 122.919L125.963 121.021C126.112 120.873 126.256 120.748 126.395 120.646C126.542 120.531 126.687 120.455 126.832 120.418C127.008 120.373 127.166 120.387 127.306 120.461C127.454 120.522 127.557 120.667 127.615 120.894L129.941 129.944L131.677 129.498C131.904 129.439 132.094 129.451 132.247 129.533C132.4 129.615 132.505 129.764 132.561 129.981C132.616 130.198 132.598 130.384 132.506 130.54C132.411 130.686 132.25 130.788 132.023 130.846L126.801 132.188ZM140.165 128.869C139.917 128.933 139.704 128.916 139.524 128.819C139.343 128.712 139.22 128.534 139.156 128.286L138.762 126.752L134.609 127.819C134.35 127.886 134.129 127.882 133.945 127.808C133.761 127.734 133.638 127.579 133.577 127.341C133.543 127.207 133.537 127.054 133.559 126.883C133.591 126.71 133.663 126.476 133.775 126.183L136.6 118.469C136.669 118.265 136.765 118.102 136.888 117.982C137.009 117.852 137.162 117.763 137.348 117.715C137.565 117.66 137.758 117.682 137.927 117.782C138.103 117.868 138.226 118.046 138.295 118.315L140.011 124.994L140.988 124.743C141.236 124.679 141.431 124.689 141.574 124.774C141.727 124.856 141.832 125.005 141.887 125.222C141.946 125.449 141.928 125.636 141.833 125.781C141.748 125.924 141.582 126.027 141.334 126.091L140.358 126.342L140.752 127.876C140.816 128.124 140.794 128.339 140.687 128.521C140.587 128.689 140.413 128.806 140.165 128.869ZM138.415 125.404L137.01 119.934L137.428 119.826L134.901 126.77L134.789 126.336L138.415 125.404ZM147.667 126.974C146.396 127.301 145.302 127.07 144.384 126.282C143.473 125.481 142.785 124.176 142.32 122.368C142.005 121.139 141.89 120.072 141.977 119.169C142.065 118.266 142.343 117.528 142.813 116.955C143.282 116.383 143.941 115.988 144.788 115.771C146.069 115.441 147.162 115.667 148.068 116.448C148.97 117.218 149.657 118.517 150.127 120.346C150.437 121.554 150.55 122.616 150.466 123.529C150.381 124.443 150.105 125.191 149.638 125.774C149.171 126.357 148.514 126.757 147.667 126.974ZM147.325 125.642C148.12 125.437 148.615 124.941 148.809 124.154C149.011 123.353 148.923 122.219 148.546 120.752C148.166 119.275 147.699 118.249 147.144 117.676C146.597 117.09 145.926 116.899 145.13 117.103C144.345 117.305 143.849 117.796 143.642 118.576C143.433 119.346 143.517 120.469 143.897 121.947C144.274 123.414 144.744 124.449 145.307 125.054C145.867 125.647 146.54 125.844 147.325 125.642ZM156.959 124.587C155.688 124.913 154.594 124.682 153.675 123.894C152.765 123.093 152.077 121.788 151.612 119.98C151.296 118.751 151.182 117.685 151.269 116.781C151.356 115.878 151.635 115.14 152.105 114.568C152.574 113.995 153.233 113.6 154.08 113.383C155.361 113.053 156.454 113.279 157.36 114.06C158.262 114.83 158.949 116.129 159.419 117.958C159.729 119.167 159.842 120.228 159.758 121.142C159.673 122.055 159.397 122.804 158.93 123.386C158.463 123.969 157.806 124.369 156.959 124.587ZM156.617 123.254C157.412 123.05 157.907 122.553 158.101 121.766C158.303 120.965 158.215 119.831 157.838 118.364C157.458 116.887 156.991 115.861 156.436 115.288C155.889 114.702 155.218 114.511 154.422 114.715C153.637 114.917 153.141 115.408 152.934 116.188C152.724 116.958 152.809 118.081 153.189 119.559C153.566 121.026 154.036 122.061 154.599 122.666C155.159 123.26 155.831 123.456 156.617 123.254ZM168.144 121.679C167.896 121.743 167.681 121.721 167.499 121.614C167.317 121.506 167.192 121.318 167.123 121.05L166.737 119.546L165.853 119.773C165.657 119.824 165.49 119.817 165.353 119.753C165.223 119.677 165.135 119.55 165.09 119.375C165.042 119.189 165.058 119.036 165.138 118.917C165.225 118.784 165.366 118.693 165.563 118.642L166.446 118.415L166.123 117.16L165.24 117.387C165.044 117.437 164.877 117.431 164.739 117.367C164.61 117.29 164.521 117.159 164.473 116.973C164.428 116.797 164.445 116.65 164.524 116.53C164.611 116.398 164.753 116.306 164.949 116.256L165.833 116.029L164.71 111.659C164.643 111.4 164.66 111.187 164.76 111.018C164.867 110.836 165.05 110.712 165.308 110.646L168.129 109.921C168.914 109.719 169.615 109.682 170.231 109.81C170.845 109.928 171.353 110.188 171.754 110.592C172.155 110.995 172.44 111.528 172.61 112.189C172.772 112.819 172.768 113.404 172.599 113.943C172.426 114.472 172.11 114.933 171.649 115.327C171.189 115.721 170.592 116.012 169.858 116.2L167.751 116.742L168.073 117.997L170.181 117.455C170.377 117.405 170.54 117.418 170.67 117.495C170.807 117.559 170.9 117.684 170.948 117.869C170.993 118.045 170.972 118.199 170.885 118.332C170.806 118.451 170.668 118.536 170.471 118.587L168.364 119.128L168.75 120.631C168.819 120.9 168.8 121.125 168.693 121.307C168.595 121.486 168.412 121.61 168.144 121.679ZM167.429 115.618L169.304 115.137C170.037 114.948 170.557 114.655 170.862 114.257C171.175 113.846 171.249 113.321 171.085 112.68C170.917 112.029 170.601 111.593 170.137 111.371C169.672 111.149 169.063 111.135 168.309 111.328L166.449 111.806L167.429 115.618Z" fill="#83DB83"/>
<line x1="123.373" y1="128.489" x2="173.38" y2="115.64" stroke="#83DB83" stroke-linecap="round"/>
</svg>
