<svg width="37" height="37" viewBox="0 0 37 37" fill="none" xmlns="http://www.w3.org/2000/svg">
<rect x="0.5" y="0.5" width="36" height="36" rx="9.5" stroke="#DFDFDE"/>
<path d="M19.4379 25C12.263 25 8.17052 20.1201 8 12H11.594C11.7121 17.96 14.3616 20.4845 16.4603 21.005V12H19.8445V17.1401C21.9169 16.9189 24.0943 14.5766 24.8289 12H28.213C27.9362 13.3363 27.3845 14.6015 26.5923 15.7166C25.8001 16.8317 24.7845 17.7726 23.609 18.4805C24.9211 19.1273 26.08 20.0428 27.0093 21.1666C27.9386 22.2904 28.6171 23.597 29 25H25.2748C24.9311 23.7814 24.2324 22.6905 23.2664 21.8641C22.3004 21.0376 21.11 20.5125 19.8445 20.3544V25H19.4379Z" fill="#0EB80E"/>
</svg>
