<svg width="44" height="45" viewBox="0 0 44 45" fill="none" xmlns="http://www.w3.org/2000/svg">
<rect y="0.610352" width="43.7786" height="43.7786" rx="11.8321" fill="white"/>
<path d="M22.9987 30.1903C14.5093 30.1903 9.66709 24.4164 9.46533 14.8086H13.7178C13.8575 21.8605 16.9925 24.8475 19.4757 25.4634V14.8086H23.4798V20.8904C25.9319 20.6287 28.5082 17.8572 29.3773 14.8086H33.3815C33.054 16.3897 32.4011 17.8867 31.4638 19.2061C30.5265 20.5255 29.3248 21.6388 27.934 22.4763C29.4865 23.2417 30.8577 24.3249 31.9573 25.6546C33.0568 26.9843 33.8596 28.5302 34.3127 30.1903H29.905C29.4983 28.7484 28.6716 27.4576 27.5287 26.4798C26.3857 25.502 24.9772 24.8806 23.4798 24.6935V30.1903H22.9987Z" fill="#0EB80E"/>
</svg>
