<svg width="45" height="44" viewBox="0 0 45 44" fill="none" xmlns="http://www.w3.org/2000/svg">
<rect x="1.61072" y="1" width="41.7786" height="41.7786" rx="10.8321" stroke="white" stroke-width="2"/>
<path d="M23.6095 29.5802C15.1201 29.5802 10.2779 23.8063 10.0762 14.1985H14.3286C14.4683 21.2503 17.6033 24.2374 20.0865 24.8533V14.1985H24.0906V20.2803C26.5428 20.0186 29.1191 17.2471 29.9882 14.1985H33.9923C33.6648 15.7796 33.012 17.2766 32.0746 18.596C31.1373 19.9154 29.9357 21.0286 28.5448 21.8662C30.0973 22.6316 31.4686 23.7148 32.5681 25.0445C33.6676 26.3742 34.4704 27.9201 34.9235 29.5802H30.5159C30.1091 28.1383 29.2825 26.8475 28.1395 25.8697C26.9965 24.8919 25.588 24.2705 24.0906 24.0834V29.5802H23.6095Z" fill="white"/>
</svg>
