<svg width="44" height="44" viewBox="0 0 44 44" fill="none" xmlns="http://www.w3.org/2000/svg">
<rect y="0.22168" width="43.7786" height="43.7786" rx="11.8321" fill="white"/>
<path d="M27.6942 23.7818C27.4103 23.6374 26.0163 22.9595 25.7577 22.8654C25.499 22.7712 25.3098 22.721 25.1206 23.0098C24.9313 23.2922 24.3889 23.9261 24.2249 24.1144C24.0609 24.3027 23.8968 24.3279 23.613 24.1835C23.3291 24.0391 22.4145 23.7441 21.3295 22.7838C20.4843 22.0369 19.9166 21.1079 19.7526 20.8255C19.5886 20.5431 19.7337 20.3924 19.8787 20.2481C20.0049 20.1225 20.1626 19.9154 20.3014 19.7522C20.4401 19.589 20.4906 19.4698 20.5852 19.2815C20.6798 19.0932 20.6294 18.93 20.56 18.7856C20.4906 18.6412 19.9229 17.2541 19.6832 16.6892C19.4498 16.1369 19.2164 16.2122 19.0461 16.2059C18.8821 16.1996 18.6929 16.1934 18.5036 16.1934C18.3144 16.1934 18.0053 16.2624 17.7467 16.5448C17.4881 16.8273 16.7563 17.5114 16.7563 18.8986C16.7563 20.2857 17.7719 21.6289 17.917 21.8172C18.0558 22.0055 19.9166 24.8551 22.7677 26.079C23.4427 26.3678 23.9725 26.5435 24.3825 26.6753C25.0638 26.8887 25.682 26.8573 26.1677 26.7883C26.7101 26.7067 27.8456 26.1041 28.0853 25.4451C28.3187 24.786 28.3187 24.2211 28.2493 24.1019C28.1673 23.9952 27.978 23.9261 27.6942 23.7818Z" fill="#0EB80E"/>
<path d="M30.0308 13.9654C28.0277 11.9722 25.3648 10.8701 22.531 10.8701C16.6866 10.8701 11.9263 15.6069 11.9263 21.4222C11.9263 23.2806 12.4153 25.0979 13.3402 26.6983L11.832 32.1678L17.4525 30.7023C19.002 31.5406 20.7458 31.9861 22.5192 31.9861H22.5251C28.3694 31.9861 33.1297 27.2494 33.1297 21.434C33.1356 18.6142 32.0339 15.9586 30.0308 13.9654Z" stroke="#0EB80E" stroke-width="2.42019"/>
</svg>
