<svg width="44" height="44" viewBox="0 0 44 44" fill="none" xmlns="http://www.w3.org/2000/svg">
<rect x="1.22144" y="1" width="41.7786" height="41.7786" rx="10.8321" stroke="white" stroke-width="2"/>
<path d="M27.9157 23.5603C27.6319 23.416 26.2378 22.7381 25.9792 22.644C25.7206 22.5498 25.5314 22.4996 25.3421 22.7883C25.1529 23.0708 24.6104 23.7047 24.4464 23.893C24.2824 24.0813 24.1184 24.1064 23.8345 23.9621C23.5507 23.8177 22.6361 23.5227 21.5511 22.5624C20.7059 21.8154 20.1381 20.8865 19.9741 20.6041C19.8101 20.3216 19.9552 20.171 20.1003 20.0266C20.2265 19.9011 20.3841 19.694 20.5229 19.5308C20.6617 19.3676 20.7122 19.2483 20.8068 19.06C20.9014 18.8717 20.8509 18.7085 20.7815 18.5642C20.7122 18.4198 20.1445 17.0327 19.9048 16.4678C19.6714 15.9154 19.438 15.9908 19.2677 15.9845C19.1037 15.9782 18.9144 15.9719 18.7252 15.9719C18.5359 15.9719 18.2269 16.041 17.9682 16.3234C17.7096 16.6059 16.9779 17.29 16.9779 18.6771C16.9779 20.0643 17.9935 21.4075 18.1386 21.5958C18.2773 21.7841 20.1381 24.6337 22.9893 25.8576C23.6642 26.1463 24.1941 26.3221 24.6041 26.4539C25.2854 26.6673 25.9035 26.6359 26.3892 26.5668C26.9317 26.4853 28.0671 25.8827 28.3068 25.2237C28.5402 24.5646 28.5402 23.9997 28.4708 23.8805C28.3888 23.7738 28.1996 23.7047 27.9157 23.5603Z" fill="white"/>
<path d="M30.2521 13.744C28.249 11.7508 25.5861 10.6487 22.7523 10.6487C16.9079 10.6487 12.1476 15.3854 12.1476 21.2008C12.1476 23.0592 12.6366 24.8765 13.5616 26.4769L12.0533 31.9464L17.6738 30.4808C19.2233 31.3191 20.9671 31.7647 22.7405 31.7647H22.7464C28.5907 31.7647 33.351 27.0279 33.351 21.2125C33.3569 18.3928 32.2552 15.7372 30.2521 13.744Z" stroke="white" stroke-width="2.42019"/>
</svg>
