<svg width="37" height="37" viewBox="0 0 37 37" fill="none" xmlns="http://www.w3.org/2000/svg">
<rect width="37" height="37" rx="10" fill="#0EB80E"/>
<path d="M23.4059 19.9125C23.1659 19.7905 21.9878 19.2175 21.7692 19.138C21.5506 19.0584 21.3907 19.016 21.2307 19.26C21.0708 19.4987 20.6123 20.0345 20.4737 20.1936C20.3351 20.3528 20.1965 20.374 19.9566 20.252C19.7167 20.13 18.9437 19.8806 18.0267 19.069C17.3123 18.4377 16.8325 17.6526 16.6939 17.4139C16.5553 17.1752 16.6779 17.0479 16.8005 16.9259C16.9072 16.8198 17.0404 16.6447 17.1577 16.5068C17.275 16.3689 17.3177 16.2681 17.3976 16.109C17.4776 15.9498 17.435 15.8119 17.3763 15.6899C17.3177 15.5679 16.8379 14.3955 16.6353 13.9181C16.438 13.4513 16.2408 13.5149 16.0968 13.5096C15.9582 13.5043 15.7983 13.499 15.6384 13.499C15.4784 13.499 15.2172 13.5574 14.9986 13.7961C14.78 14.0348 14.1616 14.613 14.1616 15.7854C14.1616 16.9577 15.0199 18.0929 15.1426 18.2521C15.2598 18.4112 16.8325 20.8196 19.2422 21.854C19.8126 22.098 20.2605 22.2466 20.607 22.358C21.1828 22.5383 21.7052 22.5118 22.1157 22.4534C22.5742 22.3845 23.5338 21.8752 23.7364 21.3182C23.9336 20.7612 23.9336 20.2838 23.875 20.183C23.8057 20.0928 23.6458 20.0345 23.4059 19.9125Z" fill="white"/>
<path d="M25.3809 11.616C23.688 9.93146 21.4373 9 19.0423 9C14.1029 9 10.0797 13.0033 10.0797 17.9183C10.0797 19.4889 10.4929 21.0248 11.2747 22.3774L10 27L14.7502 25.7614C16.0597 26.4699 17.5336 26.8464 19.0324 26.8464H19.0373C23.9767 26.8464 28 22.8431 28 17.9282C28.005 15.545 27.0738 13.3006 25.3809 11.616Z" stroke="white" stroke-width="2.04545"/>
</svg>
